<svg viewBox="0 0 121 44" fill="none" xmlns="http://www.w3.org/2000/svg"><path fill-rule="evenodd" clip-rule="evenodd" d="M59.13 28.249h-3.05c-1.265 0-2.225.132-2.88.396-.994.403-1.491 1.133-1.491 2.19v7.81c0 .47.236.706.707.706h.5c.471 0 .707-.236.707-.707v-1.767h5.973c2.759 0 4.138-.899 4.138-2.698v-3.37c0-1.707-1.535-2.56-4.603-2.56zm2.664 5.956c0 .719-.733 1.078-2.198 1.078h-5.973v-4.405c0-.684.847-1.025 2.543-1.025h2.982c.752 0 1.278.028 1.577.086.713.138 1.07.437 1.07.896v3.37zm9.266-5.956h-.767c-1.092 0-2.003.178-2.732.535-.954.465-1.434 1.186-1.44 2.163l-.026 5.275c0 .483.236.724.707.724h.526c.471 0 .707-.238.707-.715v-5.284c0-.724.715-1.086 2.146-1.086h.88c.476 0 .715-.236.715-.707v-.19c0-.476-.239-.715-.716-.715zm10.379 0h-3.19c-1.482 0-2.629.319-3.44.957-.66.517-.99 1.129-.99 1.836v3.206c0 .414.12.805.362 1.172.666 1.018 2.025 1.526 4.077 1.526h3.18c1.115 0 2.02-.16 2.716-.482 1.023-.471 1.534-1.21 1.534-2.215v-3.224c0-1.85-1.417-2.776-4.25-2.776zm2.301 6c0 .396-.313.692-.94.887a4.698 4.698 0 01-1.405.207h-3.111c-.564 0-1.07-.06-1.518-.18-.69-.185-1.034-.49-1.034-.914v-3.207c0-.442.34-.767 1.017-.974a5.237 5.237 0 011.526-.207h3.112c1.568 0 2.353.345 2.353 1.034v3.354zm14.912-5.517c-.695-.328-1.526-.491-2.491-.491h-3.577c-1.161 0-2.141.175-2.94.525-1.097.483-1.646 1.227-1.646 2.233v3.198c0 1.051.554 1.807 1.663 2.267.776.322 1.776.482 3 .482h1.224c.471 0 .707-.238.707-.715v-.172c0-.477-.236-.716-.708-.716H92.45c-1.658 0-2.487-.6-2.487-1.801h9.525c.356 0 .534-.265.534-.793v-2.095c.001-.85-.456-1.491-1.37-1.922zm-.491 3.146h-8.25v-1c0-.678.963-1.017 2.888-1.017h2.776c.47 0 .965.063 1.482.19.736.178 1.104.43 1.104.758v1.07zm13.792 3.714l-6-3.004 5.865-2.919c.325-.161.488-.392.488-.692 0-.44-.27-.659-.811-.659h-.551c-.058 0-.164.026-.319.078l-6.456 3.224v-5.017c0-.471-.236-.707-.707-.707h-.483c-.471 0-.707.236-.707.707v9.628c0 .477.236.716.707.716h.483c.471 0 .707-.239.707-.716v-2.638l6.542 3.276a.7.7 0 00.319.077h.603c.546 0 .819-.218.819-.655 0-.3-.166-.532-.499-.7zm8.205-7.274h-3.034v-1.715c0-.471-.236-.707-.707-.707h-.5c-.471 0-.707.236-.707.707v1.715h-.672c-.477 0-.715.236-.715.707v.18c0 .478.238.716.715.716h.672v6.31c0 .477.236.715.707.715h.5c.471 0 .707-.238.707-.715v-6.31h3.034c.477 0 .716-.238.716-.715v-.181c0-.471-.239-.707-.716-.707zM40.138 19.044h-.842c-.115 0-.19.09-.224.268a2.439 2.439 0 00-.021.394v.746c0 .423.086.635.257.635h1.101l-.001-1.494c0-.366-.09-.549-.27-.549zm-.837-7.027h.25l-.002-2.062h-.267c-.082 0-.146.092-.19.276-.031.13-.047.253-.047.37v.694c.001.481.086.722.255.722zM39.809 0H4.157A4.157 4.157 0 000 4.157v19.539a15.036 15.036 0 015.087-8.01c1.79-1.468 3.95-2.59 6.482-3.37 2.532-.78 5.353-1.17 8.464-1.17 1.708 0 3.264.096 4.667.286 1.403.191 2.628.423 3.675.697 1.047.273 1.917.568 2.608.883.691.315 1.175.589 1.449.82.275.233.473.56.595.983.122.423.183 1.05.183 1.879 0 .48-.026.895-.076 1.244a3.302 3.302 0 01-.214.833c-.091.207-.203.353-.335.435a.87.87 0 01-.473.125c-.265 0-.692-.15-1.281-.448-.59-.299-1.373-.622-2.349-.97-.976-.349-2.14-.672-3.492-.97-1.353-.3-2.923-.448-4.713-.448-1.911 0-3.64.27-5.185.808-1.546.54-2.867 1.302-3.965 2.289a9.976 9.976 0 00-2.532 3.557c-.59 1.385-.884 2.915-.884 4.59 0 1.841.3 3.462.9 4.864.599 1.401 1.438 2.575 2.516 3.52 1.077.945 2.374 1.659 3.889 2.14 1.514.48 3.187.721 5.017.721.895 0 1.78-.083 2.654-.249a11.175 11.175 0 002.44-.746v-7.463h-7.473c-.366 0-.65-.187-.854-.56-.204-.373-.305-1.008-.305-1.903 0-.464.025-.854.076-1.17.05-.314.127-.567.229-.758.101-.19.223-.332.366-.423a.887.887 0 01.488-.137h13.33c.324 0 .614.046.868.137.254.091.478.228.671.41.194.183.34.403.443.66a2.4 2.4 0 01.152.883v12.812c0 .497-.106.933-.32 1.306-.213.373-.65.668-1.311.883-.661.216-1.48.44-2.456.672-.976.232-1.988.431-3.035.597-.147.023-.295.043-.442.065H39.81a4.157 4.157 0 004.157-4.157V4.157A4.158 4.158 0 0039.81 0zm-1.76 5.393c0-.118.06-.177.177-.177h.429v-.759c0-.12.058-.179.176-.179h.045c.12 0 .179.06.18.179v.758l1.577-.001c.119 0 .179.059.179.176v.125c0 .118-.06.177-.179.177l-1.577.001v.169c0 .119-.06.178-.178.179h-.046c-.117 0-.176-.06-.176-.18v-.167h-.43c-.117 0-.176-.059-.176-.176v-.125zm.004 3.359V8.63c0-.118.058-.177.176-.177l1.254-.001-.807-1.613a.313.313 0 01-.02-.08v-.138c0-.135.055-.202.165-.202.075 0 .132.04.173.122l.73 1.465.75-1.5c.042-.084.1-.125.175-.125.109 0 .164.068.164.204v.15a.177.177 0 01-.02.08l-.817 1.637h.66c.119-.001.178.058.178.176v.12c0 .118-.06.177-.178.177l-2.407.002c-.117 0-.176-.059-.176-.176zm.587 1.703c0-.241.04-.449.122-.622.108-.229.268-.343.48-.343h.524c.132 0 .198.043.198.133l.002 2.38c.3 0 .45-.207.45-.622v-.358c0-.118.06-.177.178-.177h.043c.12 0 .18.059.18.176v.306c0 .306-.04.556-.12.75-.115.277-.304.416-.567.416l-.8.001c-.25 0-.437-.137-.557-.411a1.825 1.825 0 01-.133-.735v-.894zm.005 3.68c0-.708.23-1.062.693-1.063h.806c.251 0 .436.127.554.383.08.174.12.4.121.678v.795c.001.513-.126.853-.38 1.02a.524.524 0 01-.293.09l-.801.001c-.177 0-.33-.082-.46-.247-.16-.203-.239-.49-.24-.86v-.797zm.002 2.594c0-.119.06-.179.179-.179h.047c.118 0 .177.06.177.179v.22c0 .357.091.536.272.536l1.321-.001c.12 0 .179.058.18.176v.132c0 .117-.061.176-.182.176l-1.318-.005c-.244-.001-.425-.12-.541-.36a1.552 1.552 0 01-.134-.682v-.192zm2.603 4.835l-1.952.002c-.265 0-.447-.124-.548-.373-.066-.163-.1-.403-.1-.719v-.763c0-.767.212-1.15.639-1.15l.842-.001c.45 0 .675.344.675 1.033l.002 1.493h.441c.118 0 .177.059.177.177v.124c0 .118-.058.177-.176.177zm-2.15-6.257c.053.17.134.254.244.254h.802c.106 0 .182-.087.228-.26.03-.112.045-.238.045-.379v-.778c0-.123-.018-.24-.052-.35-.05-.157-.123-.236-.223-.236l-.838.001c-.172 0-.258.197-.258.589v.777c0 .141.018.268.053.382zm67.329 2.492a4.852 4.852 0 00-1.126-.703 13.06 13.06 0 00-1.278-.502 34.436 34.436 0 00-1.279-.398 10.194 10.194 0 01-1.126-.39 2.795 2.795 0 01-.799-.483.874.874 0 01-.304-.678c0-.173.043-.336.128-.488a1.16 1.16 0 01.384-.398c.17-.112.388-.2.655-.26.266-.06.58-.091.942-.091.512 0 .967.045 1.367.136.399.091.751.19 1.054.293.304.105.557.203.759.294.202.09.352.136.448.136a.512.512 0 00.223-.045.322.322 0 00.152-.176c.037-.087.064-.204.08-.352s.024-.339.024-.573c0-.2-.008-.367-.024-.502a3.254 3.254 0 00-.056-.339.734.734 0 00-.096-.234.714.714 0 00-.216-.196 3.06 3.06 0 00-.503-.235 6.284 6.284 0 00-.863-.254 11.467 11.467 0 00-1.142-.195 10.595 10.595 0 00-1.302-.078c-.895 0-1.702.09-2.421.273-.72.183-1.329.44-1.83.77-.5.33-.884.727-1.15 1.192a3.03 3.03 0 00-.4 1.531c0 .547.099 1.017.296 1.407a3.2 3.2 0 00.783 1.004c.325.278.692.513 1.103.704.41.19.83.36 1.262.508.431.148.852.282 1.262.404.41.122.777.252 1.103.39.324.14.585.303.782.49.197.187.296.41.296.67 0 .227-.053.427-.16.6a1.21 1.21 0 01-.471.43c-.208.113-.453.2-.735.26a4.537 4.537 0 01-.967.092 6.386 6.386 0 01-1.542-.17 10.24 10.24 0 01-1.19-.364 12.08 12.08 0 01-.855-.359c-.23-.108-.402-.163-.52-.163a.557.557 0 00-.239.046.356.356 0 00-.16.182 1.3 1.3 0 00-.096.365 4.526 4.526 0 00-.032.606c0 .383.032.672.096.867.064.196.154.339.272.43.117.091.304.19.559.293.256.105.575.207.959.306a11.444 11.444 0 002.828.345c.884 0 1.704-.084 2.461-.253.756-.17 1.411-.424 1.965-.763.554-.338.983-.76 1.286-1.264.304-.504.456-1.086.456-1.746 0-.53-.102-.988-.304-1.375a3.28 3.28 0 00-.799-.997zm-14.412-5.623c-.511-.37-1.164-.643-1.957-.821-.794-.178-1.75-.267-2.868-.267-.629 0-1.239.041-1.83.124-.591.082-1.137.189-1.637.319-.501.13-.938.272-1.31.423-.374.153-.635.292-.784.418a.96.96 0 00-.303.423 2.04 2.04 0 00-.08.639c0 .2.016.382.048.547.032.165.077.304.136.417.058.113.133.2.223.26.09.062.195.092.312.092.17 0 .391-.06.663-.183.272-.121.61-.256 1.014-.404.405-.147.871-.282 1.398-.404a8.042 8.042 0 011.798-.182c.511 0 .94.043 1.286.13.346.087.624.222.831.404.208.183.357.41.448.684.09.274.136.593.136.958v.704h-1.39c-1.268 0-2.381.078-3.34.235-.959.156-1.76.397-2.405.723-.644.326-1.129.739-1.454 1.238-.325.5-.487 1.088-.487 1.766 0 .625.128 1.173.384 1.642.255.469.615.862 1.078 1.18a5.103 5.103 0 001.646.716c.634.16 1.329.24 2.085.24.916 0 1.75-.142 2.5-.43a6.58 6.58 0 002.006-1.198v.925c0 .122.045.217.136.287.09.07.245.12.463.15.218.03.567.045 1.047.045a8.45 8.45 0 001.014-.045c.23-.03.397-.08.504-.15a.326.326 0 00.16-.287v-7.819c0-.8-.118-1.49-.352-2.072a3.21 3.21 0 00-1.12-1.427zm-2.477 8.32c-.49.453-.972.796-1.446 1.03a3.466 3.466 0 01-1.558.352c-.67 0-1.195-.138-1.573-.417-.379-.278-.568-.66-.568-1.146 0-.287.067-.541.2-.763.133-.221.344-.41.631-.567.288-.156.66-.273 1.119-.352a10.053 10.053 0 011.662-.117h1.533v1.98zM68.872 8.157c-.143-.122-.396-.265-.758-.43a8.591 8.591 0 00-1.367-.463 16.533 16.533 0 00-1.925-.365c-.735-.1-1.55-.15-2.444-.15-1.63 0-3.108.204-4.434.613-1.327.408-2.459.997-3.396 1.766a7.876 7.876 0 00-2.173 2.801c-.511 1.1-.767 2.34-.767 3.721 0 1.338.24 2.535.72 3.59a7.297 7.297 0 002.076 2.685c.905.734 2.01 1.294 3.316 1.68 1.304.387 2.782.58 4.434.58a21.782 21.782 0 003.347-.26 21.03 21.03 0 001.59-.313c.511-.121.94-.238 1.286-.351.346-.113.575-.268.687-.463.112-.195.168-.424.168-.684V15.4c0-.173-.027-.328-.08-.462a.95.95 0 00-.232-.346 1 1 0 00-.351-.215 1.35 1.35 0 00-.456-.071h-6.982a.465.465 0 00-.256.071.575.575 0 00-.192.222c-.053.1-.093.232-.12.397-.026.165-.04.37-.04.613 0 .469.054.801.16.997.107.195.256.293.448.293h3.915v3.91c-.395.173-.82.304-1.279.39-.458.087-.921.13-1.39.13-.959 0-1.835-.125-2.628-.377-.794-.252-1.473-.626-2.038-1.121a5.06 5.06 0 01-1.318-1.844c-.314-.734-.471-1.583-.471-2.548 0-.877.154-1.679.463-2.404a5.225 5.225 0 011.326-1.864c.575-.517 1.268-.916 2.078-1.199.809-.282 1.714-.423 2.716-.423.937 0 1.76.078 2.469.234.708.157 1.318.326 1.83.508.51.183.92.352 1.23.509.308.156.532.234.67.234a.454.454 0 00.248-.065.491.491 0 00.176-.228 1.73 1.73 0 00.112-.436c.026-.183.04-.4.04-.652 0-.434-.032-.762-.096-.984a1.023 1.023 0 00-.311-.514zm51.41 10.64a3.272 3.272 0 00-.798-.997 4.88 4.88 0 00-1.127-.703 13.06 13.06 0 00-1.278-.502 34.436 34.436 0 00-1.279-.398 10.194 10.194 0 01-1.126-.39 2.795 2.795 0 01-.799-.483.874.874 0 01-.304-.678c0-.173.043-.336.128-.488a1.16 1.16 0 01.384-.398c.17-.112.388-.2.655-.26.266-.06.58-.091.942-.091.512 0 .967.045 1.367.136.399.091.751.19 1.054.293.304.105.557.203.759.294.202.09.352.136.448.136a.512.512 0 00.223-.045.322.322 0 00.152-.176c.037-.087.064-.204.08-.352s.024-.339.024-.573c0-.2-.008-.367-.024-.502a3.254 3.254 0 00-.056-.339.712.712 0 00-.096-.234.702.702 0 00-.216-.196 3.06 3.06 0 00-.503-.235 6.284 6.284 0 00-.863-.254 11.417 11.417 0 00-2.444-.273c-.895 0-1.702.09-2.421.273-.719.183-1.329.44-1.829.77-.501.33-.885.727-1.151 1.192a3.03 3.03 0 00-.399 1.531c0 .547.098 1.017.295 1.407a3.2 3.2 0 00.783 1.004c.325.278.692.513 1.103.704.41.19.831.36 1.262.508.431.148.852.282 1.262.404.41.122.777.252 1.103.39.324.14.585.303.783.49.196.187.295.41.295.67 0 .227-.053.427-.16.6a1.21 1.21 0 01-.471.43c-.208.113-.453.2-.735.26a4.537 4.537 0 01-.967.092 6.39 6.39 0 01-1.542-.17 10.41 10.41 0 01-1.19-.364c-.341-.13-.626-.25-.855-.359-.229-.108-.402-.163-.519-.163a.558.558 0 00-.24.046.358.358 0 00-.16.182 1.323 1.323 0 00-.095.365 4.42 4.42 0 00-.033.606c0 .383.033.672.096.867.064.196.155.339.272.43.117.091.304.19.559.293.256.105.575.207.959.306a11.447 11.447 0 002.828.345c.884 0 1.704-.084 2.461-.253.756-.17 1.411-.424 1.965-.763.554-.338.983-.76 1.286-1.264.304-.504.456-1.086.456-1.746 0-.53-.101-.988-.304-1.375zM76.91 5.908a3.287 3.287 0 00-.615-.111 9.92 9.92 0 00-.975-.04c-.394 0-.72.014-.975.04-.256.026-.46.063-.615.11-.155.049-.264.107-.328.177a.339.339 0 00-.096.234v17.137c0 .087.032.163.096.228s.173.12.328.163c.154.044.36.076.615.098.256.021.58.033.975.033.394 0 .719-.011.975-.033.255-.022.46-.054.615-.098.154-.043.263-.098.327-.163a.315.315 0 00.096-.228V6.318a.339.339 0 00-.096-.234c-.064-.07-.173-.128-.327-.176z" fill="#fff"/></svg>