<svg xmlns="http://www.w3.org/2000/svg" xmlns:xlink="http://www.w3.org/1999/xlink"><symbol id="chevron"><path d="M.5 1L14 14.5.5 28" fill="none"/></symbol><symbol id="bofer" viewBox="0 0 38 12"><path d="M0 11.848V.768h3.98c1.425 0 2.508.262 3.249.784.746.523 1.119 1.281 1.119 2.276 0 .573-.132 1.062-.396 1.468-.264.406-.652.705-1.164.898.578.152 1.022.436 1.331.852.31.416.464.924.464 1.522 0 1.086-.345 1.902-1.034 2.45-.685.543-1.702.82-3.052.83H0zm2.67-4.71v2.655h1.751c.482 0 .852-.109 1.111-.327.259-.223.388-.535.388-.936 0-.923-.459-1.387-1.377-1.392H2.67zm0-1.75h1.393c.584-.006 1-.112 1.248-.32.249-.208.373-.515.373-.92 0-.468-.134-.802-.403-1.005-.269-.208-.703-.312-1.301-.312H2.67v2.556zm6.948 2.267c0-.822.16-1.552.48-2.191a3.423 3.423 0 011.377-1.484c.599-.345 1.301-.518 2.108-.518 1.232 0 2.204.383 2.914 1.15.71.76 1.066 1.798 1.066 3.112v.09c0 1.284-.358 2.304-1.073 3.06-.71.75-1.674 1.126-2.892 1.126-1.172 0-2.113-.35-2.823-1.05-.71-.705-1.093-1.659-1.15-2.861l-.007-.434zm2.565.16c0 .76.119 1.319.357 1.674.239.355.591.533 1.058.533.913 0 1.38-.703 1.4-2.108v-.259c0-1.476-.472-2.214-1.415-2.214-.858 0-1.322.636-1.393 1.91l-.007.464zm7.077 4.033V5.395h-1.195v-1.78h1.194V2.96c0-.938.277-1.666.83-2.184C20.642.26 21.418 0 22.417 0c.365 0 .766.053 1.202.16l.008 1.887a2.342 2.342 0 00-.631-.069c-.777 0-1.165.335-1.165 1.005v.631h1.606v1.781H21.83v6.453h-2.57zm8.88.152c-1.264 0-2.286-.375-3.067-1.126-.781-.756-1.172-1.738-1.172-2.945v-.213c0-.842.155-1.585.464-2.23a3.425 3.425 0 011.37-1.491c.599-.355 1.309-.533 2.13-.533 1.157 0 2.07.36 2.74 1.08.67.716 1.004 1.715 1.004 2.999v.997h-5.098c.091.461.292.824.601 1.088.31.264.71.396 1.203.396.811 0 1.445-.285 1.902-.853l1.172 1.385c-.32.442-.774.794-1.362 1.058A4.602 4.602 0 0128.14 12zm-.29-6.56c-.75 0-1.197.498-1.339 1.492h2.587v-.198c.01-.41-.094-.728-.312-.95-.218-.23-.53-.343-.936-.343zm9.778.495l-.844-.06c-.807 0-1.324.253-1.553.76v5.213h-2.564V3.614h2.405l.083 1.058c.432-.806 1.033-1.21 1.804-1.21.274 0 .512.03.715.092l-.046 2.381z"/></symbol><symbol id="arrow-down"><path fill-rule="evenodd" clip-rule="evenodd" d="M6.686 24.713h-.001a.962.962 0 01-1.37 0L.281 19.61a.983.983 0 01.003-1.381.962.962 0 011.369.003l3.378 3.426V.977C5.032.437 5.466 0 6 0c.535 0 .968.437.968.977v20.681l3.378-3.426a.962.962 0 011.369-.003c.379.38.38.999.003 1.381l-5.032 5.103z"/></symbol><symbol id="facebook" viewBox="0 0 29 29"><path d="M14.5 0C6.492 0 0 6.492 0 14.5S6.492 29 14.5 29 29 22.508 29 14.5 22.508 0 14.5 0zm5.532 7.384l-2.006.001c-1.572 0-1.877.747-1.877 1.844v2.418h3.75l-.001 3.787H16.15v9.718h-3.912v-9.718h-3.27v-3.787h3.27V8.854c0-3.241 1.98-5.006 4.872-5.006l2.922.004v3.532z"/></symbol><symbol id="instagram" viewBox="0 0 29 29"><path clip-rule="evenodd" d="M0 14.5C0 6.493 6.493 0 14.5 0S29 6.493 29 14.5 22.507 29 14.5 29 0 22.507 0 14.5zm22.389 5.454c.206-.53.347-1.135.387-2.021.04-.888.05-1.172.05-3.433s-.01-2.545-.05-3.433c-.04-.886-.181-1.491-.387-2.02a4.08 4.08 0 00-.96-1.476 4.081 4.081 0 00-1.475-.96c-.53-.206-1.135-.346-2.021-.387-.888-.04-1.172-.05-3.433-.05s-2.545.01-3.433.05c-.886.04-1.491.181-2.02.387a4.078 4.078 0 00-1.476.96c-.423.416-.751.92-.96 1.475-.206.53-.347 1.135-.387 2.021-.04.888-.05 1.172-.05 3.433s.01 2.545.05 3.433c.04.886.181 1.491.387 2.02a4.08 4.08 0 00.96 1.476c.416.423.92.75 1.475.96.53.206 1.135.346 2.021.387.888.04 1.172.05 3.433.05s2.545-.01 3.433-.05c.886-.04 1.491-.181 2.02-.387a4.258 4.258 0 002.436-2.435zM20.991 9.589a2.58 2.58 0 00-.623-.957 2.578 2.578 0 00-.957-.623c-.294-.114-.735-.25-1.546-.286-.879-.04-1.142-.049-3.365-.049-2.223 0-2.487.008-3.365.049-.811.037-1.252.172-1.545.286a2.576 2.576 0 00-.958.623c-.276.269-.49.596-.623.957-.114.294-.25.735-.286 1.547-.04.878-.05 1.14-.05 3.364 0 2.223.01 2.487.05 3.365.037.812.172 1.252.286 1.546.134.361.346.688.623.957.269.277.596.49.957.623.294.114.735.25 1.546.287.878.04 1.141.048 3.365.048 2.223 0 2.487-.008 3.364-.048.812-.037 1.253-.173 1.546-.287.727-.28 1.3-.854 1.58-1.58.115-.294.25-.735.287-1.546.04-.878.049-1.142.049-3.365 0-2.223-.009-2.486-.049-3.364-.037-.812-.172-1.253-.286-1.547zM14.5 18.775a4.275 4.275 0 110-8.55 4.275 4.275 0 010 8.55zm4.445-7.72a1 1 0 110-1.999 1 1 0 010 1.999zm-1.67 3.445a2.775 2.775 0 11-5.55 0 2.775 2.775 0 015.55 0z"/></symbol><symbol id="marker"><circle cx="17" cy="17" r="17" fill="#677B83"/><circle cx="17" cy="17" r="5.1" fill="#F9F9F9"/></symbol><symbol id="wood" viewBox="0 0 30 34"><path stroke="#677B83" d="M14.659 33.074v-22m.242 5.571l5-3m-5 6.858l-5-3m13.758 7.071c-3.6 1.6-7.5 0-9-1-3.334.666-10.6.7-13-4.5-2.4-5.2 2.333-9.167 5-10.5.166-2.334 2.1-7.1 8.5-7.5 8-.5-.5 1.5 8.5 7.5s4.5 14 0 16z"/></symbol></svg>