<svg xmlns="http://www.w3.org/2000/svg" xmlns:xlink="http://www.w3.org/1999/xlink"><symbol id="arrow-down"><path fill-rule="evenodd" clip-rule="evenodd" d="M6.686 24.713h-.001a.962.962 0 01-1.37 0L.281 19.61a.983.983 0 01.003-1.381.962.962 0 011.369.003l3.378 3.426V.977C5.032.437 5.466 0 6 0c.535 0 .968.437.968.977v20.681l3.378-3.426a.962.962 0 011.369-.003c.379.38.38.999.003 1.381l-5.032 5.103z"/></symbol><symbol id="chevron"><path d="M.5 1L14 14.5.5 28" fill="none" stroke-width="2"/></symbol><symbol id="marker"><circle cx="17" cy="17" r="17" fill="#677B83"/><circle cx="17" cy="17" r="5.1" fill="#F9F9F9"/></symbol><symbol id="wood" viewBox="0 0 30 34"><path stroke="#677B83" d="M14.659 33.074v-22m.242 5.571l5-3m-5 6.858l-5-3m13.758 7.071c-3.6 1.6-7.5 0-9-1-3.334.666-10.6.7-13-4.5-2.4-5.2 2.333-9.167 5-10.5.166-2.334 2.1-7.1 8.5-7.5 8-.5-.5 1.5 8.5 7.5s4.5 14 0 16z"/></symbol></svg>