<svg viewBox="0 0 41 47" fill="none" xmlns="http://www.w3.org/2000/svg"><path d="M9.102 22.799l.765-.644v-.001l-.765.645zm-.678-2.512l.985.172-.985-.172zm2.91-16.733l.985.171-.986-.171zm18.08.002l-.986.17v.001l.986-.171zm2.91 16.733l-.986.171.986-.171zm-.679 2.511l-.764-.644-.001.001.765.643zm-23.6 6.697h-1a1 1 0 001.638.77l-.638-.77zm-5.262-1.992l.012 1-.012-1zm4.161 10.393l.501-.866a.995.995 0 00-.189-.084l-.312.95zm11.671.177h1a1 1 0 00-1-1v1zm0 4.401v1a1 1 0 001-1h-1zM20.298 46l.044-.999h-.044v1zm.158 0v-1l-.044.001.044 1zm1.682-3.523h-1a1 1 0 001 1v-1zm0-4.401v-1a1 1 0 00-1 1h1zm11.668-.178l-.312-.95a.991.991 0 00-.19.085l.502.866zm4.162-10.392l-.013 1 .013-1zm-5.264 1.992l-.637.77a1 1 0 001.638-.77h-1zm-21.244-4.6H29.29v-2H11.46v2zm-3.124-1.455a4.076 4.076 0 003.124 1.456v-2c-.616 0-1.196-.27-1.593-.743l-1.53 1.287zm-.897-3.327a4.068 4.068 0 00.898 3.328l1.53-1.29a2.069 2.069 0 01-.458-1.694l-1.97-.344zm2.91-16.732l-2.91 16.733 1.97.342 2.91-16.733-1.97-.342zM14.37 0a4.076 4.076 0 00-4.022 3.383l1.97.342A2.076 2.076 0 0114.37 2V0zm12.007 0H14.37v2h12.007V0zM30.4 3.386A4.073 4.073 0 0026.377 0v2c1.018 0 1.879.725 2.051 1.726l1.971-.34zm2.91 16.731l-2.91-16.733-1.97.343 2.91 16.733 1.97-.343zm-.9 3.328a4.068 4.068 0 00.9-3.328l-1.97.344a2.068 2.068 0 01-.458 1.695l1.529 1.29zm-3.12 1.453a4.073 4.073 0 003.122-1.454l-1.531-1.287c-.395.47-.974.74-1.591.74v2zM9.045 29.497v-.23h-2v.23h2zm0-.23a6.29 6.29 0 00-6.284-6.285v2a4.29 4.29 0 014.284 4.284h2zm-6.284-6.285A2.762 2.762 0 000 25.743h2c0-.42.341-.761.761-.761v-2zM0 25.743a2.761 2.761 0 002.795 2.762l-.025-2a.76.76 0 01-.77-.762H0zm2.795 2.762c.376-.005.728.32.728.761h2c0-1.49-1.199-2.781-2.753-2.761l.025 2zm.728.761v5.284h2v-5.284h-2zm0 5.284a4.523 4.523 0 003.109 4.297l.624-1.9a2.523 2.523 0 01-1.733-2.397h-2zm4.082 2.525a.315.315 0 01-.16-.043l-1.002 1.73c.342.2.74.313 1.162.313v-2zm11.01 0H7.605v2h11.01v-2zm-1 1v4.401h2v-4.401h-2zm1 3.401h-5.728v2h5.728v-2zm-5.728 0a2.762 2.762 0 00-2.76 2.762h2c0-.42.34-.762.76-.762v-2zm-2.76 2.762a2.762 2.762 0 002.76 2.761v-2a.762.762 0 01-.76-.761h-2zm2.76 2.761h7.41v-2h-7.41v2zm7.366 0l.124.002v-2L20.342 45l-.089 1.998zm.124.002l.123-.003L20.412 45h-.035v2zm.079-.002h7.403v-2h-7.403v2zm7.403 0a2.762 2.762 0 002.761-2.761h-2c0 .42-.341.761-.761.761v2zm2.761-2.761a2.762 2.762 0 00-2.761-2.762v2c.42 0 .761.342.761.762h2zm-2.761-2.762h-5.72v2h5.72v-2zm-4.72 1v-4.401h-2v4.401h2zm10.006-5.401H22.138v2h11.007v-2zm.16-.043a.315.315 0 01-.16.043v2c.421 0 .82-.114 1.162-.312l-1.003-1.73zm1.922-2.482a2.523 2.523 0 01-1.733 2.398l.624 1.9a4.523 4.523 0 003.11-4.298h-2zm0-5.284v5.284h2v-5.284h-2zm2.753-2.761c-1.554-.02-2.753 1.271-2.753 2.761h2c0-.44.352-.766.728-.761l.025-2zm.77-.762a.76.76 0 01-.77.762l-.025 2a2.761 2.761 0 002.795-2.762h-2zm-.761-.761c.42 0 .761.341.761.761h2a2.762 2.762 0 00-2.761-2.761v2zm-4.284 4.284a4.29 4.29 0 014.284-4.284v-2a6.29 6.29 0 00-6.284 6.284h2zm0 .23v-.23h-2v.23h2zm-4.083-.109c.929 0 1.78.33 2.445.88l1.275-1.541a5.823 5.823 0 00-3.72-1.339v2zm-18.494 0h18.494v-2H11.128v2zm-2.445.88a3.822 3.822 0 012.445-.88v-2c-1.412 0-2.71.504-3.72 1.339l1.275 1.541z" fill="#172328"/></svg>
