<svg viewBox="0 0 45 45" fill="none" xmlns="http://www.w3.org/2000/svg"><mask id="a" fill="#fff"><path d="M44.539 16.595l-.461-1.721-3.1.83c.059-.242.11-.484.155-.725.624-3.376-.24-6.354-2.5-8.613l-1.26-1.26-2.269 2.27c-.07-.24-.146-.475-.228-.706-1.148-3.235-3.385-5.382-6.47-6.209L26.683 0l-.83 3.1c-.18-.172-.365-.339-.551-.498C22.691.375 19.68-.366 16.595.462l-1.721.46.83 3.098c-1.519-.37-3.373-.54-5.274-.03-1.529.41-2.896 1.209-4.064 2.376l-1.26 1.26 2.27 2.27c-2.598.756-5.798 2.532-6.915 6.699L0 18.315l3.1.831c-.172.18-.339.364-.498.551C.375 22.309-.366 25.32.462 28.405l.46 1.721 3.1-.83c-.059.242-.11.484-.155.725-.624 3.376.24 6.354 2.5 8.613l1.26 1.26 2.269-2.27c.07.24.146.475.228.706 1.148 3.235 3.385 5.382 6.47 6.209l1.722.461.83-3.1c.18.172.365.339.551.498 2.612 2.227 5.623 2.968 8.708 2.14l1.721-.46-.83-3.098c1.518.37 3.373.54 5.274.03 1.529-.41 2.896-1.209 4.064-2.376l1.26-1.26-2.27-2.27c2.598-.756 5.798-2.532 6.915-6.698L45 26.683l-3.1-.83c.172-.18.339-.364.498-.55 2.227-2.613 2.968-5.624 2.14-8.71zM25.344 33.113c-5.852 1.568-11.89-1.917-13.457-7.77-1.568-5.851 1.917-11.888 7.77-13.456 5.851-1.568 11.888 1.917 13.456 7.77 1.568 5.851-1.917 11.888-7.77 13.456z"/></mask><path d="M44.078 14.874l1.932-.518a2 2 0 00-2.45-1.414l.518 1.932zm-3.1.83l-1.943-.475a2 2 0 002.46 2.407l-.518-1.932zm.155-.725l-1.967-.363 1.967.363zm-2.5-8.613l1.415-1.414-1.415 1.414zm-1.26-1.26l1.415-1.414a2 2 0 00-2.829 0l1.415 1.414zm-2.269 2.27l-1.92.56a2 2 0 003.334.854l-1.414-1.414zm-.228-.706L36.761 6l-1.885.669zM28.406.46l.517-1.932-.518 1.932zM26.683 0l.518-1.932a2 2 0 00-2.45 1.414L26.684 0zm-.83 3.1L24.47 4.545a2 2 0 003.315-.927L25.853 3.1zm-.551-.498l1.298-1.521-1.298 1.521zM16.595.462l.517 1.931-.517-1.932zm-1.721.46l-.518-1.932a2 2 0 00-1.414 2.45l1.932-.518zm.83 3.098l-.475 1.943a2 2 0 002.407-2.46l-1.932.517zm-5.274-.03l-.517-1.932.517 1.931zM6.366 6.365L4.952 4.952l1.414 1.414zm-1.26 1.26L3.693 6.212a2 2 0 000 2.829l1.415-1.415zm2.27 2.27l.559 1.92a2 2 0 00.855-3.334L7.376 9.896zM.461 16.595l-1.932-.518 1.932.518zM0 18.315l-1.932-.517a2 2 0 001.414 2.45L0 18.316zm3.1.831l1.445 1.384a2 2 0 00-.927-3.315L3.1 19.146zm-.498.551l1.522 1.298-1.522-1.298zm-2.14 8.708l1.931-.517-1.932.517zm.46 1.721l-1.932.518a2 2 0 002.45 1.414l-.518-1.932zm3.1-.83l1.943.475a2 2 0 00-2.46-2.407l.518 1.932zm-.155.725l1.966.363-1.966-.363zm2.5 8.613l-1.415 1.414 1.414-1.414zm1.26 1.26l-1.415 1.414a2 2 0 002.829 0l-1.415-1.414zm2.269-2.27l1.92-.56a2 2 0 00-3.334-.854l1.414 1.414zm.228.706L8.239 39l1.885-.67zm6.47 6.209l-.517 1.932.518-1.932zm1.722.461l-.518 1.932a2 2 0 002.45-1.414L18.316 45zm.83-3.1l1.384-1.444a2 2 0 00-3.315.926l1.931.518zm.551.498l1.298-1.522-1.298 1.522zm8.708 2.14l-.517-1.93.517 1.93zm1.721-.46l.518 1.932a2 2 0 001.414-2.45l-1.932.518zm-.83-3.098l.475-1.943a2 2 0 00-2.407 2.46l1.932-.517zm5.274.03l.517 1.933-.517-1.932zm4.064-2.376l1.414 1.414-1.414-1.414zm1.26-1.26l1.414 1.414a2 2 0 000-2.828l-1.414 1.414zm-2.27-2.27l-.559-1.92a2 2 0 00-.855 3.334l1.414-1.414zm6.915-6.698l1.932.517-1.932-.517zM45 26.683l1.932.518a2 2 0 00-1.414-2.45L45 26.684zm-3.1-.83l-1.444-1.384a2 2 0 00.926 3.316l.518-1.932zm.498-.55l1.521 1.297-1.521-1.298zm4.073-9.227l-.461-1.721-3.864 1.035.461 1.721 3.864-1.035zm-2.91-3.135l-3.101.83 1.035 3.864 3.1-.83-1.035-3.864zm-.641 3.238c.068-.28.128-.559.18-.838l-3.934-.726a10.92 10.92 0 01-.131.613l3.885.95zm.18-.838c.732-3.966-.289-7.626-3.052-10.39l-2.829 2.829c1.754 1.753 2.462 4.05 1.947 6.835l3.934.726zm-3.052-10.39l-1.26-1.26-2.829 2.829 1.26 1.26 2.829-2.829zm-4.089-1.26l-2.27 2.27 2.83 2.828 2.269-2.27-2.829-2.828zm1.065 3.125c-.08-.276-.168-.549-.263-.816l-3.77 1.338c.07.194.133.393.193.597l3.84-1.12zM36.761 6c-1.349-3.8-4.063-6.46-7.838-7.472l-1.035 3.864c2.395.642 4.156 2.276 5.103 4.946L36.761 6zm-7.838-7.472l-1.721-.46-1.035 3.863 1.72.461 1.036-3.864zm-4.17.953l-.831 3.1 3.863 1.036.831-3.1-3.864-1.036zm2.484 2.174c-.208-.2-.42-.391-.636-.575l-2.596 3.043c.157.134.312.274.465.42l2.767-2.888zm-.636-.575c-3.069-2.617-6.749-3.563-10.524-2.552l1.035 3.864c2.396-.642 4.738-.107 6.893 1.731l2.596-3.043zM16.077-1.471l-1.721.461 1.035 3.864 1.721-.461-1.035-3.864zm-3.135 2.91l.83 3.1 3.864-1.036-.83-3.098-3.864 1.035zm3.237.639c-1.733-.424-3.945-.642-6.266-.02l1.035 3.863c1.48-.396 2.977-.277 4.28.042l.95-3.885zm-6.267-.02c-1.882.504-3.555 1.49-4.96 2.894L7.78 7.781c.931-.93 1.993-1.545 3.168-1.86L9.912 2.058zm-4.96 2.894l-1.26 1.26L6.521 9.04l1.26-1.26-2.829-2.828zm-1.26 4.089l2.27 2.27L8.79 8.48 6.52 6.213 3.693 9.041zm3.126-1.066c-2.956.86-6.92 2.994-8.289 8.102l3.864 1.035c.864-3.225 3.3-4.644 5.542-5.296l-1.117-3.84zm-8.289 8.102l-.46 1.721 3.863 1.035.461-1.72-3.864-1.036zm.953 4.17l3.1.831 1.036-3.863-3.1-.831-1.036 3.864zm2.174-2.484c-.199.208-.39.42-.575.636l3.043 2.596c.134-.157.274-.312.42-.465l-2.888-2.767zm-.575.636c-2.617 3.069-3.563 6.749-2.552 10.524l3.864-1.035c-.642-2.396-.107-4.738 1.731-6.893l-3.043-2.596zm-2.552 10.524l.461 1.721 3.864-1.035-.461-1.721-3.864 1.035zm2.91 3.135l3.101-.83-1.035-3.864-3.1.83 1.035 3.864zm.641-3.238c-.068.279-.128.559-.18.838l3.934.726c.037-.202.08-.407.131-.613l-3.885-.95zm-.18.838c-.732 3.966.289 7.626 3.052 10.39l2.829-2.829c-1.754-1.753-2.462-4.05-1.948-6.835L1.9 29.659zm3.052 10.39l1.26 1.26 2.829-2.829-1.26-1.26-2.829 2.829zm4.089 1.26l2.27-2.27-2.83-2.828-2.269 2.27 2.829 2.828zm-1.065-3.125c.08.276.168.549.263.816l3.77-1.338a10.908 10.908 0 01-.193-.596l-3.84 1.118zm.263.816c1.349 3.8 4.063 6.46 7.838 7.472l1.035-3.864c-2.395-.642-4.156-2.276-5.103-4.946L8.239 39zm7.838 7.472l1.721.46 1.035-3.863-1.72-.46-1.036 3.863zm4.17-.953l.831-3.1-3.863-1.036-.831 3.1 3.864 1.036zm-2.484-2.174c.208.199.42.391.636.575l2.596-3.043a10.779 10.779 0 01-.465-.42l-2.767 2.888zm.636.575c3.069 2.617 6.749 3.563 10.524 2.552l-1.035-3.864c-2.396.642-4.738.107-6.893-1.731l-2.596 3.043zm10.524 2.552l1.721-.461-1.035-3.864-1.721.461 1.035 3.864zm3.135-2.91l-.83-3.099-3.864 1.035.83 3.098 3.864-1.035zm-3.237-.639c1.733.424 3.945.642 6.266.02l-1.035-3.863c-1.48.396-2.977.277-4.28-.042l-.95 3.885zm6.266.02c1.883-.504 3.556-1.49 4.96-2.894l-2.828-2.829c-.93.93-1.992 1.545-3.167 1.86l1.035 3.864zm4.96-2.894l1.26-1.26-2.828-2.828-1.26 1.26 2.829 2.828zm1.26-4.089l-2.269-2.269-2.828 2.828 2.27 2.27 2.828-2.828zm-3.124 1.066c2.955-.86 6.92-2.994 8.288-8.102l-3.864-1.035c-.864 3.225-3.3 4.644-5.542 5.296l1.118 3.84zm8.288-8.102l.46-1.721-3.863-1.035-.46 1.72 3.863 1.036zm-.953-4.17l-3.1-.831-1.036 3.863 3.1.831 1.036-3.863zm-2.174 2.484c.2-.208.391-.42.575-.636l-3.043-2.596a10.91 10.91 0 01-.42.465l2.888 2.767zm.575-.636c2.617-3.069 3.563-6.749 2.552-10.524l-3.864 1.035c.642 2.396.107 4.738-1.731 6.893l3.043 2.596zm-19.093 4.58c-4.785 1.283-9.725-1.57-11.007-6.355l-3.864 1.035c1.854 6.92 8.987 11.038 15.906 9.184l-1.035-3.864zM13.82 24.826c-1.283-4.785 1.57-9.725 6.355-11.007l-1.035-3.864C12.219 11.81 8.1 18.942 9.955 25.861l3.864-1.035zm6.355-11.007c4.785-1.282 9.725 1.57 11.007 6.355l3.864-1.035C33.19 12.219 26.057 8.1 19.138 9.955l1.036 3.864zm11.007 6.355c1.282 4.785-1.57 9.725-6.355 11.007l1.035 3.864c6.92-1.854 11.038-8.987 9.184-15.906l-3.864 1.035z" fill="#172328" mask="url(#a)"/></svg>
