<svg width="927" height="458" viewBox="0 0 927 458" fill="none" xmlns="http://www.w3.org/2000/svg">
<path d="M10.5 433.5L66.5 405L142 397.5L217.5 375.5L293.5 347L370 321.5L445.5 262.5L520.5 208L600 181L674 119L750.5 88.5L827.5 52.5L902.5 75.5" stroke="#677B83" stroke-width="2"/>
<circle cx="10" cy="433" r="9" fill="#677B83"/>
<circle cx="10.0017" cy="433" r="3.24" fill="white"/>
<circle cx="67" cy="405" r="9" fill="#01A5E4"/>
<circle cx="67.0017" cy="405" r="3.24" fill="white"/>
<path d="M62.1254 440.876C62.7041 441.044 63.1474 441.338 63.4554 441.758C63.7728 442.169 63.9314 442.677 63.9314 443.284C63.9314 444.161 63.6001 444.852 62.9374 445.356C62.2748 445.86 61.3741 446.112 60.2354 446.112C59.5448 446.112 58.8821 446.014 58.2474 445.818C57.6128 445.613 57.0994 445.337 56.7074 444.992L57.4074 443.424C58.2941 444.068 59.2041 444.39 60.1374 444.39C60.7441 444.39 61.1828 444.287 61.4534 444.082C61.7334 443.867 61.8734 443.531 61.8734 443.074C61.8734 442.635 61.7334 442.318 61.4534 442.122C61.1828 441.917 60.7441 441.814 60.1374 441.814H58.7094V440.106H59.8994C60.4781 440.106 60.9074 440.008 61.1874 439.812C61.4674 439.607 61.6074 439.299 61.6074 438.888C61.6074 438.477 61.4814 438.165 61.2294 437.95C60.9868 437.735 60.6368 437.628 60.1794 437.628C59.7501 437.628 59.3114 437.712 58.8634 437.88C58.4154 438.039 57.9768 438.277 57.5474 438.594L56.8474 437.026C57.2488 436.681 57.7621 436.41 58.3874 436.214C59.0128 436.009 59.6568 435.906 60.3194 435.906C60.9914 435.906 61.5794 436.018 62.0834 436.242C62.5968 436.466 62.9888 436.779 63.2594 437.18C63.5394 437.581 63.6794 438.053 63.6794 438.594C63.6794 439.135 63.5441 439.607 63.2734 440.008C63.0028 440.4 62.6201 440.689 62.1254 440.876ZM67.636 443.746V446H65.354V443.746H67.636ZM76.116 436.032V437.656L71.678 446H69.34L73.764 437.782H68.962V436.032H76.116Z" fill="#01A5E4"/>
<path d="M54.4944 371.69V374H43.9784V371.91L49.3024 366.168C49.9331 365.479 50.3951 364.848 50.6884 364.276C50.9818 363.704 51.1284 363.139 51.1284 362.582C51.1284 361.863 50.9158 361.321 50.4904 360.954C50.0798 360.587 49.4858 360.404 48.7084 360.404C47.3298 360.404 45.9144 360.947 44.4624 362.032L43.5164 359.964C44.1324 359.407 44.9244 358.967 45.8924 358.644C46.8604 358.307 47.8358 358.138 48.8184 358.138C50.3878 358.138 51.6271 358.527 52.5364 359.304C53.4604 360.067 53.9224 361.101 53.9224 362.406C53.9224 363.301 53.7244 364.144 53.3284 364.936C52.9471 365.728 52.3018 366.615 51.3924 367.598L47.5424 371.69H54.4944ZM60.6893 374.198C58.8267 374.198 57.404 373.516 56.4213 372.152C55.4533 370.773 54.9693 368.771 54.9693 366.146C54.9693 363.565 55.4533 361.592 56.4213 360.228C57.404 358.864 58.8267 358.182 60.6893 358.182C62.552 358.182 63.9673 358.864 64.9353 360.228C65.918 361.577 66.4093 363.55 66.4093 366.146C66.4093 368.757 65.918 370.751 64.9353 372.13C63.9673 373.509 62.552 374.198 60.6893 374.198ZM60.6893 371.976C61.7013 371.976 62.4347 371.514 62.8893 370.59C63.3587 369.651 63.5933 368.17 63.5933 366.146C63.5933 364.151 63.3587 362.699 62.8893 361.79C62.4347 360.866 61.7013 360.404 60.6893 360.404C59.6773 360.404 58.9367 360.866 58.4673 361.79C58.0127 362.699 57.7853 364.151 57.7853 366.146C57.7853 368.17 58.0127 369.651 58.4673 370.59C58.9367 371.514 59.6773 371.976 60.6893 371.976ZM72.3407 374.198C70.4781 374.198 69.0554 373.516 68.0727 372.152C67.1047 370.773 66.6207 368.771 66.6207 366.146C66.6207 363.565 67.1047 361.592 68.0727 360.228C69.0554 358.864 70.4781 358.182 72.3407 358.182C74.2034 358.182 75.6187 358.864 76.5867 360.228C77.5694 361.577 78.0607 363.55 78.0607 366.146C78.0607 368.757 77.5694 370.751 76.5867 372.13C75.6187 373.509 74.2034 374.198 72.3407 374.198ZM72.3407 371.976C73.3527 371.976 74.0861 371.514 74.5407 370.59C75.0101 369.651 75.2447 368.17 75.2447 366.146C75.2447 364.151 75.0101 362.699 74.5407 361.79C74.0861 360.866 73.3527 360.404 72.3407 360.404C71.3287 360.404 70.5881 360.866 70.1187 361.79C69.6641 362.699 69.4367 364.151 69.4367 366.146C69.4367 368.17 69.6641 369.651 70.1187 370.59C70.5881 371.514 71.3287 371.976 72.3407 371.976ZM83.4862 358.138C85.4662 358.138 86.9915 358.813 88.0622 360.162C89.1475 361.497 89.6902 363.403 89.6902 365.882C89.6902 367.613 89.4335 369.101 88.9202 370.348C88.4068 371.595 87.6662 372.548 86.6982 373.208C85.7448 373.868 84.6082 374.198 83.2882 374.198C82.3495 374.198 81.4328 374.044 80.5382 373.736C79.6582 373.413 78.8955 372.959 78.2502 372.372L79.1962 370.304C80.5895 371.389 81.9168 371.932 83.1782 371.932C84.3368 371.932 85.2315 371.441 85.8622 370.458C86.5075 369.461 86.8448 368.038 86.8742 366.19C86.5368 366.865 86.0235 367.4 85.3342 367.796C84.6595 368.192 83.8895 368.39 83.0242 368.39C82.1002 368.39 81.2715 368.177 80.5382 367.752C79.8195 367.327 79.2548 366.733 78.8442 365.97C78.4335 365.207 78.2282 364.335 78.2282 363.352C78.2282 362.355 78.4482 361.46 78.8882 360.668C79.3428 359.876 79.9662 359.26 80.7582 358.82C81.5648 358.365 82.4742 358.138 83.4862 358.138ZM83.6402 366.124C84.4615 366.124 85.1288 365.86 85.6422 365.332C86.1555 364.804 86.4122 364.115 86.4122 363.264C86.4122 362.413 86.1555 361.724 85.6422 361.196C85.1288 360.653 84.4615 360.382 83.6402 360.382C82.8188 360.382 82.1588 360.646 81.6602 361.174C81.1762 361.702 80.9342 362.399 80.9342 363.264C80.9342 364.129 81.1762 364.826 81.6602 365.354C82.1588 365.867 82.8188 366.124 83.6402 366.124Z" fill="#172328"/>
<circle cx="827" cy="53" r="9" fill="#01A5E4"/>
<circle cx="827.002" cy="52.9998" r="3.24" fill="white"/>
<path d="M819.825 92.25V94H812.979V92.39L816.297 88.862C816.988 88.1153 817.333 87.434 817.333 86.818C817.333 86.426 817.217 86.132 816.983 85.936C816.759 85.7307 816.428 85.628 815.989 85.628C815.14 85.628 814.258 85.95 813.343 86.594L812.643 85.026C813.045 84.6807 813.558 84.41 814.183 84.214C814.809 84.0087 815.443 83.906 816.087 83.906C817.123 83.906 817.945 84.158 818.551 84.662C819.167 85.1567 819.475 85.824 819.475 86.664C819.475 87.2427 819.354 87.7793 819.111 88.274C818.878 88.7593 818.481 89.3007 817.921 89.898L815.667 92.25H819.825ZM824.342 83.906C825.639 83.906 826.638 84.3353 827.338 85.194C828.038 86.0527 828.388 87.2753 828.388 88.862C828.388 89.954 828.22 90.8967 827.884 91.69C827.548 92.474 827.067 93.076 826.442 93.496C825.816 93.916 825.07 94.126 824.202 94.126C823.586 94.126 822.988 94.028 822.41 93.832C821.831 93.636 821.336 93.3607 820.926 93.006L821.64 91.438C822.489 92.082 823.31 92.404 824.104 92.404C824.757 92.404 825.261 92.1427 825.616 91.62C825.98 91.088 826.18 90.3133 826.218 89.296C826.003 89.6693 825.695 89.968 825.294 90.192C824.892 90.4067 824.444 90.514 823.95 90.514C823.371 90.514 822.848 90.3787 822.382 90.108C821.924 89.828 821.565 89.4453 821.304 88.96C821.052 88.4653 820.926 87.9053 820.926 87.28C820.926 86.636 821.07 86.0573 821.36 85.544C821.658 85.0307 822.064 84.6293 822.578 84.34C823.1 84.0507 823.688 83.906 824.342 83.906ZM824.468 88.792C824.916 88.792 825.275 88.6473 825.546 88.358C825.826 88.0593 825.966 87.672 825.966 87.196C825.966 86.7293 825.826 86.3513 825.546 86.062C825.266 85.7633 824.906 85.614 824.468 85.614C824.02 85.614 823.66 85.7587 823.39 86.048C823.128 86.3373 822.998 86.72 822.998 87.196C822.998 87.6907 823.128 88.0827 823.39 88.372C823.651 88.652 824.01 88.792 824.468 88.792ZM831.84 91.746V94H829.558V91.746H831.84ZM838.388 88.876C838.967 89.044 839.41 89.338 839.718 89.758C840.035 90.1687 840.194 90.6773 840.194 91.284C840.194 92.1613 839.863 92.852 839.2 93.356C838.537 93.86 837.637 94.112 836.498 94.112C835.807 94.112 835.145 94.014 834.51 93.818C833.875 93.6127 833.362 93.3373 832.97 92.992L833.67 91.424C834.557 92.068 835.467 92.39 836.4 92.39C837.007 92.39 837.445 92.2873 837.716 92.082C837.996 91.8673 838.136 91.5313 838.136 91.074C838.136 90.6353 837.996 90.318 837.716 90.122C837.445 89.9167 837.007 89.814 836.4 89.814H834.972V88.106H836.162C836.741 88.106 837.17 88.008 837.45 87.812C837.73 87.6067 837.87 87.2987 837.87 86.888C837.87 86.4773 837.744 86.1647 837.492 85.95C837.249 85.7353 836.899 85.628 836.442 85.628C836.013 85.628 835.574 85.712 835.126 85.88C834.678 86.0387 834.239 86.2767 833.81 86.594L833.11 85.026C833.511 84.6807 834.025 84.41 834.65 84.214C835.275 84.0087 835.919 83.906 836.582 83.906C837.254 83.906 837.842 84.018 838.346 84.242C838.859 84.466 839.251 84.7787 839.522 85.18C839.802 85.5813 839.942 86.0527 839.942 86.594C839.942 87.1353 839.807 87.6067 839.536 88.008C839.265 88.4 838.883 88.6893 838.388 88.876Z" fill="#01A5E4"/>
<path d="M814.494 19.69V22H803.978V19.91L809.302 14.168C809.933 13.4787 810.395 12.848 810.688 12.276C810.982 11.704 811.128 11.1393 811.128 10.582C811.128 9.86333 810.916 9.32067 810.49 8.954C810.08 8.58733 809.486 8.404 808.708 8.404C807.33 8.404 805.914 8.94667 804.462 10.032L803.516 7.964C804.132 7.40667 804.924 6.96667 805.892 6.644C806.86 6.30667 807.836 6.138 808.818 6.138C810.388 6.138 811.627 6.52667 812.536 7.304C813.46 8.06667 813.922 9.10067 813.922 10.406C813.922 11.3007 813.724 12.144 813.328 12.936C812.947 13.728 812.302 14.6153 811.392 15.598L807.542 19.69H814.494ZM820.689 22.198C818.827 22.198 817.404 21.516 816.421 20.152C815.453 18.7733 814.969 16.7713 814.969 14.146C814.969 11.5647 815.453 9.592 816.421 8.228C817.404 6.864 818.827 6.182 820.689 6.182C822.552 6.182 823.967 6.864 824.935 8.228C825.918 9.57733 826.409 11.55 826.409 14.146C826.409 16.7567 825.918 18.7513 824.935 20.13C823.967 21.5087 822.552 22.198 820.689 22.198ZM820.689 19.976C821.701 19.976 822.435 19.514 822.889 18.59C823.359 17.6513 823.593 16.17 823.593 14.146C823.593 12.1513 823.359 10.6993 822.889 9.79C822.435 8.866 821.701 8.404 820.689 8.404C819.677 8.404 818.937 8.866 818.467 9.79C818.013 10.6993 817.785 12.1513 817.785 14.146C817.785 16.17 818.013 17.6513 818.467 18.59C818.937 19.514 819.677 19.976 820.689 19.976ZM837.863 19.69V22H828.205V19.69H831.637V9.592L828.447 11.506V8.976L832.803 6.336H834.453V19.69H837.863ZM843.486 6.138C845.466 6.138 846.991 6.81267 848.062 8.162C849.147 9.49667 849.69 11.4033 849.69 13.882C849.69 15.6127 849.433 17.1013 848.92 18.348C848.407 19.5947 847.666 20.548 846.698 21.208C845.745 21.868 844.608 22.198 843.288 22.198C842.349 22.198 841.433 22.044 840.538 21.736C839.658 21.4133 838.895 20.9587 838.25 20.372L839.196 18.304C840.589 19.3893 841.917 19.932 843.178 19.932C844.337 19.932 845.231 19.4407 845.862 18.458C846.507 17.4607 846.845 16.038 846.874 14.19C846.537 14.8647 846.023 15.4 845.334 15.796C844.659 16.192 843.889 16.39 843.024 16.39C842.1 16.39 841.271 16.1773 840.538 15.752C839.819 15.3267 839.255 14.7327 838.844 13.97C838.433 13.2073 838.228 12.3347 838.228 11.352C838.228 10.3547 838.448 9.46 838.888 8.668C839.343 7.876 839.966 7.26 840.758 6.82C841.565 6.36533 842.474 6.138 843.486 6.138ZM843.64 14.124C844.461 14.124 845.129 13.86 845.642 13.332C846.155 12.804 846.412 12.1147 846.412 11.264C846.412 10.4133 846.155 9.724 845.642 9.196C845.129 8.65333 844.461 8.382 843.64 8.382C842.819 8.382 842.159 8.646 841.66 9.174C841.176 9.702 840.934 10.3987 840.934 11.264C840.934 12.1293 841.176 12.826 841.66 13.354C842.159 13.8673 842.819 14.124 843.64 14.124Z" fill="#172328"/>
<circle cx="903" cy="75" r="9" fill="#01A5E4"/>
<circle cx="903.002" cy="74.9998" r="3.24" fill="white"/>
<path d="M895.825 114.25V116H888.979V114.39L892.297 110.862C892.988 110.115 893.333 109.434 893.333 108.818C893.333 108.426 893.217 108.132 892.983 107.936C892.759 107.731 892.428 107.628 891.989 107.628C891.14 107.628 890.258 107.95 889.343 108.594L888.643 107.026C889.045 106.681 889.558 106.41 890.183 106.214C890.809 106.009 891.443 105.906 892.087 105.906C893.123 105.906 893.945 106.158 894.551 106.662C895.167 107.157 895.475 107.824 895.475 108.664C895.475 109.243 895.354 109.779 895.111 110.274C894.878 110.759 894.481 111.301 893.921 111.898L891.667 114.25H895.825ZM902.47 110.862C903.114 111.03 903.613 111.324 903.968 111.744C904.322 112.164 904.5 112.677 904.5 113.284C904.5 113.863 904.336 114.367 904.01 114.796C903.692 115.216 903.244 115.543 902.666 115.776C902.087 116 901.424 116.112 900.678 116.112C899.931 116.112 899.268 116 898.69 115.776C898.111 115.543 897.658 115.216 897.332 114.796C897.014 114.367 896.856 113.863 896.856 113.284C896.856 112.677 897.033 112.164 897.388 111.744C897.752 111.315 898.251 111.021 898.886 110.862C898.326 110.675 897.887 110.386 897.57 109.994C897.252 109.602 897.094 109.14 897.094 108.608C897.094 108.067 897.248 107.591 897.556 107.18C897.864 106.769 898.288 106.457 898.83 106.242C899.38 106.018 899.996 105.906 900.678 105.906C901.359 105.906 901.97 106.018 902.512 106.242C903.062 106.457 903.492 106.769 903.8 107.18C904.108 107.591 904.262 108.067 904.262 108.608C904.262 109.149 904.098 109.621 903.772 110.022C903.454 110.423 903.02 110.703 902.47 110.862ZM900.678 107.586C900.211 107.586 899.838 107.693 899.558 107.908C899.287 108.123 899.152 108.435 899.152 108.846C899.152 109.238 899.287 109.555 899.558 109.798C899.838 110.031 900.211 110.195 900.678 110.288C901.144 110.195 901.513 110.031 901.784 109.798C902.064 109.555 902.204 109.238 902.204 108.846C902.204 108.435 902.064 108.123 901.784 107.908C901.513 107.693 901.144 107.586 900.678 107.586ZM900.678 114.432C901.228 114.432 901.662 114.32 901.98 114.096C902.306 113.872 902.47 113.545 902.47 113.116C902.47 112.715 902.306 112.388 901.98 112.136C901.662 111.884 901.228 111.716 900.678 111.632C900.127 111.716 899.688 111.884 899.362 112.136C899.044 112.388 898.886 112.715 898.886 113.116C898.886 113.545 899.044 113.872 899.362 114.096C899.688 114.32 900.127 114.432 900.678 114.432ZM907.84 113.746V116H905.558V113.746H907.84ZM913.464 109.518C914.043 109.518 914.561 109.658 915.018 109.938C915.485 110.209 915.844 110.591 916.096 111.086C916.357 111.571 916.488 112.127 916.488 112.752C916.488 113.396 916.339 113.975 916.04 114.488C915.751 115.001 915.345 115.403 914.822 115.692C914.309 115.981 913.725 116.126 913.072 116.126C911.775 116.126 910.776 115.697 910.076 114.838C909.376 113.979 909.026 112.757 909.026 111.17C909.026 110.078 909.194 109.14 909.53 108.356C909.866 107.563 910.347 106.956 910.972 106.536C911.597 106.116 912.344 105.906 913.212 105.906C913.828 105.906 914.425 106.004 915.004 106.2C915.583 106.396 916.077 106.671 916.488 107.026L915.774 108.594C914.934 107.95 914.113 107.628 913.31 107.628C912.657 107.628 912.148 107.894 911.784 108.426C911.42 108.949 911.219 109.719 911.182 110.736C911.397 110.363 911.705 110.069 912.106 109.854C912.517 109.63 912.969 109.518 913.464 109.518ZM912.946 114.418C913.394 114.418 913.749 114.273 914.01 113.984C914.281 113.695 914.416 113.312 914.416 112.836C914.416 112.341 914.285 111.954 914.024 111.674C913.763 111.385 913.403 111.24 912.946 111.24C912.498 111.24 912.134 111.389 911.854 111.688C911.583 111.977 911.448 112.36 911.448 112.836C911.448 113.303 911.588 113.685 911.868 113.984C912.148 114.273 912.507 114.418 912.946 114.418Z" fill="#01A5E4"/>
<path d="M890.484 41.69V44H879.968V41.91L885.292 36.168C885.922 35.4787 886.384 34.848 886.678 34.276C886.971 33.704 887.118 33.1393 887.118 32.582C887.118 31.8633 886.905 31.3207 886.48 30.954C886.069 30.5873 885.475 30.404 884.698 30.404C883.319 30.404 881.904 30.9467 880.452 32.032L879.506 29.964C880.122 29.4067 880.914 28.9667 881.882 28.644C882.85 28.3067 883.825 28.138 884.808 28.138C886.377 28.138 887.616 28.5267 888.526 29.304C889.45 30.0667 889.912 31.1007 889.912 32.406C889.912 33.3007 889.714 34.144 889.318 34.936C888.936 35.728 888.291 36.6153 887.382 37.598L883.532 41.69H890.484ZM896.679 44.198C894.816 44.198 893.393 43.516 892.411 42.152C891.443 40.7733 890.959 38.7713 890.959 36.146C890.959 33.5647 891.443 31.592 892.411 30.228C893.393 28.864 894.816 28.182 896.679 28.182C898.541 28.182 899.957 28.864 900.925 30.228C901.907 31.5773 902.399 33.55 902.399 36.146C902.399 38.7567 901.907 40.7513 900.925 42.13C899.957 43.5087 898.541 44.198 896.679 44.198ZM896.679 41.976C897.691 41.976 898.424 41.514 898.879 40.59C899.348 39.6513 899.583 38.17 899.583 36.146C899.583 34.1513 899.348 32.6993 898.879 31.79C898.424 30.866 897.691 30.404 896.679 30.404C895.667 30.404 894.926 30.866 894.457 31.79C894.002 32.6993 893.775 34.1513 893.775 36.146C893.775 38.17 894.002 39.6513 894.457 40.59C894.926 41.514 895.667 41.976 896.679 41.976ZM913.808 41.69V44H903.292V41.91L908.616 36.168C909.247 35.4787 909.709 34.848 910.002 34.276C910.295 33.704 910.442 33.1393 910.442 32.582C910.442 31.8633 910.229 31.3207 909.804 30.954C909.393 30.5873 908.799 30.404 908.022 30.404C906.643 30.404 905.228 30.9467 903.776 32.032L902.83 29.964C903.446 29.4067 904.238 28.9667 905.206 28.644C906.174 28.3067 907.149 28.138 908.132 28.138C909.701 28.138 910.941 28.5267 911.85 29.304C912.774 30.0667 913.236 31.1007 913.236 32.406C913.236 33.3007 913.038 34.144 912.642 34.936C912.261 35.728 911.615 36.6153 910.706 37.598L906.856 41.69H913.808ZM920.003 44.198C918.14 44.198 916.718 43.516 915.735 42.152C914.767 40.7733 914.283 38.7713 914.283 36.146C914.283 33.5647 914.767 31.592 915.735 30.228C916.718 28.864 918.14 28.182 920.003 28.182C921.866 28.182 923.281 28.864 924.249 30.228C925.232 31.5773 925.723 33.55 925.723 36.146C925.723 38.7567 925.232 40.7513 924.249 42.13C923.281 43.5087 921.866 44.198 920.003 44.198ZM920.003 41.976C921.015 41.976 921.748 41.514 922.203 40.59C922.672 39.6513 922.907 38.17 922.907 36.146C922.907 34.1513 922.672 32.6993 922.203 31.79C921.748 30.866 921.015 30.404 920.003 30.404C918.991 30.404 918.25 30.866 917.781 31.79C917.326 32.6993 917.099 34.1513 917.099 36.146C917.099 38.17 917.326 39.6513 917.781 40.59C918.25 41.514 918.991 41.976 920.003 41.976Z" fill="#172328"/>
<circle cx="751" cy="89" r="9" fill="#01A5E4"/>
<circle cx="751.002" cy="88.9998" r="3.24" fill="white"/>
<path d="M743.819 128.25V130H736.973V128.39L740.291 124.862C740.981 124.115 741.327 123.434 741.327 122.818C741.327 122.426 741.21 122.132 740.977 121.936C740.753 121.731 740.421 121.628 739.983 121.628C739.133 121.628 738.251 121.95 737.337 122.594L736.637 121.026C737.038 120.681 737.551 120.41 738.177 120.214C738.802 120.009 739.437 119.906 740.081 119.906C741.117 119.906 741.938 120.158 742.545 120.662C743.161 121.157 743.469 121.824 743.469 122.664C743.469 123.243 743.347 123.779 743.105 124.274C742.871 124.759 742.475 125.301 741.915 125.898L739.66 128.25H743.819ZM752.255 120.032V121.656L747.817 130H745.479L749.903 121.782H745.101V120.032H752.255ZM755.833 127.746V130H753.551V127.746H755.833ZM764.285 128.25V130H757.439V128.39L760.757 124.862C761.448 124.115 761.793 123.434 761.793 122.818C761.793 122.426 761.677 122.132 761.443 121.936C761.219 121.731 760.888 121.628 760.449 121.628C759.6 121.628 758.718 121.95 757.803 122.594L757.103 121.026C757.505 120.681 758.018 120.41 758.643 120.214C759.269 120.009 759.903 119.906 760.547 119.906C761.583 119.906 762.405 120.158 763.011 120.662C763.627 121.157 763.935 121.824 763.935 122.664C763.935 123.243 763.814 123.779 763.571 124.274C763.338 124.759 762.941 125.301 762.381 125.898L760.127 128.25H764.285Z" fill="#01A5E4"/>
<path d="M738.494 55.69V58H727.978V55.91L733.302 50.168C733.933 49.4787 734.395 48.848 734.688 48.276C734.982 47.704 735.128 47.1393 735.128 46.582C735.128 45.8633 734.916 45.3207 734.49 44.954C734.08 44.5873 733.486 44.404 732.708 44.404C731.33 44.404 729.914 44.9467 728.462 46.032L727.516 43.964C728.132 43.4067 728.924 42.9667 729.892 42.644C730.86 42.3067 731.836 42.138 732.818 42.138C734.388 42.138 735.627 42.5267 736.536 43.304C737.46 44.0667 737.922 45.1007 737.922 46.406C737.922 47.3007 737.724 48.144 737.328 48.936C736.947 49.728 736.302 50.6153 735.392 51.598L731.542 55.69H738.494ZM744.689 58.198C742.827 58.198 741.404 57.516 740.421 56.152C739.453 54.7733 738.969 52.7713 738.969 50.146C738.969 47.5647 739.453 45.592 740.421 44.228C741.404 42.864 742.827 42.182 744.689 42.182C746.552 42.182 747.967 42.864 748.935 44.228C749.918 45.5773 750.409 47.55 750.409 50.146C750.409 52.7567 749.918 54.7513 748.935 56.13C747.967 57.5087 746.552 58.198 744.689 58.198ZM744.689 55.976C745.701 55.976 746.435 55.514 746.889 54.59C747.359 53.6513 747.593 52.17 747.593 50.146C747.593 48.1513 747.359 46.6993 746.889 45.79C746.435 44.866 745.701 44.404 744.689 44.404C743.677 44.404 742.937 44.866 742.467 45.79C742.013 46.6993 741.785 48.1513 741.785 50.146C741.785 52.17 742.013 53.6513 742.467 54.59C742.937 55.514 743.677 55.976 744.689 55.976ZM761.863 55.69V58H752.205V55.69H755.637V45.592L752.447 47.506V44.976L756.803 42.336H758.453V55.69H761.863ZM770.632 49.948C771.644 50.1973 772.436 50.6593 773.008 51.334C773.58 52.0087 773.866 52.8227 773.866 53.776C773.866 54.6707 773.617 55.4553 773.118 56.13C772.634 56.79 771.945 57.296 771.05 57.648C770.17 58 769.151 58.176 767.992 58.176C766.833 58.176 765.807 58 764.912 57.648C764.032 57.296 763.343 56.79 762.844 56.13C762.36 55.4553 762.118 54.6707 762.118 53.776C762.118 52.8227 762.404 52.0087 762.976 51.334C763.548 50.6593 764.34 50.1973 765.352 49.948C764.472 49.6547 763.775 49.1927 763.262 48.562C762.763 47.9313 762.514 47.198 762.514 46.362C762.514 45.5113 762.749 44.7707 763.218 44.14C763.687 43.4947 764.333 43.0033 765.154 42.666C765.99 42.314 766.936 42.138 767.992 42.138C769.048 42.138 769.987 42.314 770.808 42.666C771.644 43.0033 772.297 43.4947 772.766 44.14C773.235 44.7707 773.47 45.5113 773.47 46.362C773.47 47.2127 773.213 47.9607 772.7 48.606C772.201 49.2367 771.512 49.684 770.632 49.948ZM767.992 44.36C767.127 44.36 766.445 44.558 765.946 44.954C765.447 45.35 765.198 45.9147 765.198 46.648C765.198 47.3373 765.447 47.902 765.946 48.342C766.459 48.7673 767.141 49.046 767.992 49.178C768.843 49.046 769.517 48.7673 770.016 48.342C770.529 47.902 770.786 47.3373 770.786 46.648C770.786 45.9147 770.537 45.35 770.038 44.954C769.539 44.558 768.857 44.36 767.992 44.36ZM767.992 55.954C768.989 55.954 769.767 55.7487 770.324 55.338C770.896 54.9273 771.182 54.3407 771.182 53.578C771.182 52.8593 770.889 52.28 770.302 51.84C769.73 51.4 768.96 51.114 767.992 50.982C767.024 51.114 766.247 51.4 765.66 51.84C765.088 52.28 764.802 52.8593 764.802 53.578C764.802 54.3407 765.081 54.9273 765.638 55.338C766.21 55.7487 766.995 55.954 767.992 55.954Z" fill="#172328"/>
<circle cx="675" cy="121" r="9" fill="#01A5E4"/>
<circle cx="675.002" cy="121" r="3.24" fill="white"/>
<path d="M667.825 160.25V162H660.979V160.39L664.297 156.862C664.988 156.115 665.333 155.434 665.333 154.818C665.333 154.426 665.217 154.132 664.983 153.936C664.759 153.731 664.428 153.628 663.989 153.628C663.14 153.628 662.258 153.95 661.343 154.594L660.643 153.026C661.045 152.681 661.558 152.41 662.183 152.214C662.809 152.009 663.443 151.906 664.087 151.906C665.123 151.906 665.945 152.158 666.551 152.662C667.167 153.157 667.475 153.824 667.475 154.664C667.475 155.243 667.354 155.779 667.111 156.274C666.878 156.759 666.481 157.301 665.921 157.898L663.667 160.25H667.825ZM674.33 156.876C674.908 157.044 675.352 157.338 675.66 157.758C675.977 158.169 676.136 158.677 676.136 159.284C676.136 160.161 675.804 160.852 675.142 161.356C674.479 161.86 673.578 162.112 672.44 162.112C671.749 162.112 671.086 162.014 670.452 161.818C669.817 161.613 669.304 161.337 668.912 160.992L669.612 159.424C670.498 160.068 671.408 160.39 672.342 160.39C672.948 160.39 673.387 160.287 673.658 160.082C673.938 159.867 674.078 159.531 674.078 159.074C674.078 158.635 673.938 158.318 673.658 158.122C673.387 157.917 672.948 157.814 672.342 157.814H670.914V156.106H672.104C672.682 156.106 673.112 156.008 673.392 155.812C673.672 155.607 673.812 155.299 673.812 154.888C673.812 154.477 673.686 154.165 673.434 153.95C673.191 153.735 672.841 153.628 672.384 153.628C671.954 153.628 671.516 153.712 671.068 153.88C670.62 154.039 670.181 154.277 669.752 154.594L669.052 153.026C669.453 152.681 669.966 152.41 670.592 152.214C671.217 152.009 671.861 151.906 672.524 151.906C673.196 151.906 673.784 152.018 674.288 152.242C674.801 152.466 675.193 152.779 675.464 153.18C675.744 153.581 675.884 154.053 675.884 154.594C675.884 155.135 675.748 155.607 675.478 156.008C675.207 156.4 674.824 156.689 674.33 156.876ZM679.84 159.746V162H677.558V159.746H679.84ZM685.338 155.546C685.954 155.546 686.5 155.681 686.976 155.952C687.461 156.213 687.835 156.587 688.096 157.072C688.367 157.557 688.502 158.117 688.502 158.752C688.502 159.424 688.343 160.017 688.026 160.53C687.718 161.034 687.27 161.426 686.682 161.706C686.103 161.977 685.427 162.112 684.652 162.112C684.017 162.112 683.387 162.009 682.762 161.804C682.146 161.599 681.647 161.328 681.264 160.992L681.964 159.424C682.851 160.068 683.756 160.39 684.68 160.39C685.847 160.39 686.43 159.872 686.43 158.836C686.43 158.341 686.276 157.954 685.968 157.674C685.669 157.385 685.259 157.24 684.736 157.24C684.409 157.24 684.078 157.301 683.742 157.422C683.415 157.543 683.121 157.711 682.86 157.926H681.614V152.032H688.012V153.712H683.742V155.938C684.181 155.677 684.713 155.546 685.338 155.546Z" fill="#01A5E4"/>
<path d="M662.494 87.69V90H651.978V87.91L657.302 82.168C657.933 81.4787 658.395 80.848 658.688 80.276C658.982 79.704 659.128 79.1393 659.128 78.582C659.128 77.8633 658.916 77.3207 658.49 76.954C658.08 76.5873 657.486 76.404 656.708 76.404C655.33 76.404 653.914 76.9467 652.462 78.032L651.516 75.964C652.132 75.4067 652.924 74.9667 653.892 74.644C654.86 74.3067 655.836 74.138 656.818 74.138C658.388 74.138 659.627 74.5267 660.536 75.304C661.46 76.0667 661.922 77.1007 661.922 78.406C661.922 79.3007 661.724 80.144 661.328 80.936C660.947 81.728 660.302 82.6153 659.392 83.598L655.542 87.69H662.494ZM668.689 90.198C666.827 90.198 665.404 89.516 664.421 88.152C663.453 86.7733 662.969 84.7713 662.969 82.146C662.969 79.5647 663.453 77.592 664.421 76.228C665.404 74.864 666.827 74.182 668.689 74.182C670.552 74.182 671.967 74.864 672.935 76.228C673.918 77.5773 674.409 79.55 674.409 82.146C674.409 84.7567 673.918 86.7513 672.935 88.13C671.967 89.5087 670.552 90.198 668.689 90.198ZM668.689 87.976C669.701 87.976 670.435 87.514 670.889 86.59C671.359 85.6513 671.593 84.17 671.593 82.146C671.593 80.1513 671.359 78.6993 670.889 77.79C670.435 76.866 669.701 76.404 668.689 76.404C667.677 76.404 666.937 76.866 666.467 77.79C666.013 78.6993 665.785 80.1513 665.785 82.146C665.785 84.17 666.013 85.6513 666.467 86.59C666.937 87.514 667.677 87.976 668.689 87.976ZM685.863 87.69V90H676.205V87.69H679.637V77.592L676.447 79.506V76.976L680.803 74.336H682.453V87.69H685.863ZM697.448 74.336V76.448L690.342 90H687.306L694.39 76.646H686.536V74.336H697.448Z" fill="#172328"/>
<circle cx="599" cy="181" r="9" fill="#01A5E4"/>
<circle cx="599.002" cy="181" r="3.24" fill="white"/>
<path d="M592.014 220.25V222H585.518V220.25H587.674V214.468L585.658 215.658V213.74L588.584 212.032H589.858V220.25H592.014ZM598.463 216.862C599.107 217.03 599.606 217.324 599.961 217.744C600.315 218.164 600.493 218.677 600.493 219.284C600.493 219.863 600.329 220.367 600.003 220.796C599.685 221.216 599.237 221.543 598.659 221.776C598.08 222 597.417 222.112 596.671 222.112C595.924 222.112 595.261 222 594.683 221.776C594.104 221.543 593.651 221.216 593.325 220.796C593.007 220.367 592.849 219.863 592.849 219.284C592.849 218.677 593.026 218.164 593.381 217.744C593.745 217.315 594.244 217.021 594.879 216.862C594.319 216.675 593.88 216.386 593.563 215.994C593.245 215.602 593.087 215.14 593.087 214.608C593.087 214.067 593.241 213.591 593.549 213.18C593.857 212.769 594.281 212.457 594.823 212.242C595.373 212.018 595.989 211.906 596.671 211.906C597.352 211.906 597.963 212.018 598.505 212.242C599.055 212.457 599.485 212.769 599.793 213.18C600.101 213.591 600.255 214.067 600.255 214.608C600.255 215.149 600.091 215.621 599.765 216.022C599.447 216.423 599.013 216.703 598.463 216.862ZM596.671 213.586C596.204 213.586 595.831 213.693 595.551 213.908C595.28 214.123 595.145 214.435 595.145 214.846C595.145 215.238 595.28 215.555 595.551 215.798C595.831 216.031 596.204 216.195 596.671 216.288C597.137 216.195 597.506 216.031 597.777 215.798C598.057 215.555 598.197 215.238 598.197 214.846C598.197 214.435 598.057 214.123 597.777 213.908C597.506 213.693 597.137 213.586 596.671 213.586ZM596.671 220.432C597.221 220.432 597.655 220.32 597.973 220.096C598.299 219.872 598.463 219.545 598.463 219.116C598.463 218.715 598.299 218.388 597.973 218.136C597.655 217.884 597.221 217.716 596.671 217.632C596.12 217.716 595.681 217.884 595.355 218.136C595.037 218.388 594.879 218.715 594.879 219.116C594.879 219.545 595.037 219.872 595.355 220.096C595.681 220.32 596.12 220.432 596.671 220.432ZM603.833 219.746V222H601.551V219.746H603.833ZM610.521 216.862C611.165 217.03 611.665 217.324 612.019 217.744C612.374 218.164 612.551 218.677 612.551 219.284C612.551 219.863 612.388 220.367 612.061 220.796C611.744 221.216 611.296 221.543 610.717 221.776C610.139 222 609.476 222.112 608.729 222.112C607.983 222.112 607.32 222 606.741 221.776C606.163 221.543 605.71 221.216 605.383 220.796C605.066 220.367 604.907 219.863 604.907 219.284C604.907 218.677 605.085 218.164 605.439 217.744C605.803 217.315 606.303 217.021 606.937 216.862C606.377 216.675 605.939 216.386 605.621 215.994C605.304 215.602 605.145 215.14 605.145 214.608C605.145 214.067 605.299 213.591 605.607 213.18C605.915 212.769 606.34 212.457 606.881 212.242C607.432 212.018 608.048 211.906 608.729 211.906C609.411 211.906 610.022 212.018 610.563 212.242C611.114 212.457 611.543 212.769 611.851 213.18C612.159 213.591 612.313 214.067 612.313 214.608C612.313 215.149 612.15 215.621 611.823 216.022C611.506 216.423 611.072 216.703 610.521 216.862ZM608.729 213.586C608.263 213.586 607.889 213.693 607.609 213.908C607.339 214.123 607.203 214.435 607.203 214.846C607.203 215.238 607.339 215.555 607.609 215.798C607.889 216.031 608.263 216.195 608.729 216.288C609.196 216.195 609.565 216.031 609.835 215.798C610.115 215.555 610.255 215.238 610.255 214.846C610.255 214.435 610.115 214.123 609.835 213.908C609.565 213.693 609.196 213.586 608.729 213.586ZM608.729 220.432C609.28 220.432 609.714 220.32 610.031 220.096C610.358 219.872 610.521 219.545 610.521 219.116C610.521 218.715 610.358 218.388 610.031 218.136C609.714 217.884 609.28 217.716 608.729 217.632C608.179 217.716 607.74 217.884 607.413 218.136C607.096 218.388 606.937 218.715 606.937 219.116C606.937 219.545 607.096 219.872 607.413 220.096C607.74 220.32 608.179 220.432 608.729 220.432Z" fill="#01A5E4"/>
<path d="M586.494 147.69V150H575.978V147.91L581.302 142.168C581.933 141.479 582.395 140.848 582.688 140.276C582.982 139.704 583.128 139.139 583.128 138.582C583.128 137.863 582.916 137.321 582.49 136.954C582.08 136.587 581.486 136.404 580.708 136.404C579.33 136.404 577.914 136.947 576.462 138.032L575.516 135.964C576.132 135.407 576.924 134.967 577.892 134.644C578.86 134.307 579.836 134.138 580.818 134.138C582.388 134.138 583.627 134.527 584.536 135.304C585.46 136.067 585.922 137.101 585.922 138.406C585.922 139.301 585.724 140.144 585.328 140.936C584.947 141.728 584.302 142.615 583.392 143.598L579.542 147.69H586.494ZM592.689 150.198C590.827 150.198 589.404 149.516 588.421 148.152C587.453 146.773 586.969 144.771 586.969 142.146C586.969 139.565 587.453 137.592 588.421 136.228C589.404 134.864 590.827 134.182 592.689 134.182C594.552 134.182 595.967 134.864 596.935 136.228C597.918 137.577 598.409 139.55 598.409 142.146C598.409 144.757 597.918 146.751 596.935 148.13C595.967 149.509 594.552 150.198 592.689 150.198ZM592.689 147.976C593.701 147.976 594.435 147.514 594.889 146.59C595.359 145.651 595.593 144.17 595.593 142.146C595.593 140.151 595.359 138.699 594.889 137.79C594.435 136.866 593.701 136.404 592.689 136.404C591.677 136.404 590.937 136.866 590.467 137.79C590.013 138.699 589.785 140.151 589.785 142.146C589.785 144.17 590.013 145.651 590.467 146.59C590.937 147.514 591.677 147.976 592.689 147.976ZM609.863 147.69V150H600.205V147.69H603.637V137.592L600.447 139.506V136.976L604.803 134.336H606.453V147.69H609.863ZM616.96 139.946C617.884 139.946 618.705 140.159 619.424 140.584C620.157 141.009 620.729 141.603 621.14 142.366C621.551 143.129 621.756 144.001 621.756 144.984C621.756 145.981 621.529 146.876 621.074 147.668C620.634 148.46 620.011 149.083 619.204 149.538C618.412 149.978 617.51 150.198 616.498 150.198C614.518 150.198 612.993 149.531 611.922 148.196C610.851 146.847 610.316 144.933 610.316 142.454C610.316 140.723 610.565 139.235 611.064 137.988C611.577 136.741 612.311 135.788 613.264 135.128C614.232 134.468 615.376 134.138 616.696 134.138C617.635 134.138 618.544 134.299 619.424 134.622C620.319 134.93 621.096 135.377 621.756 135.964L620.788 138.032C619.409 136.947 618.082 136.404 616.806 136.404C615.647 136.404 614.753 136.895 614.122 137.878C613.491 138.861 613.161 140.269 613.132 142.102C613.469 141.442 613.983 140.921 614.672 140.54C615.361 140.144 616.124 139.946 616.96 139.946ZM616.366 147.954C617.173 147.954 617.818 147.69 618.302 147.162C618.801 146.634 619.05 145.937 619.05 145.072C619.05 144.207 618.801 143.517 618.302 143.004C617.818 142.476 617.165 142.212 616.344 142.212C615.523 142.212 614.855 142.476 614.342 143.004C613.829 143.532 613.572 144.221 613.572 145.072C613.572 145.923 613.829 146.619 614.342 147.162C614.87 147.69 615.545 147.954 616.366 147.954Z" fill="#172328"/>
<circle cx="523" cy="208" r="9" fill="#01A5E4"/>
<circle cx="523.002" cy="208" r="3.24" fill="white"/>
<path d="M516.007 247.25V249H509.511V247.25H511.667V241.468L509.651 242.658V240.74L512.577 239.032H513.851V247.25H516.007ZM524.248 239.032V240.656L519.81 249H517.472L521.896 240.782H517.094V239.032H524.248ZM527.826 246.746V249H525.544V246.746H527.826ZM536.278 247.25V249H529.432V247.39L532.75 243.862C533.441 243.115 533.786 242.434 533.786 241.818C533.786 241.426 533.67 241.132 533.436 240.936C533.212 240.731 532.881 240.628 532.442 240.628C531.593 240.628 530.711 240.95 529.796 241.594L529.096 240.026C529.498 239.681 530.011 239.41 530.636 239.214C531.262 239.009 531.896 238.906 532.54 238.906C533.576 238.906 534.398 239.158 535.004 239.662C535.62 240.157 535.928 240.824 535.928 241.664C535.928 242.243 535.807 242.779 535.564 243.274C535.331 243.759 534.934 244.301 534.374 244.898L532.12 247.25H536.278Z" fill="#01A5E4"/>
<path d="M510.494 174.69V177H499.978V174.91L505.302 169.168C505.933 168.479 506.395 167.848 506.688 167.276C506.982 166.704 507.128 166.139 507.128 165.582C507.128 164.863 506.916 164.321 506.49 163.954C506.08 163.587 505.486 163.404 504.708 163.404C503.33 163.404 501.914 163.947 500.462 165.032L499.516 162.964C500.132 162.407 500.924 161.967 501.892 161.644C502.86 161.307 503.836 161.138 504.818 161.138C506.388 161.138 507.627 161.527 508.536 162.304C509.46 163.067 509.922 164.101 509.922 165.406C509.922 166.301 509.724 167.144 509.328 167.936C508.947 168.728 508.302 169.615 507.392 170.598L503.542 174.69H510.494ZM516.689 177.198C514.827 177.198 513.404 176.516 512.421 175.152C511.453 173.773 510.969 171.771 510.969 169.146C510.969 166.565 511.453 164.592 512.421 163.228C513.404 161.864 514.827 161.182 516.689 161.182C518.552 161.182 519.967 161.864 520.935 163.228C521.918 164.577 522.409 166.55 522.409 169.146C522.409 171.757 521.918 173.751 520.935 175.13C519.967 176.509 518.552 177.198 516.689 177.198ZM516.689 174.976C517.701 174.976 518.435 174.514 518.889 173.59C519.359 172.651 519.593 171.17 519.593 169.146C519.593 167.151 519.359 165.699 518.889 164.79C518.435 163.866 517.701 163.404 516.689 163.404C515.677 163.404 514.937 163.866 514.467 164.79C514.013 165.699 513.785 167.151 513.785 169.146C513.785 171.17 514.013 172.651 514.467 173.59C514.937 174.514 515.677 174.976 516.689 174.976ZM533.863 174.69V177H524.205V174.69H527.637V164.592L524.447 166.506V163.976L528.803 161.336H530.453V174.69H533.863ZM540.828 166.99C541.811 166.99 542.676 167.203 543.424 167.628C544.172 168.039 544.751 168.625 545.162 169.388C545.573 170.136 545.778 171.001 545.778 171.984C545.778 173.011 545.543 173.92 545.074 174.712C544.605 175.489 543.93 176.098 543.05 176.538C542.17 176.963 541.151 177.176 539.992 177.176C539.009 177.176 538.041 177.015 537.088 176.692C536.135 176.355 535.35 175.907 534.734 175.35L535.68 173.282C537.103 174.367 538.555 174.91 540.036 174.91C541.019 174.91 541.767 174.668 542.28 174.184C542.808 173.685 543.072 172.981 543.072 172.072C543.072 171.207 542.801 170.517 542.258 170.004C541.73 169.476 541.019 169.212 540.124 169.212C539.508 169.212 538.929 169.329 538.386 169.564C537.843 169.784 537.367 170.114 536.956 170.554H535.24V161.336H545.052V163.536H538.012V167.804C538.804 167.261 539.743 166.99 540.828 166.99Z" fill="#172328"/>
<circle cx="447" cy="262" r="9" fill="#01A5E4"/>
<circle cx="447.002" cy="262" r="3.24" fill="white"/>
<path d="M440.014 301.25V303H433.518V301.25H435.674V295.468L433.658 296.658V294.74L436.584 293.032H437.858V301.25H440.014ZM445.273 296.546C445.889 296.546 446.435 296.681 446.911 296.952C447.396 297.213 447.769 297.587 448.031 298.072C448.301 298.557 448.437 299.117 448.437 299.752C448.437 300.424 448.278 301.017 447.961 301.53C447.653 302.034 447.205 302.426 446.617 302.706C446.038 302.977 445.361 303.112 444.587 303.112C443.952 303.112 443.322 303.009 442.697 302.804C442.081 302.599 441.581 302.328 441.199 301.992L441.899 300.424C442.785 301.068 443.691 301.39 444.615 301.39C445.781 301.39 446.365 300.872 446.365 299.836C446.365 299.341 446.211 298.954 445.903 298.674C445.604 298.385 445.193 298.24 444.671 298.24C444.344 298.24 444.013 298.301 443.677 298.422C443.35 298.543 443.056 298.711 442.795 298.926H441.549V293.032H447.947V294.712H443.677V296.938C444.115 296.677 444.647 296.546 445.273 296.546ZM451.833 300.746V303H449.551V300.746H451.833ZM460.313 293.032V294.656L455.875 303H453.537L457.961 294.782H453.159V293.032H460.313Z" fill="#01A5E4"/>
<path d="M434.494 228.69V231H423.978V228.91L429.302 223.168C429.933 222.479 430.395 221.848 430.688 221.276C430.982 220.704 431.128 220.139 431.128 219.582C431.128 218.863 430.916 218.321 430.49 217.954C430.08 217.587 429.486 217.404 428.708 217.404C427.33 217.404 425.914 217.947 424.462 219.032L423.516 216.964C424.132 216.407 424.924 215.967 425.892 215.644C426.86 215.307 427.836 215.138 428.818 215.138C430.388 215.138 431.627 215.527 432.536 216.304C433.46 217.067 433.922 218.101 433.922 219.406C433.922 220.301 433.724 221.144 433.328 221.936C432.947 222.728 432.302 223.615 431.392 224.598L427.542 228.69H434.494ZM440.689 231.198C438.827 231.198 437.404 230.516 436.421 229.152C435.453 227.773 434.969 225.771 434.969 223.146C434.969 220.565 435.453 218.592 436.421 217.228C437.404 215.864 438.827 215.182 440.689 215.182C442.552 215.182 443.967 215.864 444.935 217.228C445.918 218.577 446.409 220.55 446.409 223.146C446.409 225.757 445.918 227.751 444.935 229.13C443.967 230.509 442.552 231.198 440.689 231.198ZM440.689 228.976C441.701 228.976 442.435 228.514 442.889 227.59C443.359 226.651 443.593 225.17 443.593 223.146C443.593 221.151 443.359 219.699 442.889 218.79C442.435 217.866 441.701 217.404 440.689 217.404C439.677 217.404 438.937 217.866 438.467 218.79C438.013 219.699 437.785 221.151 437.785 223.146C437.785 225.17 438.013 226.651 438.467 227.59C438.937 228.514 439.677 228.976 440.689 228.976ZM457.863 228.69V231H448.205V228.69H451.637V218.592L448.447 220.506V217.976L452.803 215.336H454.453V228.69H457.863ZM470.064 227.942H467.842V231H465.07V227.942H458.25V225.83L465.576 215.336H467.842V225.72H470.064V227.942ZM465.07 225.72V219.758L460.934 225.72H465.07Z" fill="#172328"/>
<circle cx="371" cy="321" r="9" fill="#01A5E4"/>
<circle cx="371.002" cy="321" r="3.24" fill="white"/>
<path d="M364.007 360.25V362H357.511V360.25H359.667V354.468L357.651 355.658V353.74L360.577 352.032H361.851V360.25H364.007ZM372.22 360.25V362H365.374V360.39L368.692 356.862C369.383 356.115 369.728 355.434 369.728 354.818C369.728 354.426 369.611 354.132 369.378 353.936C369.154 353.731 368.823 353.628 368.384 353.628C367.535 353.628 366.653 353.95 365.738 354.594L365.038 353.026C365.439 352.681 365.953 352.41 366.578 352.214C367.203 352.009 367.838 351.906 368.482 351.906C369.518 351.906 370.339 352.158 370.946 352.662C371.562 353.157 371.87 353.824 371.87 354.664C371.87 355.243 371.749 355.779 371.506 356.274C371.273 356.759 370.876 357.301 370.316 357.898L368.062 360.25H372.22ZM375.84 359.746V362H373.558V359.746H375.84ZM380.4 351.906C381.697 351.906 382.696 352.335 383.396 353.194C384.096 354.053 384.446 355.275 384.446 356.862C384.446 357.954 384.278 358.897 383.942 359.69C383.606 360.474 383.125 361.076 382.5 361.496C381.875 361.916 381.128 362.126 380.26 362.126C379.644 362.126 379.047 362.028 378.468 361.832C377.889 361.636 377.395 361.361 376.984 361.006L377.698 359.438C378.547 360.082 379.369 360.404 380.162 360.404C380.815 360.404 381.319 360.143 381.674 359.62C382.038 359.088 382.239 358.313 382.276 357.296C382.061 357.669 381.753 357.968 381.352 358.192C380.951 358.407 380.503 358.514 380.008 358.514C379.429 358.514 378.907 358.379 378.44 358.108C377.983 357.828 377.623 357.445 377.362 356.96C377.11 356.465 376.984 355.905 376.984 355.28C376.984 354.636 377.129 354.057 377.418 353.544C377.717 353.031 378.123 352.629 378.636 352.34C379.159 352.051 379.747 351.906 380.4 351.906ZM380.526 356.792C380.974 356.792 381.333 356.647 381.604 356.358C381.884 356.059 382.024 355.672 382.024 355.196C382.024 354.729 381.884 354.351 381.604 354.062C381.324 353.763 380.965 353.614 380.526 353.614C380.078 353.614 379.719 353.759 379.448 354.048C379.187 354.337 379.056 354.72 379.056 355.196C379.056 355.691 379.187 356.083 379.448 356.372C379.709 356.652 380.069 356.792 380.526 356.792Z" fill="#01A5E4"/>
<path d="M358.494 287.69V290H347.978V287.91L353.302 282.168C353.933 281.479 354.395 280.848 354.688 280.276C354.982 279.704 355.128 279.139 355.128 278.582C355.128 277.863 354.916 277.321 354.49 276.954C354.08 276.587 353.486 276.404 352.708 276.404C351.33 276.404 349.914 276.947 348.462 278.032L347.516 275.964C348.132 275.407 348.924 274.967 349.892 274.644C350.86 274.307 351.836 274.138 352.818 274.138C354.388 274.138 355.627 274.527 356.536 275.304C357.46 276.067 357.922 277.101 357.922 278.406C357.922 279.301 357.724 280.144 357.328 280.936C356.947 281.728 356.302 282.615 355.392 283.598L351.542 287.69H358.494ZM364.689 290.198C362.827 290.198 361.404 289.516 360.421 288.152C359.453 286.773 358.969 284.771 358.969 282.146C358.969 279.565 359.453 277.592 360.421 276.228C361.404 274.864 362.827 274.182 364.689 274.182C366.552 274.182 367.967 274.864 368.935 276.228C369.918 277.577 370.409 279.55 370.409 282.146C370.409 284.757 369.918 286.751 368.935 288.13C367.967 289.509 366.552 290.198 364.689 290.198ZM364.689 287.976C365.701 287.976 366.435 287.514 366.889 286.59C367.359 285.651 367.593 284.17 367.593 282.146C367.593 280.151 367.359 278.699 366.889 277.79C366.435 276.866 365.701 276.404 364.689 276.404C363.677 276.404 362.937 276.866 362.467 277.79C362.013 278.699 361.785 280.151 361.785 282.146C361.785 284.17 362.013 285.651 362.467 286.59C362.937 287.514 363.677 287.976 364.689 287.976ZM381.863 287.69V290H372.205V287.69H375.637V277.592L372.447 279.506V276.976L376.803 274.336H378.453V287.69H381.863ZM390.412 281.948C391.336 282.197 392.04 282.652 392.524 283.312C393.023 283.972 393.272 284.786 393.272 285.754C393.272 287.118 392.766 288.196 391.754 288.988C390.757 289.78 389.407 290.176 387.706 290.176C386.65 290.176 385.631 290.015 384.648 289.692C383.68 289.369 382.881 288.922 382.25 288.35L383.218 286.282C384.611 287.367 386.071 287.91 387.596 287.91C388.593 287.91 389.334 287.712 389.818 287.316C390.317 286.92 390.566 286.319 390.566 285.512C390.566 284.72 390.317 284.141 389.818 283.774C389.319 283.393 388.549 283.202 387.508 283.202H385.44V280.936H387.134C389.158 280.936 390.17 280.166 390.17 278.626C390.17 277.907 389.95 277.357 389.51 276.976C389.07 276.595 388.454 276.404 387.662 276.404C386.254 276.404 384.846 276.947 383.438 278.032L382.492 275.964C383.123 275.407 383.915 274.967 384.868 274.644C385.836 274.307 386.826 274.138 387.838 274.138C389.378 274.138 390.603 274.519 391.512 275.282C392.436 276.03 392.898 277.035 392.898 278.296C392.883 279.161 392.656 279.917 392.216 280.562C391.791 281.193 391.189 281.655 390.412 281.948Z" fill="#172328"/>
<circle cx="295" cy="347" r="9" fill="#01A5E4"/>
<circle cx="295.002" cy="347" r="3.24" fill="white"/>
<path d="M288.137 377.906C289.435 377.906 290.433 378.335 291.133 379.194C291.833 380.053 292.183 381.275 292.183 382.862C292.183 383.954 292.015 384.897 291.679 385.69C291.343 386.474 290.863 387.076 290.237 387.496C289.612 387.916 288.865 388.126 287.997 388.126C287.381 388.126 286.784 388.028 286.205 387.832C285.627 387.636 285.132 387.361 284.721 387.006L285.435 385.438C286.285 386.082 287.106 386.404 287.899 386.404C288.553 386.404 289.057 386.143 289.411 385.62C289.775 385.088 289.976 384.313 290.013 383.296C289.799 383.669 289.491 383.968 289.089 384.192C288.688 384.407 288.24 384.514 287.745 384.514C287.167 384.514 286.644 384.379 286.177 384.108C285.72 383.828 285.361 383.445 285.099 382.96C284.847 382.465 284.721 381.905 284.721 381.28C284.721 380.636 284.866 380.057 285.155 379.544C285.454 379.031 285.86 378.629 286.373 378.34C286.896 378.051 287.484 377.906 288.137 377.906ZM288.263 382.792C288.711 382.792 289.071 382.647 289.341 382.358C289.621 382.059 289.761 381.672 289.761 381.196C289.761 380.729 289.621 380.351 289.341 380.062C289.061 379.763 288.702 379.614 288.263 379.614C287.815 379.614 287.456 379.759 287.185 380.048C286.924 380.337 286.793 380.72 286.793 381.196C286.793 381.691 286.924 382.083 287.185 382.372C287.447 382.652 287.806 382.792 288.263 382.792ZM295.636 385.746V388H293.354V385.746H295.636ZM302.184 382.876C302.763 383.044 303.206 383.338 303.514 383.758C303.831 384.169 303.99 384.677 303.99 385.284C303.99 386.161 303.659 386.852 302.996 387.356C302.333 387.86 301.433 388.112 300.294 388.112C299.603 388.112 298.941 388.014 298.306 387.818C297.671 387.613 297.158 387.337 296.766 386.992L297.466 385.424C298.353 386.068 299.263 386.39 300.196 386.39C300.803 386.39 301.241 386.287 301.512 386.082C301.792 385.867 301.932 385.531 301.932 385.074C301.932 384.635 301.792 384.318 301.512 384.122C301.241 383.917 300.803 383.814 300.196 383.814H298.768V382.106H299.958C300.537 382.106 300.966 382.008 301.246 381.812C301.526 381.607 301.666 381.299 301.666 380.888C301.666 380.477 301.54 380.165 301.288 379.95C301.045 379.735 300.695 379.628 300.238 379.628C299.809 379.628 299.37 379.712 298.922 379.88C298.474 380.039 298.035 380.277 297.606 380.594L296.906 379.026C297.307 378.681 297.821 378.41 298.446 378.214C299.071 378.009 299.715 377.906 300.378 377.906C301.05 377.906 301.638 378.018 302.142 378.242C302.655 378.466 303.047 378.779 303.318 379.18C303.598 379.581 303.738 380.053 303.738 380.594C303.738 381.135 303.603 381.607 303.332 382.008C303.061 382.4 302.679 382.689 302.184 382.876Z" fill="#01A5E4"/>
<path d="M282.484 313.69V316H271.968V313.91L277.292 308.168C277.922 307.479 278.384 306.848 278.678 306.276C278.971 305.704 279.118 305.139 279.118 304.582C279.118 303.863 278.905 303.321 278.48 302.954C278.069 302.587 277.475 302.404 276.698 302.404C275.319 302.404 273.904 302.947 272.452 304.032L271.506 301.964C272.122 301.407 272.914 300.967 273.882 300.644C274.85 300.307 275.825 300.138 276.808 300.138C278.377 300.138 279.616 300.527 280.526 301.304C281.45 302.067 281.912 303.101 281.912 304.406C281.912 305.301 281.714 306.144 281.318 306.936C280.936 307.728 280.291 308.615 279.382 309.598L275.532 313.69H282.484ZM288.679 316.198C286.816 316.198 285.393 315.516 284.411 314.152C283.443 312.773 282.959 310.771 282.959 308.146C282.959 305.565 283.443 303.592 284.411 302.228C285.393 300.864 286.816 300.182 288.679 300.182C290.541 300.182 291.957 300.864 292.925 302.228C293.907 303.577 294.399 305.55 294.399 308.146C294.399 310.757 293.907 312.751 292.925 314.13C291.957 315.509 290.541 316.198 288.679 316.198ZM288.679 313.976C289.691 313.976 290.424 313.514 290.879 312.59C291.348 311.651 291.583 310.17 291.583 308.146C291.583 306.151 291.348 304.699 290.879 303.79C290.424 302.866 289.691 302.404 288.679 302.404C287.667 302.404 286.926 302.866 286.457 303.79C286.002 304.699 285.775 306.151 285.775 308.146C285.775 310.17 286.002 311.651 286.457 312.59C286.926 313.514 287.667 313.976 288.679 313.976ZM305.852 313.69V316H296.194V313.69H299.626V303.592L296.436 305.506V302.976L300.792 300.336H302.442V313.69H305.852ZM317.459 313.69V316H306.943V313.91L312.267 308.168C312.898 307.479 313.36 306.848 313.653 306.276C313.947 305.704 314.093 305.139 314.093 304.582C314.093 303.863 313.881 303.321 313.455 302.954C313.045 302.587 312.451 302.404 311.673 302.404C310.295 302.404 308.879 302.947 307.427 304.032L306.481 301.964C307.097 301.407 307.889 300.967 308.857 300.644C309.825 300.307 310.801 300.138 311.783 300.138C313.353 300.138 314.592 300.527 315.501 301.304C316.425 302.067 316.887 303.101 316.887 304.406C316.887 305.301 316.689 306.144 316.293 306.936C315.912 307.728 315.267 308.615 314.357 309.598L310.507 313.69H317.459Z" fill="#172328"/>
<circle cx="219" cy="375" r="9" fill="#01A5E4"/>
<circle cx="219.002" cy="375" r="3.24" fill="white"/>
<path d="M213.075 409.546C213.691 409.546 214.237 409.681 214.713 409.952C215.199 410.213 215.572 410.587 215.833 411.072C216.104 411.557 216.239 412.117 216.239 412.752C216.239 413.424 216.081 414.017 215.763 414.53C215.455 415.034 215.007 415.426 214.419 415.706C213.841 415.977 213.164 416.112 212.389 416.112C211.755 416.112 211.125 416.009 210.499 415.804C209.883 415.599 209.384 415.328 209.001 414.992L209.701 413.424C210.588 414.068 211.493 414.39 212.417 414.39C213.584 414.39 214.167 413.872 214.167 412.836C214.167 412.341 214.013 411.954 213.705 411.674C213.407 411.385 212.996 411.24 212.473 411.24C212.147 411.24 211.815 411.301 211.479 411.422C211.153 411.543 210.859 411.711 210.597 411.926H209.351V406.032H215.749V407.712H211.479V409.938C211.918 409.677 212.45 409.546 213.075 409.546ZM219.636 413.746V416H217.354V413.746H219.636ZM228.116 406.032V407.656L223.678 416H221.34L225.764 407.782H220.962V406.032H228.116Z" fill="#01A5E4"/>
<path d="M206.494 341.69V344H195.978V341.91L201.302 336.168C201.933 335.479 202.395 334.848 202.688 334.276C202.982 333.704 203.128 333.139 203.128 332.582C203.128 331.863 202.916 331.321 202.49 330.954C202.08 330.587 201.486 330.404 200.708 330.404C199.33 330.404 197.914 330.947 196.462 332.032L195.516 329.964C196.132 329.407 196.924 328.967 197.892 328.644C198.86 328.307 199.836 328.138 200.818 328.138C202.388 328.138 203.627 328.527 204.536 329.304C205.46 330.067 205.922 331.101 205.922 332.406C205.922 333.301 205.724 334.144 205.328 334.936C204.947 335.728 204.302 336.615 203.392 337.598L199.542 341.69H206.494ZM212.689 344.198C210.827 344.198 209.404 343.516 208.421 342.152C207.453 340.773 206.969 338.771 206.969 336.146C206.969 333.565 207.453 331.592 208.421 330.228C209.404 328.864 210.827 328.182 212.689 328.182C214.552 328.182 215.967 328.864 216.935 330.228C217.918 331.577 218.409 333.55 218.409 336.146C218.409 338.757 217.918 340.751 216.935 342.13C215.967 343.509 214.552 344.198 212.689 344.198ZM212.689 341.976C213.701 341.976 214.435 341.514 214.889 340.59C215.359 339.651 215.593 338.17 215.593 336.146C215.593 334.151 215.359 332.699 214.889 331.79C214.435 330.866 213.701 330.404 212.689 330.404C211.677 330.404 210.937 330.866 210.467 331.79C210.013 332.699 209.785 334.151 209.785 336.146C209.785 338.17 210.013 339.651 210.467 340.59C210.937 341.514 211.677 341.976 212.689 341.976ZM229.863 341.69V344H220.205V341.69H223.637V331.592L220.447 333.506V330.976L224.803 328.336H226.453V341.69H229.863ZM241.514 341.69V344H231.856V341.69H235.288V331.592L232.098 333.506V330.976L236.454 328.336H238.104V341.69H241.514Z" fill="#172328"/>
<circle cx="143" cy="397" r="9" fill="#01A5E4"/>
<circle cx="143.002" cy="397" r="3.24" fill="white"/>
<path d="M140.421 436.18H139.063V438H136.921V436.18H132.735V434.556L137.313 428.032H139.063V434.486H140.421V436.18ZM136.921 434.486V431.35L134.737 434.486H136.921ZM143.636 435.746V438H141.354V435.746H143.636ZM149.26 431.518C149.839 431.518 150.357 431.658 150.814 431.938C151.281 432.209 151.64 432.591 151.892 433.086C152.153 433.571 152.284 434.127 152.284 434.752C152.284 435.396 152.135 435.975 151.836 436.488C151.547 437.001 151.141 437.403 150.618 437.692C150.105 437.981 149.521 438.126 148.868 438.126C147.571 438.126 146.572 437.697 145.872 436.838C145.172 435.979 144.822 434.757 144.822 433.17C144.822 432.078 144.99 431.14 145.326 430.356C145.662 429.563 146.143 428.956 146.768 428.536C147.393 428.116 148.14 427.906 149.008 427.906C149.624 427.906 150.221 428.004 150.8 428.2C151.379 428.396 151.873 428.671 152.284 429.026L151.57 430.594C150.73 429.95 149.909 429.628 149.106 429.628C148.453 429.628 147.944 429.894 147.58 430.426C147.216 430.949 147.015 431.719 146.978 432.736C147.193 432.363 147.501 432.069 147.902 431.854C148.313 431.63 148.765 431.518 149.26 431.518ZM148.742 436.418C149.19 436.418 149.545 436.273 149.806 435.984C150.077 435.695 150.212 435.312 150.212 434.836C150.212 434.341 150.081 433.954 149.82 433.674C149.559 433.385 149.199 433.24 148.742 433.24C148.294 433.24 147.93 433.389 147.65 433.688C147.379 433.977 147.244 434.36 147.244 434.836C147.244 435.303 147.384 435.685 147.664 435.984C147.944 436.273 148.303 436.418 148.742 436.418Z" fill="#01A5E4"/>
<path d="M130.494 363.69V366H119.978V363.91L125.302 358.168C125.933 357.479 126.395 356.848 126.688 356.276C126.982 355.704 127.128 355.139 127.128 354.582C127.128 353.863 126.916 353.321 126.49 352.954C126.08 352.587 125.486 352.404 124.708 352.404C123.33 352.404 121.914 352.947 120.462 354.032L119.516 351.964C120.132 351.407 120.924 350.967 121.892 350.644C122.86 350.307 123.836 350.138 124.818 350.138C126.388 350.138 127.627 350.527 128.536 351.304C129.46 352.067 129.922 353.101 129.922 354.406C129.922 355.301 129.724 356.144 129.328 356.936C128.947 357.728 128.302 358.615 127.392 359.598L123.542 363.69H130.494ZM136.689 366.198C134.827 366.198 133.404 365.516 132.421 364.152C131.453 362.773 130.969 360.771 130.969 358.146C130.969 355.565 131.453 353.592 132.421 352.228C133.404 350.864 134.827 350.182 136.689 350.182C138.552 350.182 139.967 350.864 140.935 352.228C141.918 353.577 142.409 355.55 142.409 358.146C142.409 360.757 141.918 362.751 140.935 364.13C139.967 365.509 138.552 366.198 136.689 366.198ZM136.689 363.976C137.701 363.976 138.435 363.514 138.889 362.59C139.359 361.651 139.593 360.17 139.593 358.146C139.593 356.151 139.359 354.699 138.889 353.79C138.435 352.866 137.701 352.404 136.689 352.404C135.677 352.404 134.937 352.866 134.467 353.79C134.013 354.699 133.785 356.151 133.785 358.146C133.785 360.17 134.013 361.651 134.467 362.59C134.937 363.514 135.677 363.976 136.689 363.976ZM153.863 363.69V366H144.205V363.69H147.637V353.592L144.447 355.506V352.976L148.803 350.336H150.453V363.69H153.863ZM159.992 366.198C158.129 366.198 156.707 365.516 155.724 364.152C154.756 362.773 154.272 360.771 154.272 358.146C154.272 355.565 154.756 353.592 155.724 352.228C156.707 350.864 158.129 350.182 159.992 350.182C161.855 350.182 163.27 350.864 164.238 352.228C165.221 353.577 165.712 355.55 165.712 358.146C165.712 360.757 165.221 362.751 164.238 364.13C163.27 365.509 161.855 366.198 159.992 366.198ZM159.992 363.976C161.004 363.976 161.737 363.514 162.192 362.59C162.661 361.651 162.896 360.17 162.896 358.146C162.896 356.151 162.661 354.699 162.192 353.79C161.737 352.866 161.004 352.404 159.992 352.404C158.98 352.404 158.239 352.866 157.77 353.79C157.315 354.699 157.088 356.151 157.088 358.146C157.088 360.17 157.315 361.651 157.77 362.59C158.239 363.514 158.98 363.976 159.992 363.976Z" fill="#172328"/>
</svg>
