<?xml version="1.0" encoding="utf-8"?>
<!-- Generator: Adobe Illustrator 23.0.6, SVG Export Plug-In . SVG Version: 6.00 Build 0)  -->
<svg version="1.1" id="Слой_1" xmlns="http://www.w3.org/2000/svg" xmlns:xlink="http://www.w3.org/1999/xlink" x="0px" y="0px"
	 viewBox="0 0 110 110" style="enable-background:new 0 0 110 110;" xml:space="preserve">
<style type="text/css">
	.st0{clip-path:url(#SVGID_2_);}
	.st1{fill-rule:evenodd;clip-rule:evenodd;fill:#E8EEFC;}
	.st2{fill-rule:evenodd;clip-rule:evenodd;fill:#B8C9FF;}
	.st3{fill-rule:evenodd;clip-rule:evenodd;fill:#343C6B;}
	.st4{fill-rule:evenodd;clip-rule:evenodd;fill:#5278FF;}
	.st5{fill-rule:evenodd;clip-rule:evenodd;fill:#445393;}
	.st6{fill-rule:evenodd;clip-rule:evenodd;fill:#3754E0;}
	.st7{fill-rule:evenodd;clip-rule:evenodd;fill:#819BEA;}
	.st8{fill-rule:evenodd;clip-rule:evenodd;fill:#6990FF;}
	.st9{fill-rule:evenodd;clip-rule:evenodd;fill:#172328;}
	.st10{fill-rule:evenodd;clip-rule:evenodd;fill:#C6D4FF;}
	.st11{fill-rule:evenodd;clip-rule:evenodd;fill:#C8D5FF;}
	.st12{fill:#172328;}
	.st13{fill:#F5DA9F;}
	.st14{fill:#F5D186;}
	.st15{fill:#F5C96D;}
	.st16{fill:#DDAF4E;}
	.st17{fill:#324750;}
</style>
<g>
	<defs>
		<rect id="SVGID_1_" x="13" y="10" width="83" height="89"/>
	</defs>
	<clipPath id="SVGID_2_">
		<use xlink:href="#SVGID_1_"  style="overflow:visible;"/>
	</clipPath>
	<g class="st0">
		<path class="st1" d="M69.9,19.4c-12.3,0-22.3,5.4-22.3,12.1c0,6.7,10,12.1,22.3,12.1c12.3,0,22.3-5.4,22.3-12.1
			C92.2,24.8,82.2,19.4,69.9,19.4z M69.9,44.2C57.3,44.2,47,38.5,47,31.5c0-7,10.3-12.7,22.9-12.7c12.6,0,22.9,5.7,22.9,12.7
			C92.8,38.5,82.5,44.2,69.9,44.2z"/>
		<path class="st2" d="M47.1,13.9c1-3.1,4.7-4.4,7.6-2.8l27.4,15.7c2,1.1,3.2,3.3,3.2,5.6v61.3c0,3-2.4,5.5-5.4,5.4
			c-0.5,0-1-0.1-1.4-0.3L52.9,80.1c-1.6-0.9-2.5-2.5-2.5-4.3l-3.4-60.9C46.9,14.5,47,14.2,47.1,13.9z"/>
		<path class="st1" d="M50.7,12.7l28.7,16.4c1.6,0.9,2.5,2.5,2.5,4.3v62.9c0,1.9-2.1,3.1-3.8,2.2L49.5,82.1
			c-1.6-0.9-2.5-2.5-2.5-4.3V14.9C46.9,13,49,11.8,50.7,12.7z"/>
		<path class="st3" d="M78.8,98.5c-0.3,0-0.6-0.1-0.9-0.3L49.2,81.8c-1.4-0.8-2.2-2.2-2.2-3.8V15.2c0-1.2,1-1.9,1.9-1.9
			c0.3,0,0.6,0.1,0.9,0.3L78.5,30c1.4,0.8,2.2,2.2,2.2,3.8v62.9C80.7,97.8,79.7,98.5,78.8,98.5z"/>
		<path class="st4" d="M50.8,23.1v53l26.1,14.8V38.1L50.8,23.1z"/>
		<path class="st5" d="M67.1,28.2c-0.1,0-0.2,0-0.3-0.1l-6.7-3.8c-0.3-0.2-0.4-0.5-0.2-0.8c0.2-0.3,0.5-0.4,0.8-0.2l6.7,3.8
			c0.3,0.2,0.4,0.5,0.2,0.8C67.5,28.1,67.3,28.2,67.1,28.2z"/>
		<path class="st4" d="M73.4,36.3c-1.9,1.1-3,3.1-3,5.2V44H55.1l-1,33.9l22.9,12.9l0-52.5C76.9,36.6,75,35.4,73.4,36.3z"/>
		<path class="st6" d="M63.8,59.7v-6c0-2-2.1-3.2-3.8-2.2c-2.4-0.3-6.6,8.9-7,10.2l12.5,7.3C65.5,69.1,63.8,60.8,63.8,59.7z"/>
		<path class="st1" d="M36.4,36.8c-2.5-1.4-5.5,0.4-5.5,3.2c0,7.4,0.1,18.9-0.1,19.6c-0.2,1.3-0.8,2.8-2,3.6
			c-0.2,0.2-8.8,5.1-14.7,8.5c-1.3,0.7-1.3,2.5,0,3.3c4.7,2.8,14.2,8.3,19.5,11.3c2.3,1.3,5.2,1.3,7.5,0c5-2.9,8.7-5,10.3-6
			c1.1-0.6,2.2-1.2,3.3-1.9c1.5-0.8,2.2-2.5,2.5-4.1c0.1-0.8,0-18.3,0-18.3c0.1-1.5,0.8-3,1.9-4c0.9-0.8,2.1-1.2,3.2-0.7L44.1,41.1
			C42.8,40.4,39.4,38.5,36.4,36.8z"/>
		<path class="st2" d="M44.1,24.6c0,6.6,0,15.9,0,16.5l18.2,10.4c0.2,0.1,0.4,0.2,0.6,0.4c0.5,0.4,0.8,1,0.8,1.6
			c0.1,0.1,0,12.1,0,12.6c0,1.6,0.9,3,2.6,3.3c2,0.3,3.7-1.4,3.9-3.3c0.1-0.5,0-1,0-1.5c0-4.2,0-18.1,0-22.3c0-0.9,0-1.8,0.3-2.7
			c0.6-1.8,2.8-4.5,5-3.4l-26-14.9C47.2,20,44.1,21.8,44.1,24.6z"/>
		<path class="st1" d="M47.2,35.4c-0.1,0-0.2,0.1-0.2,0.1c-0.1,0.1,0,0.3,0.1,0.4l5.6,3.1c0.1,0.1,0.3,0,0.4-0.1
			c0.1-0.1,0-0.3-0.1-0.4l-5.6-3.1L47.2,35.4z"/>
		<path class="st1" d="M54.9,39.7c-0.1,0-0.2,0.1-0.2,0.1c-0.1,0.1,0,0.3,0.1,0.4L67,47c0.1,0.1,0.3,0,0.4-0.1
			c0.1-0.1,0-0.3-0.1-0.4l-12.2-6.8L54.9,39.7z"/>
		<path class="st1" d="M47.1,31.4c-0.1,0-0.2,0.1-0.2,0.1c-0.1,0.1,0,0.3,0.1,0.4L67.1,43c0.1,0.1,0.3,0,0.4-0.1
			c0.1-0.1,0-0.3-0.1-0.4L47.2,31.4L47.1,31.4z"/>
		<path class="st2" d="M49.6,76.5c0.1,0,0.2-0.1,0.2-0.1c0.1-0.1,0-0.3-0.1-0.4l-5.6-3.1c-0.1-0.1-0.3,0-0.4,0.1
			c-0.1,0.1,0,0.3,0.1,0.4l5.6,3.1L49.6,76.5z"/>
		<path class="st2" d="M34,57.9c-0.1,0-0.2,0.1-0.2,0.1c-0.1,0.1,0,0.3,0.1,0.4l5.6,3.1c0.1,0.1,0.3,0,0.4-0.1
			c0.1-0.1,0-0.3-0.1-0.4L34.1,58L34,57.9z"/>
		<path class="st2" d="M34,50c-0.1,0-0.2,0.1-0.2,0.1c-0.1,0.1,0,0.3,0.1,0.4l5.6,3.1c0.1,0.1,0.3,0,0.4-0.1c0.1-0.1,0-0.3-0.1-0.4
			L34.1,50L34,50z"/>
		<path class="st2" d="M41.6,54.3c-0.1,0-0.2,0.1-0.2,0.1c-0.1,0.1,0,0.3,0.1,0.4l12.2,6.8c0.1,0.1,0.3,0,0.4-0.1
			c0.1-0.1,0-0.3-0.1-0.4l-12.2-6.8L41.6,54.3z"/>
		<path class="st2" d="M33.8,54c-0.1,0-0.2,0.1-0.2,0.1c-0.1,0.1,0,0.3,0.1,0.4l20.2,11.1c0.1,0.1,0.3,0,0.4-0.1
			c0.1-0.1,0-0.3-0.1-0.4L34,54L33.8,54z"/>
		<path class="st2" d="M32.6,62.3c-0.1,0-0.2,0.1-0.2,0.1c-0.1,0.1,0,0.3,0.1,0.4l20.2,11.1c0.1,0.1,0.3,0,0.4-0.1
			c0.1-0.1,0-0.3-0.1-0.4L32.8,62.3L32.6,62.3z"/>
		<path class="st2" d="M48.2,50c-0.1,0-0.2,0.1-0.2,0.1c-0.1,0.1,0,0.3,0.1,0.4l5.6,3.1c0.1,0.1,0.3,0,0.4-0.1
			c0.1-0.1,0-0.3-0.1-0.4L48.3,50L48.2,50z"/>
		<path class="st2" d="M39.6,45.3c-0.1,0-0.2,0.1-0.2,0.1c-0.1,0.1,0,0.3,0.1,0.4l5.6,3.1c0.1,0.1,0.3,0,0.4-0.1
			c0.1-0.1,0-0.3-0.1-0.4l-5.6-3.1L39.6,45.3z"/>
		<path class="st2" d="M33.7,46c-0.1,0-0.2,0.1-0.2,0.1c-0.1,0.1,0,0.3,0.1,0.4l20.2,11.1c0.1,0.1,0.3,0,0.4-0.1
			c0.1-0.1,0-0.3-0.1-0.4L33.9,46.1L33.7,46z"/>
		<path class="st7" d="M58.5,92.6c-0.8,0-1.4,0.7-1.3,1.5c0,0.8,0.7,1.4,1.5,1.3c0.8,0,1.4-0.7,1.3-1.5
			C59.9,93.1,59.3,92.5,58.5,92.6z"/>
		<path class="st8" d="M90.3,52.1c0.1,0,0.2-0.1,0.2-0.3c-0.1-0.6,0.1-1.2,0.6-1.6c0.5-0.4,1.1-0.5,1.7-0.3c0.7,0.3,1.5,0.1,2.1-0.4
			c0.6-0.5,0.9-1.3,0.8-2c0-0.1,0-0.1-0.1-0.2c-0.1,0-0.1-0.1-0.2,0c-0.1,0-0.1,0-0.2,0.1c0,0.1-0.1,0.1,0,0.2
			c0.1,0.6-0.1,1.2-0.6,1.6c-0.5,0.4-1.1,0.5-1.7,0.3c-0.7-0.3-1.5-0.1-2.1,0.3c-0.2,0.2-0.4,0.4-0.5,0.6c-0.1,0.1-0.1,0.2-0.2,0.3
			c-0.1,0.3-0.2,0.7-0.1,1.1C90,52,90.2,52.1,90.3,52.1z"/>
		<path class="st8" d="M34.8,96.3c0.1,0,0.2-0.1,0.2-0.3c-0.1-0.6,0.1-1.2,0.6-1.6c0.5-0.4,1.1-0.5,1.7-0.3c0.7,0.3,1.5,0.1,2.1-0.4
			c0.6-0.5,0.9-1.3,0.8-2c0-0.1,0-0.1-0.1-0.2c-0.1,0-0.1-0.1-0.2,0c-0.1,0-0.1,0-0.2,0.1c0,0.1-0.1,0.1,0,0.2
			c0.1,0.6-0.1,1.2-0.6,1.6c-0.5,0.4-1.1,0.5-1.7,0.3c-0.7-0.3-1.5-0.1-2.1,0.3c-0.2,0.2-0.4,0.4-0.5,0.6c-0.1,0.1-0.1,0.2-0.2,0.3
			c-0.1,0.3-0.2,0.7-0.1,1.1C34.5,96.2,34.7,96.3,34.8,96.3z"/>
		<path class="st9" d="M41,17c-0.8,0-1.4,0.7-1.3,1.5c0,0.8,0.7,1.4,1.5,1.3c0.8,0,1.4-0.7,1.3-1.5C42.5,17.5,41.8,16.9,41,17z"/>
		<path class="st8" d="M40.4,28.5c-0.1-0.1-0.2-0.2-0.3-0.1c-0.5,0.3-1.2,0.3-1.7,0c-0.5-0.3-0.8-0.9-0.8-1.5c0-0.8-0.4-1.5-1.1-1.9
			c-0.7-0.4-1.5-0.4-2.2,0c-0.1,0-0.1,0.1-0.1,0.1c0,0.1,0,0.1,0,0.2c0,0.1,0.1,0.1,0.1,0.1c0.1,0,0.1,0,0.2,0
			c0.5-0.3,1.2-0.3,1.7,0c0.5,0.3,0.8,0.9,0.8,1.5c0,0.8,0.4,1.5,1.1,1.9c0.2,0.1,0.5,0.2,0.7,0.3c0.1,0,0.3,0,0.4,0
			c0.4,0,0.7-0.1,1.1-0.3C40.5,28.8,40.5,28.6,40.4,28.5z"/>
		<path class="st10" d="M47.1,86.8h3.2l-1.6-2L47.1,86.8z M50.9,87L50.9,87c-0.1,0.2-0.1,0.2-0.2,0.2h-4c-0.1,0-0.1,0-0.2-0.1
			c0-0.1,0-0.1,0-0.2l2-2.5c0,0,0.1-0.1,0.2-0.1c0.1,0,0.1,0,0.2,0.1l2,2.5L50.9,87z"/>
		<path class="st10" d="M88,42.9l0,3.2l2-1.6L88,42.9z M87.7,46.7L87.7,46.7c-0.2-0.1-0.2-0.1-0.2-0.2l0-3.9c0-0.1,0-0.1,0.1-0.2
			c0.1,0,0.1,0,0.2,0l2.5,2c0,0,0.1,0.1,0.1,0.2c0,0.1,0,0.1-0.1,0.2l-2.5,2L87.7,46.7z"/>
		<path class="st11" d="M37,75.7c0,2.2-3.1,4-6.9,4c-3.8,0-6.9-1.8-6.9-4c0-2.2,3.1-4,6.9-4C33.9,71.8,37,73.5,37,75.7z"/>
	</g>
</g>
<path class="st12" d="M33.2,73.7c-0.5-0.1-0.9-0.3-0.8-0.7c0,0,0,0-0.1,0c-0.3,0.1-0.5,0.2-0.7,0.1c0,0,0,0,0,0
	c-0.2-0.1-0.3-0.3-0.3-0.8l0-0.1c-0.2,0.1-0.4-0.3-0.6-0.6c-0.3,1.9-1,4.2-0.6,4.4c0.3,0.2,2.1-1.1,3.7-2l0.4-0.3
	C33.9,73.8,33.5,73.7,33.2,73.7z"/>
<path class="st13" d="M34.3,68.7l-2.7,4.4c0,0,0,0,0,0c0.2,0.1,0.4,0,0.7-0.1l2.8-3.9L34.3,68.7z"/>
<path class="st14" d="M32.3,73C32.3,73,32.4,73,32.3,73c0,0.3,0.4,0.6,0.9,0.7l3.6-3.8l-1.7-0.8L32.3,73z"/>
<path class="st15" d="M36.8,69.9l-3.6,3.8c0.3,0.1,0.7,0.1,1,0.1l4-3.3L36.8,69.9z"/>
<path class="st15" d="M34,68.5l-0.8-1.7l-1.9,5.5c0,0.5,0.1,0.7,0.3,0.8l2.7-4.4L34,68.5z"/>
<path class="st16" d="M38.1,70.5l-4,3.2c0.1,0,0.1,0,0.2,0c3.1-1.8,7.1-4.4,7.5-4.6L39,70.9L38.1,70.5z"/>
<path class="st16" d="M31.3,72.2L31.3,72.2l1.9-5.4l-1.1-2.3c-0.2,1.1-0.9,4.4-1.3,7.1C30.9,72,31.1,72.3,31.3,72.2z"/>
<path d="M55.2,47.3L39,70.9l2.9-1.8c0,0,0,0,0,0l16.3-23.6L55.2,47.3z"/>
<path class="st15" d="M51.9,45.7l3.3,1.6l3-1.8l-2-4.2l-0.9-0.4L51.3,39l-3,1.8l2,4.2L51.9,45.7z M51.7,41.9c0.2-0.6,1.3-0.6,2.4,0
	c0.1,0.1,0.3,0.1,0.4,0.2c0.9,0.6,1.5,1.5,1.3,2.1c-0.2,0.6-1.3,0.6-2.4,0c-0.1-0.1-0.2-0.1-0.3-0.2C52.1,43.4,51.5,42.5,51.7,41.9z
	"/>
<path class="st12" d="M53.1,44c0.1,0.1,0.2,0.1,0.3,0.2c1.1,0.6,2.2,0.6,2.4,0c0.2-0.6-0.4-1.4-1.3-2.1c-0.1-0.1-0.2-0.2-0.4-0.2
	c-1.1-0.6-2.2-0.6-2.4,0C51.5,42.5,52.1,43.4,53.1,44z"/>
<path class="st12" d="M50.3,44.9L34,68.6l0.3,0.2l0.8,0.4l1.7,0.8l1.3,0.6l0.8,0.4l16.3-23.6l-3.3-1.6L50.3,44.9z"/>
<path class="st17" d="M34,68.5l16.3-23.6l-2-4.2L32.2,64.2L32,64.4l0.1,0.1v0l1.1,2.3L34,68.5z"/>
</svg>
