<svg viewBox="0 0 110 110" fill="none" xmlns="http://www.w3.org/2000/svg">
<g clip-path="url(#clip0)">
<path fill-rule="evenodd" clip-rule="evenodd" d="M56.9122 19.4027C44.6226 19.4027 34.6234 24.8302 34.6234 31.5011C34.6234 38.1725 44.6226 43.6 56.9122 43.6C69.2029 43.6 79.2016 38.1725 79.2016 31.5011C79.2016 24.8302 69.2029 19.4027 56.9122 19.4027ZM56.9122 44.222C44.2766 44.222 33.996 38.5157 33.996 31.5011C33.996 24.487 44.2766 18.7808 56.9122 18.7808C69.5489 18.7808 79.829 24.487 79.829 31.5011C79.829 38.5157 69.5489 44.222 56.9122 44.222Z" fill="#E8EEFC"/>
<path fill-rule="evenodd" clip-rule="evenodd" d="M34.1166 13.854C35.1049 10.7467 38.862 9.46334 41.7067 11.0909L69.1045 26.7667C71.1068 27.9135 72.3404 30.0331 72.3404 32.3271V93.6267C72.3404 96.5918 69.9195 99.1042 66.9325 99.005C66.4294 98.9881 65.9422 98.8976 65.4958 98.7037L39.8859 80.1283C38.3331 79.2388 37.3768 77.5954 37.3768 75.8174L33.9439 14.8765C33.9439 14.5425 34.0063 14.1988 34.1166 13.854Z" fill="#B8C9FF"/>
<path fill-rule="evenodd" clip-rule="evenodd" d="M37.7067 12.7209L66.3985 29.1568C67.9512 30.0457 68.9075 31.6892 68.9075 33.4676V96.382C68.9075 98.298 66.8165 99.4954 65.1447 98.5379L36.4525 82.1021C34.9002 81.2131 33.9439 79.5696 33.9439 77.7907V14.8764C33.9439 12.9608 36.0344 11.7629 37.7067 12.7209Z" fill="#E8EEFC"/>
<path fill-rule="evenodd" clip-rule="evenodd" d="M65.8205 98.5376C65.4927 98.5376 65.1772 98.4527 64.8833 98.2839L36.1911 81.8486C34.8373 81.0732 33.9965 79.6272 33.996 78.0763V15.1625C33.996 14.0071 34.9744 13.292 35.8813 13.292C36.2091 13.292 36.5246 13.3774 36.8185 13.5462L65.5102 29.981C66.8645 30.7565 67.7053 32.2014 67.7053 33.7528V96.6671C67.7053 97.8225 66.7268 98.5376 65.8205 98.5376Z" fill="#343C6B"/>
<path fill-rule="evenodd" clip-rule="evenodd" d="M37.7794 23.0535V76.0586L63.9224 90.8331V38.0755L37.7794 23.0535Z" fill="#5278FF"/>
<path fill-rule="evenodd" clip-rule="evenodd" d="M54.1145 28.248C54.017 28.248 53.9186 28.2235 53.8278 28.1713L47.1409 24.3412C46.8656 24.1837 46.7718 23.8353 46.9306 23.5622C47.0894 23.2896 47.4394 23.196 47.7157 23.353L54.4026 27.1841C54.6779 27.3411 54.7718 27.69 54.613 27.9626C54.5063 28.1457 54.3129 28.248 54.1145 28.248Z" fill="#445393"/>
<path fill-rule="evenodd" clip-rule="evenodd" d="M60.3776 36.3349C58.5021 37.4121 57.3473 39.3992 57.3473 41.5491V44.0344H42.0501L41.0489 77.9071L63.9224 90.8331L63.9234 38.3635C63.9234 36.5579 61.9525 35.4306 60.3776 36.3349Z" fill="#5278FF"/>
<path fill-rule="evenodd" clip-rule="evenodd" d="M50.7718 59.7458V53.7859C50.7718 51.8274 48.6354 50.6039 46.9264 51.5829C44.5751 51.2383 40.3272 60.4854 39.9416 61.8148L52.4849 69.1425C52.4849 69.1425 50.7718 60.8271 50.7718 59.7458Z" fill="#3754E0"/>
<path fill-rule="evenodd" clip-rule="evenodd" d="M23.4039 36.8272C20.9181 35.4543 17.8625 37.2446 17.8759 40.0675C17.9105 47.5108 17.9404 58.9744 17.8053 59.6802C17.5579 60.9718 17.0042 62.5241 15.8463 63.2852C15.6066 63.4423 7.02613 68.4022 1.1852 71.7484C-0.0824855 72.4753 -0.0886717 74.286 1.17334 75.023C5.88681 77.7754 15.4014 83.2765 20.6732 86.3219C22.9797 87.6544 25.8238 87.6595 28.1344 86.3332C33.1227 83.4693 36.82 81.297 38.4723 80.3523C39.556 79.7329 40.6396 79.1129 41.7237 78.4935C43.2012 77.649 43.9534 75.9749 44.1978 74.3576C44.3148 73.5811 44.1978 56.1039 44.1978 56.1039C44.2524 54.5863 44.9566 53.1295 46.1233 52.1454C47.045 51.3679 48.2514 50.9879 49.3092 51.4902L31.0693 41.0895C29.7851 40.358 26.4193 38.4926 23.4039 36.8272Z" fill="#E8EEFC"/>
<path fill-rule="evenodd" clip-rule="evenodd" d="M31.0931 24.6115C31.1008 31.1653 31.1054 40.4785 31.0693 41.0893L49.3092 51.49C49.519 51.5897 49.7232 51.7202 49.9176 51.893C50.3681 52.2935 50.7187 52.8894 50.7527 53.4991C50.8852 53.6306 50.7718 65.576 50.7718 66.1382C50.7718 67.733 51.6951 69.1647 53.3819 69.4194C55.3528 69.7166 57.0545 67.9918 57.3107 66.1504C57.3788 65.6625 57.3484 65.152 57.3484 64.6605C57.3484 60.4867 57.3484 46.5254 57.3484 42.3516C57.3484 41.4427 57.3587 40.5583 57.6484 39.677C58.2531 37.8377 60.4292 35.1692 62.6372 36.2725L36.6736 21.41C34.1914 19.9886 31.0894 21.7681 31.0931 24.6115Z" fill="#B8C9FF"/>
<path fill-rule="evenodd" clip-rule="evenodd" d="M34.2218 35.3586C34.1248 35.3586 34.0305 35.4093 33.9795 35.4998C33.9047 35.6328 33.9521 35.8006 34.0862 35.8753L39.6508 38.9693C39.7833 39.0424 39.9534 38.9964 40.0287 38.8629C40.1039 38.7299 40.056 38.5621 39.922 38.4875L34.3579 35.3934L34.2218 35.3586Z" fill="#E8EEFC"/>
<path fill-rule="evenodd" clip-rule="evenodd" d="M41.9449 39.6943C41.848 39.6943 41.7531 39.7445 41.7026 39.8355C41.6273 39.9685 41.6753 40.1363 41.8093 40.2104L53.965 46.9616C54.098 47.0353 54.2676 46.9888 54.3433 46.8558C54.4181 46.7223 54.3702 46.5545 54.2361 46.4798L42.0805 39.7291L41.9449 39.6943Z" fill="#E8EEFC"/>
<path fill-rule="evenodd" clip-rule="evenodd" d="M34.0589 31.3706C33.962 31.3706 33.8676 31.4212 33.8166 31.5118C33.7418 31.6448 33.7893 31.813 33.9233 31.8872L54.1273 43.0204C54.2604 43.0941 54.4305 43.0475 54.5057 42.9145C54.581 42.781 54.5331 42.6132 54.399 42.5386L34.195 31.4059L34.0589 31.3706Z" fill="#E8EEFC"/>
<path fill-rule="evenodd" clip-rule="evenodd" d="M36.5891 76.546C36.686 76.546 36.7803 76.4953 36.8314 76.4048C36.9061 76.2718 36.8587 76.1035 36.7247 76.0299L31.1601 72.9359C31.0271 72.8617 30.8569 72.9082 30.7817 73.0417C30.7069 73.1747 30.7549 73.3425 30.8889 73.4167L36.453 76.5107L36.5891 76.546Z" fill="#B8C9FF"/>
<path fill-rule="evenodd" clip-rule="evenodd" d="M21.0047 57.9414C20.9078 57.9414 20.8134 57.9915 20.7619 58.0821C20.6871 58.2151 20.7351 58.3833 20.8691 58.457L26.4332 61.5515C26.5662 61.6252 26.7363 61.5786 26.8116 61.4451C26.8863 61.3122 26.8389 61.1444 26.7049 61.0702L21.1403 57.9762L21.0047 57.9414Z" fill="#B8C9FF"/>
<path fill-rule="evenodd" clip-rule="evenodd" d="M20.9856 50.0122C20.8887 50.0122 20.7943 50.0623 20.7433 50.1529C20.6685 50.2859 20.7165 50.4541 20.85 50.5283L26.4146 53.6223C26.5476 53.696 26.7177 53.65 26.793 53.5159C26.8678 53.383 26.8198 53.2152 26.6863 53.141L21.1217 50.047L20.9856 50.0122Z" fill="#B8C9FF"/>
<path fill-rule="evenodd" clip-rule="evenodd" d="M28.634 54.3469C28.5371 54.3469 28.4427 54.3976 28.3917 54.4881C28.3169 54.6211 28.3643 54.7889 28.4984 54.8635L40.654 61.6142C40.787 61.6884 40.9566 61.6419 41.0324 61.5084C41.1072 61.3749 41.0597 61.2071 40.9252 61.1329L28.7701 54.3822L28.634 54.3469Z" fill="#B8C9FF"/>
<path fill-rule="evenodd" clip-rule="evenodd" d="M20.8232 53.9531C20.7263 53.9531 20.6319 54.0032 20.5804 54.0938C20.5056 54.2268 20.5536 54.3951 20.6876 54.4692L40.8917 65.6024C41.0247 65.6761 41.1943 65.63 41.2701 65.496C41.3448 65.363 41.2969 65.1953 41.1628 65.1211L20.9588 53.9879L20.8232 53.9531Z" fill="#B8C9FF"/>
<path fill-rule="evenodd" clip-rule="evenodd" d="M19.6432 62.2771C19.5462 62.2771 19.4514 62.3282 19.4004 62.4183C19.3256 62.5513 19.3735 62.719 19.5076 62.7937L39.7116 73.9264C39.8446 74.0006 40.0143 73.954 40.0895 73.8205C40.1648 73.688 40.1168 73.5197 39.9828 73.4456L19.7787 62.3119L19.6432 62.2771Z" fill="#B8C9FF"/>
<path fill-rule="evenodd" clip-rule="evenodd" d="M35.2064 50.0122C35.1095 50.0122 35.0147 50.0623 34.9641 50.1529C34.8889 50.2859 34.9368 50.4541 35.0708 50.5283L40.6355 53.6223C40.7685 53.696 40.9381 53.65 41.0139 53.5159C41.0886 53.383 41.0407 53.2152 40.9066 53.141L35.342 50.047L35.2064 50.0122Z" fill="#B8C9FF"/>
<path fill-rule="evenodd" clip-rule="evenodd" d="M26.5564 45.3057C26.459 45.3057 26.3646 45.3563 26.3136 45.4473C26.2383 45.5803 26.2863 45.7481 26.4208 45.8223L31.9849 48.9163C32.1179 48.9905 32.2875 48.9439 32.3633 48.8104C32.438 48.6769 32.3906 48.5092 32.2561 48.435L26.692 45.341L26.5564 45.3057Z" fill="#B8C9FF"/>
<path fill-rule="evenodd" clip-rule="evenodd" d="M20.7485 46.0239C20.6515 46.0239 20.5567 46.0741 20.5056 46.1646C20.4309 46.2981 20.4788 46.4659 20.6129 46.54L40.8169 57.6732C40.9499 57.7474 41.1195 57.7008 41.1948 57.5673C41.2701 57.4338 41.2221 57.2661 41.0881 57.1919L20.884 46.0587L20.7485 46.0239Z" fill="#B8C9FF"/>
<path fill-rule="evenodd" clip-rule="evenodd" d="M45.4969 92.5638C44.721 92.6027 44.1235 93.2589 44.1632 94.0292C44.2024 94.799 44.8638 95.3919 45.6397 95.3525C46.4161 95.3136 47.0136 94.6579 46.9739 93.8876C46.9347 93.1173 46.2733 92.5249 45.4969 92.5638Z" fill="#819BEA"/>
<path fill-rule="evenodd" clip-rule="evenodd" d="M77.2807 52.1171C77.4112 52.0977 77.5024 51.9754 77.4823 51.8409C77.3849 51.244 77.6081 50.6594 78.0798 50.2773C78.5515 49.8947 79.1732 49.7944 79.7429 50.0082C80.4811 50.286 81.2843 50.1535 81.8927 49.6548C82.501 49.1566 82.784 48.3986 82.6489 47.6267C82.6376 47.5628 82.6025 47.507 82.5489 47.4702C82.4953 47.4334 82.4314 47.4196 82.3695 47.4308C82.3046 47.4416 82.2468 47.4784 82.2102 47.5316C82.1726 47.5838 82.1597 47.6487 82.1721 47.7091C82.2772 48.3085 82.0576 48.8973 81.5844 49.2845C81.1116 49.6717 80.4873 49.774 79.9146 49.5591C79.181 49.2834 78.3804 49.4129 77.7731 49.9054C77.57 50.0696 77.4003 50.265 77.2699 50.4855C77.2039 50.5964 77.1493 50.7131 77.1055 50.8328C76.9802 51.176 76.9436 51.5504 77.0044 51.9181C77.0261 52.0486 77.1503 52.1376 77.2807 52.1171Z" fill="#6990FF"/>
<path fill-rule="evenodd" clip-rule="evenodd" d="M21.7914 96.3017C21.9218 96.2828 22.013 96.16 21.9935 96.026C21.8955 95.4286 22.1187 94.8439 22.5904 94.4618C23.0621 94.0798 23.6839 93.9795 24.254 94.1933C24.9918 94.4705 25.7955 94.3386 26.4033 93.8394C27.0121 93.3412 27.2946 92.5831 27.1601 91.8108C27.1487 91.7468 27.1132 91.6916 27.0595 91.6553C27.0064 91.6179 26.9425 91.6041 26.8801 91.6154C26.8157 91.6261 26.7574 91.6629 26.7208 91.7167C26.6832 91.7688 26.6703 91.8333 26.6827 91.8931C26.7879 92.4926 26.5688 93.0818 26.095 93.4695C25.6223 93.8562 24.9985 93.959 24.4252 93.7437C23.6916 93.468 22.891 93.5974 22.2837 94.0895C22.0806 94.2542 21.911 94.4496 21.7805 94.6705C21.7151 94.781 21.6604 94.8971 21.6161 95.0173C21.4908 95.3605 21.4547 95.7349 21.515 96.1032C21.5367 96.2331 21.6614 96.3227 21.7914 96.3017Z" fill="#6990FF"/>
<path fill-rule="evenodd" clip-rule="evenodd" d="M28.0236 16.9833C27.2477 17.0222 26.6502 17.6784 26.6894 18.4487C26.7291 19.2185 27.39 19.8113 28.1664 19.772C28.9428 19.7331 29.5398 19.0768 29.5006 18.307C29.4609 17.5367 28.8 16.9439 28.0236 16.9833Z" fill="#172328"/>
<path fill-rule="evenodd" clip-rule="evenodd" d="M27.4287 28.5238C27.3658 28.4082 27.2188 28.3647 27.0977 28.4292C26.5657 28.7238 25.9357 28.7156 25.413 28.4056C24.8897 28.0962 24.5829 27.5509 24.5912 26.9458C24.6025 26.1632 24.203 25.4589 23.523 25.0615C22.8436 24.664 22.0285 24.6584 21.3429 25.0477C21.2861 25.0794 21.2459 25.1321 21.2294 25.1945C21.2124 25.2564 21.2217 25.3208 21.2532 25.3755C21.2856 25.4318 21.3403 25.4732 21.4032 25.4891C21.4656 25.5065 21.531 25.4962 21.5836 25.464C22.1161 25.1622 22.7487 25.1653 23.2771 25.4753C23.805 25.7842 24.1149 26.3315 24.1066 26.9392C24.0953 27.7177 24.4912 28.4199 25.1645 28.8184C25.3898 28.9524 25.6326 29.0435 25.8867 29.09C26.0141 29.1135 26.1429 29.1253 26.2713 29.1253C26.6394 29.1253 27.0064 29.0312 27.3343 28.8491C27.4503 28.7846 27.4926 28.6378 27.4287 28.5238Z" fill="#6990FF"/>
<path fill-rule="evenodd" clip-rule="evenodd" d="M34.1048 86.7768H37.284L35.6941 84.7799L34.1048 86.7768ZM37.8795 86.9691L37.8599 87.0535C37.8274 87.1195 37.7593 87.1614 37.6851 87.1614H33.7037C33.6294 87.1614 33.5614 87.1195 33.5289 87.0535C33.4959 86.9865 33.5052 86.9072 33.5511 86.8494L35.5421 84.3497C35.5787 84.3042 35.6348 84.2771 35.6941 84.2771C35.7539 84.2771 35.8096 84.3042 35.8467 84.3497L37.8377 86.8494L37.8795 86.9691Z" fill="#C6D4FF"/>
<path fill-rule="evenodd" clip-rule="evenodd" d="M74.9516 42.9111L74.9397 46.066L76.9575 44.4957L74.9516 42.9111ZM74.7433 46.6558L74.6588 46.6358C74.5923 46.6036 74.55 46.5361 74.55 46.4619L74.5649 42.5122C74.5654 42.4385 74.6077 42.371 74.6753 42.3393C74.7423 42.3065 74.8217 42.3157 74.8799 42.3623L77.3921 44.3459C77.438 44.3832 77.4653 44.439 77.4653 44.4978C77.4648 44.5571 77.4375 44.6124 77.3911 44.6487L74.8639 46.6149L74.7433 46.6558Z" fill="#C6D4FF"/>
<path fill-rule="evenodd" clip-rule="evenodd" d="M24.0159 75.7493C24.0159 77.9507 20.9119 79.7353 17.0841 79.7353C13.2553 79.7353 10.1518 77.9507 10.1518 75.7493C10.1518 73.5478 13.2553 71.7632 17.0841 71.7632C20.9119 71.7632 24.0159 73.5478 24.0159 75.7493Z" fill="#C8D5FF"/>
</g>
<path d="M20.1937 73.6696C19.6937 73.5596 19.3137 73.3396 19.3837 72.9896C19.3637 72.9996 19.3437 72.9996 19.3237 73.0096C19.0337 73.1196 18.8037 73.2096 18.6337 73.1296C18.6237 73.1296 18.6237 73.1196 18.6137 73.1196C18.4637 73.0396 18.3637 72.8096 18.3137 72.3196L18.3037 72.2396C18.0937 72.2996 17.8637 71.9596 17.7337 71.5996C17.4437 73.5496 16.7637 75.8296 17.0837 76.0396C17.3537 76.2196 19.1637 74.9696 20.7637 74.0796L21.1737 73.7396C20.8537 73.7596 20.4937 73.7396 20.1937 73.6696Z" fill="#172328"/>
<path d="M21.3438 68.6895L18.6038 73.1194C18.6138 73.1194 18.6138 73.1295 18.6238 73.1295C18.7938 73.2095 19.0238 73.1194 19.3138 73.0094L22.1338 69.0695L21.3438 68.6895Z" fill="#F5DA9F"/>
<path d="M19.3237 73.0093C19.3437 72.9993 19.3637 72.9993 19.3837 72.9893C19.3137 73.3393 19.6937 73.5593 20.1937 73.6693L23.8337 69.8793L22.1537 69.0693L19.3237 73.0093Z" fill="#F5D186"/>
<path d="M23.8237 69.8799L20.1837 73.6699C20.4937 73.7399 20.8437 73.7599 21.1737 73.7499L25.1337 70.4999L23.8237 69.8799Z" fill="#F5C96D"/>
<path d="M21.0038 68.5296L20.1837 66.8096L18.3237 72.3296C18.3737 72.8096 18.4737 73.0396 18.6237 73.1296L21.3637 68.6996L21.0038 68.5296Z" fill="#F5C96D"/>
<path d="M25.1437 70.5097L21.1837 73.7596C21.2537 73.7596 21.3237 73.7596 21.3937 73.7496C24.5237 71.9696 28.5137 69.3796 28.8937 69.1396L25.9637 70.9097L25.1437 70.5097Z" fill="#DDAF4E"/>
<path d="M18.3038 72.2495L18.3138 72.3295L20.1738 66.8095L19.0738 64.5195C18.8438 65.5995 18.1338 68.9195 17.7338 71.6195C17.8638 71.9595 18.1038 72.3095 18.3038 72.2495Z" fill="#DDAF4E"/>
<path d="M42.2337 47.2998L25.9537 70.9298L28.8837 69.1598C28.9037 69.1498 28.9137 69.1398 28.9137 69.1398L45.1937 45.5098L42.2337 47.2998Z" fill="black"/>
<path d="M38.9037 45.71L42.2337 47.31L45.1937 45.52L43.2037 41.37L42.3137 40.94L38.2537 39L35.2937 40.78L37.2837 44.93L38.9037 45.71ZM38.7137 41.92C38.9137 41.28 39.9737 41.27 41.0937 41.9C41.2237 41.97 41.3437 42.05 41.4637 42.13C42.3737 42.76 42.9437 43.63 42.7637 44.2C42.5637 44.84 41.5037 44.85 40.3837 44.22C40.2837 44.16 40.1837 44.1 40.0937 44.04C39.1437 43.41 38.5437 42.5 38.7137 41.92Z" fill="#F5C96D"/>
<path d="M40.0937 44.0399C40.1837 44.0999 40.2837 44.1599 40.3837 44.2199C41.5037 44.8499 42.5637 44.8399 42.7637 44.1999C42.9337 43.6299 42.3737 42.7599 41.4637 42.1299C41.3437 42.0499 41.2237 41.9699 41.0937 41.8999C39.9737 41.2699 38.9137 41.2799 38.7137 41.9199C38.5437 42.4999 39.1437 43.4099 40.0937 44.0399Z" fill="#172328"/>
<path d="M37.2838 44.9297L21.0038 68.5597L21.3438 68.7197L22.1438 69.0997L23.8238 69.9097L25.1438 70.5397L25.9638 70.9297L42.2338 47.2997L38.9038 45.7097L37.2838 44.9297Z" fill="#172328"/>
<path d="M21.0038 68.53L37.2838 44.9L35.2937 40.75L19.1537 64.16L19.0137 64.37L19.0837 64.51V64.52L20.1837 66.81L21.0038 68.53Z" fill="#324750"/>
<defs>
<clipPath id="clip0">
<rect width="83" height="89" fill="white" transform="translate(0 10)"/>
</clipPath>
</defs>
</svg>
