<svg viewBox="0 0 63 109" fill="none" xmlns="http://www.w3.org/2000/svg">
<path d="M9.78657 78.6451C9.68294 78.6451 9.57931 78.59 9.52445 78.492C9.4391 78.345 9.48787 78.1613 9.63417 78.0756C9.81095 77.9715 9.98773 77.8735 10.1706 77.7694C10.3169 77.6898 10.5059 77.7388 10.5851 77.8919C10.6644 78.0388 10.6095 78.2287 10.4632 78.3083C10.2864 78.4063 10.1097 78.5042 9.93897 78.6083C9.8902 78.6328 9.83534 78.6451 9.78657 78.6451Z" fill="#9857BD"/>
<path d="M62.1135 90.9602C61.9489 90.9602 61.8148 90.8316 61.8087 90.6663C61.7966 90.2744 61.7539 89.8824 61.699 89.4967C61.6746 89.3313 61.7844 89.1721 61.955 89.1476C62.1196 89.1231 62.2781 89.2333 62.3025 89.4048C62.3635 89.8151 62.4061 90.2315 62.4183 90.6418C62.4244 90.8132 62.2964 90.9541 62.1257 90.9602C62.1257 90.9602 62.1196 90.9602 62.1135 90.9602ZM61.5771 87.9964C61.4491 87.9964 61.3272 87.9168 61.2906 87.7882C61.1687 87.4208 61.0285 87.0533 60.8639 86.6921C60.7968 86.539 60.8639 86.3553 61.0163 86.2879C61.1687 86.2205 61.3516 86.2879 61.4186 86.441C61.5893 86.8206 61.7417 87.2064 61.8697 87.5983C61.9246 87.7576 61.8331 87.929 61.6746 87.9841C61.6381 87.9902 61.6076 87.9964 61.5771 87.9964ZM60.2848 85.2714C60.1811 85.2714 60.0836 85.2224 60.0287 85.1305C59.8276 84.806 59.602 84.4753 59.3582 84.1569C59.2546 84.0222 59.285 83.8323 59.4192 83.7282C59.5533 83.6241 59.7422 83.6547 59.8459 83.7895C60.0958 84.1201 60.3274 84.4631 60.5408 84.806C60.6322 84.9468 60.5896 85.1367 60.4433 85.2285C60.3945 85.2591 60.3396 85.2714 60.2848 85.2714ZM58.4438 82.8832C58.3646 82.8832 58.2792 82.8526 58.2183 82.7852C57.9562 82.5035 57.6757 82.2218 57.3831 81.9401C57.2612 81.8238 57.2551 81.6278 57.3709 81.5054C57.4868 81.3829 57.6818 81.3768 57.8038 81.4931C58.1085 81.7809 58.3951 82.0687 58.6694 82.3627C58.7852 82.4851 58.7791 82.6811 58.6572 82.7974C58.5901 82.8587 58.517 82.8832 58.4438 82.8832ZM56.2249 80.844C56.1579 80.844 56.0908 80.8195 56.0359 80.7767C55.7312 80.5317 55.4142 80.2929 55.085 80.0602C54.9509 79.9622 54.9143 79.7724 55.0118 79.6315C55.1094 79.4907 55.2983 79.4601 55.4386 79.5581C55.7738 79.7969 56.103 80.0418 56.4139 80.2929C56.548 80.397 56.5663 80.593 56.4627 80.7215C56.4017 80.8073 56.3103 80.844 56.2249 80.844ZM53.75 79.1172C53.6951 79.1172 53.6403 79.1049 53.5915 79.0743C53.3782 78.9396 53.1587 78.811 52.9332 78.6824L52.5613 78.4681C52.415 78.3885 52.3601 78.1986 52.4455 78.0517C52.5247 77.9047 52.7137 77.8496 52.86 77.9353L53.2379 78.1496C53.4696 78.2844 53.689 78.4191 53.9085 78.5538C54.0548 78.6395 54.0975 78.8294 54.0121 78.9763C53.9573 79.0682 53.8536 79.1172 53.75 79.1172ZM51.1105 77.672C51.0678 77.672 51.019 77.6597 50.9764 77.6414C50.6228 77.4699 50.2571 77.2985 49.8913 77.1392C49.7389 77.0719 49.6658 76.8882 49.7389 76.7351C49.806 76.582 49.9888 76.5085 50.1412 76.582C50.5131 76.7473 50.8788 76.9188 51.2446 77.0964C51.397 77.1699 51.4579 77.3536 51.3848 77.5067C51.3299 77.6046 51.2202 77.672 51.1105 77.672ZM11.9262 77.5128C11.8104 77.5128 11.7007 77.4454 11.6519 77.3413C11.5788 77.1882 11.6458 77.0045 11.7982 76.931C12.164 76.7596 12.5297 76.5881 12.9016 76.4228C13.054 76.3554 13.2368 76.4289 13.3039 76.582C13.3709 76.7351 13.2978 76.9188 13.1454 76.9862C12.7796 77.1454 12.4139 77.3107 12.0603 77.4822C12.0116 77.5067 11.9689 77.5128 11.9262 77.5128ZM48.3491 76.4656C48.3125 76.4656 48.2759 76.4595 48.2393 76.4473C47.8675 76.3064 47.4956 76.1656 47.1177 76.037C46.9592 75.9819 46.8739 75.8043 46.9287 75.6451C46.9836 75.4859 47.1604 75.4001 47.3189 75.4553C47.7029 75.59 48.0808 75.7308 48.4588 75.8778C48.6173 75.939 48.6965 76.1166 48.6356 76.2758C48.5868 76.3922 48.471 76.4656 48.3491 76.4656ZM14.6937 76.3309C14.5718 76.3309 14.456 76.2574 14.4072 76.135C14.3463 75.9758 14.4255 75.7982 14.584 75.7431C14.962 75.6022 15.3399 75.4614 15.73 75.3328C15.8885 75.2777 16.0653 75.3634 16.1141 75.5226C16.1689 75.6818 16.0836 75.8594 15.9251 75.9084C15.5472 76.037 15.1692 76.1717 14.8035 76.3126C14.7669 76.3248 14.7303 76.3309 14.6937 76.3309ZM45.4962 75.492C45.4657 75.492 45.4352 75.4859 45.4108 75.4797C45.0329 75.3634 44.6489 75.2532 44.2587 75.1491C44.0941 75.1062 44.0027 74.9347 44.0454 74.7755C44.088 74.6102 44.2587 74.5122 44.4172 74.5612C44.8074 74.6653 45.1975 74.7817 45.5876 74.898C45.7461 74.947 45.8376 75.1185 45.7888 75.2777C45.7522 75.4063 45.6303 75.492 45.4962 75.492ZM17.5527 75.3756C17.4186 75.3756 17.2967 75.2899 17.2601 75.1552C17.2113 74.9899 17.3028 74.8245 17.4674 74.7755C17.8514 74.6653 18.2415 74.5551 18.6378 74.451C18.8024 74.4081 18.967 74.5061 19.0096 74.6714C19.0523 74.8368 18.9548 75.0021 18.7902 75.045C18.4 75.1491 18.016 75.2532 17.6381 75.3634C17.6076 75.3756 17.5771 75.3756 17.5527 75.3756ZM42.5824 74.7204C42.558 74.7204 42.5397 74.7204 42.5153 74.7143C42.1252 74.6286 41.735 74.5428 41.3449 74.4632C41.1803 74.4326 41.0706 74.2673 41.1072 74.1019C41.1376 73.9366 41.3022 73.8264 41.4668 73.8631C41.863 73.9427 42.2593 74.0285 42.6555 74.1203C42.8201 74.157 42.9237 74.3224 42.8872 74.4877C42.8506 74.6224 42.7226 74.7204 42.5824 74.7204ZM20.4665 74.6347C20.3263 74.6347 20.1983 74.5367 20.1678 74.3959C20.1313 74.2305 20.2349 74.0652 20.3995 74.0285C20.7957 73.9427 21.1919 73.857 21.5882 73.7835C21.7528 73.7529 21.9113 73.8631 21.9478 74.0285C21.9783 74.1938 21.8686 74.353 21.704 74.3897C21.3139 74.4632 20.9176 74.549 20.5336 74.6347C20.5092 74.6286 20.4909 74.6347 20.4665 74.6347ZM39.6259 74.1448C39.6076 74.1448 39.5954 74.1448 39.5771 74.1387C39.1809 74.0774 38.7907 74.0162 38.3945 73.9611C38.2299 73.9366 38.1141 73.7835 38.1324 73.6182C38.1568 73.4528 38.3092 73.3304 38.4737 73.3549C38.8761 73.41 39.2723 73.4712 39.6746 73.5324C39.8392 73.5569 39.955 73.7162 39.9246 73.8815C39.9002 74.0407 39.7722 74.1448 39.6259 74.1448ZM23.4291 74.0774C23.2828 74.0774 23.1487 73.9672 23.1304 73.8203C23.106 73.6549 23.2219 73.4957 23.3865 73.4712C23.7827 73.41 24.185 73.3549 24.5873 73.2997C24.7519 73.2814 24.9043 73.3977 24.9287 73.5631C24.9531 73.7284 24.8312 73.8815 24.6666 73.906C24.2704 73.955 23.8741 74.0162 23.484 74.0713C23.4596 74.0774 23.4413 74.0774 23.4291 74.0774ZM36.6389 73.7529C36.6267 73.7529 36.6206 73.7529 36.6084 73.7529C36.2122 73.71 35.8159 73.6794 35.4136 73.6427C35.249 73.6304 35.121 73.4835 35.1332 73.312C35.1454 73.1405 35.2917 73.0181 35.4624 73.0303C35.8647 73.0609 36.267 73.0977 36.6694 73.1405C36.834 73.1589 36.962 73.3059 36.9437 73.4773C36.9254 73.6365 36.7913 73.7529 36.6389 73.7529ZM26.4161 73.71C26.2576 73.71 26.1296 73.5937 26.1113 73.4345C26.093 73.2691 26.221 73.116 26.3856 73.1038C26.788 73.067 27.1903 73.0303 27.5926 73.0058C27.7572 72.9936 27.9035 73.1222 27.9157 73.2875C27.9279 73.459 27.7999 73.5998 27.6353 73.612C27.239 73.6427 26.8367 73.6733 26.4405 73.71C26.4344 73.71 26.4222 73.71 26.4161 73.71ZM33.6336 73.5324C33.6275 73.5324 33.6214 73.5324 33.6214 73.5324C33.2252 73.5141 32.8229 73.5018 32.4266 73.4957C32.256 73.4896 32.1218 73.3549 32.1279 73.1834C32.134 73.0119 32.2681 72.8956 32.4388 72.8833C32.8412 72.8895 33.2496 72.9078 33.6519 72.9201C33.8226 72.9262 33.9506 73.0732 33.9445 73.2385C33.9323 73.4038 33.7982 73.5324 33.6336 73.5324ZM29.4214 73.5141C29.2568 73.5141 29.1227 73.3855 29.1166 73.2201C29.1105 73.0487 29.2446 72.9078 29.4092 72.9017C29.8115 72.8895 30.2138 72.8772 30.6223 72.8711C30.6223 72.8711 30.6223 72.8711 30.6284 72.8711C30.7929 72.8711 30.9331 73.0058 30.9331 73.1711C30.9331 73.3426 30.799 73.4773 30.6344 73.4835C30.2382 73.4896 29.8359 73.4957 29.4397 73.5141C29.4275 73.5141 29.4214 73.5141 29.4214 73.5141Z" fill="#172328"/>
<path d="M61.9246 93.3848C61.9063 93.3848 61.8819 93.3848 61.8636 93.3787C61.699 93.348 61.5893 93.1827 61.6259 93.0174C61.6625 92.8214 61.699 92.6255 61.7234 92.4356C61.7478 92.2703 61.9002 92.1539 62.0648 92.1723C62.2294 92.1968 62.3452 92.3499 62.3269 92.5152C62.2964 92.7234 62.2659 92.9316 62.2233 93.1337C62.1928 93.2868 62.0648 93.3848 61.9246 93.3848Z" fill="#172328"/>
<path d="M52.6954 104.138C52.5857 104.138 52.4821 104.083 52.4272 103.979C52.348 103.832 52.4028 103.642 52.5491 103.562C52.7259 103.464 52.9027 103.366 53.0734 103.262C53.2197 103.176 53.4025 103.225 53.4879 103.372C53.5732 103.519 53.5245 103.703 53.3782 103.789C53.2014 103.893 53.0246 103.991 52.8417 104.095C52.793 104.126 52.7442 104.138 52.6954 104.138Z" fill="#9857BD"/>
<path d="M31.7561 108.999C31.5854 108.999 31.4513 108.865 31.4513 108.693C31.4513 108.522 31.5854 108.387 31.7561 108.387C32.1645 108.387 32.579 108.381 32.9874 108.369C33.1642 108.381 33.2983 108.497 33.2983 108.669C33.3044 108.84 33.1703 108.981 32.9996 108.981C32.5912 108.993 32.1767 108.999 31.7561 108.999ZM29.8968 108.969C29.8907 108.969 29.8907 108.969 29.8846 108.969C29.4701 108.956 29.0556 108.938 28.6411 108.914C28.4704 108.901 28.3424 108.76 28.3546 108.589C28.3668 108.418 28.5009 108.283 28.6777 108.301C29.0861 108.326 29.5006 108.344 29.909 108.356C30.0797 108.362 30.2077 108.503 30.2016 108.675C30.1955 108.84 30.0614 108.969 29.8968 108.969ZM34.8589 108.907C34.7004 108.907 34.5663 108.779 34.5541 108.62C34.5419 108.448 34.6699 108.307 34.8406 108.295C35.249 108.271 35.6635 108.24 36.072 108.209C36.2365 108.203 36.3889 108.32 36.4011 108.491C36.4133 108.662 36.2914 108.809 36.1207 108.822C35.7062 108.858 35.2917 108.889 34.8772 108.914C34.8711 108.907 34.865 108.907 34.8589 108.907ZM26.8001 108.773C26.7879 108.773 26.7818 108.773 26.7697 108.773C26.3551 108.736 25.9406 108.693 25.5261 108.644C25.3615 108.626 25.2396 108.473 25.2579 108.301C25.2762 108.136 25.4286 108.007 25.5993 108.032C26.0077 108.081 26.4161 108.124 26.8245 108.16C26.9891 108.179 27.1171 108.326 27.0988 108.491C27.0927 108.65 26.9586 108.773 26.8001 108.773ZM37.9434 108.626C37.791 108.626 37.6569 108.509 37.6386 108.356C37.6203 108.191 37.7361 108.038 37.9068 108.013C38.3152 107.964 38.7237 107.909 39.126 107.848C39.2906 107.83 39.4491 107.94 39.4735 108.105C39.4978 108.271 39.382 108.43 39.2174 108.454C38.809 108.515 38.3945 108.571 37.98 108.62C37.9678 108.626 37.9556 108.626 37.9434 108.626ZM23.7217 108.393C23.7034 108.393 23.6912 108.393 23.673 108.387C23.2584 108.32 22.85 108.252 22.4416 108.179C22.277 108.148 22.1673 107.989 22.1978 107.824C22.2282 107.658 22.3806 107.548 22.5513 107.579C22.9536 107.652 23.3621 107.719 23.7705 107.781C23.9351 107.805 24.0509 107.964 24.0265 108.13C24.0021 108.283 23.8741 108.393 23.7217 108.393ZM41.0096 108.16C40.8633 108.16 40.7353 108.056 40.7109 107.909C40.6804 107.744 40.7902 107.585 40.9548 107.554C41.3632 107.481 41.7655 107.401 42.1617 107.315C42.3263 107.279 42.4909 107.389 42.5214 107.554C42.558 107.719 42.4482 107.885 42.2837 107.915C41.8752 108.001 41.4668 108.081 41.0584 108.16C41.0462 108.16 41.0279 108.16 41.0096 108.16ZM20.6738 107.817C20.6494 107.817 20.6311 107.817 20.6067 107.811C20.1983 107.719 19.796 107.621 19.3937 107.523C19.2291 107.481 19.1315 107.315 19.1742 107.15C19.2169 106.985 19.3815 106.887 19.546 106.929C19.9423 107.027 20.3446 107.125 20.7469 107.211C20.9115 107.248 21.0152 107.413 20.9786 107.579C20.942 107.719 20.814 107.817 20.6738 107.817ZM44.0393 107.493C43.9052 107.493 43.7771 107.401 43.7467 107.26C43.704 107.095 43.8015 106.929 43.9661 106.887C44.3623 106.783 44.7647 106.678 45.1548 106.562C45.3194 106.519 45.484 106.611 45.5328 106.77C45.5815 106.936 45.484 107.101 45.3255 107.15C44.9293 107.266 44.5269 107.37 44.1185 107.474C44.088 107.493 44.0637 107.493 44.0393 107.493ZM17.6685 107.04C17.638 107.04 17.6137 107.034 17.5832 107.027C17.1808 106.911 16.7846 106.783 16.3884 106.654C16.2299 106.599 16.1385 106.427 16.1933 106.268C16.2482 106.109 16.4189 106.017 16.5774 106.072C16.9675 106.201 17.3576 106.323 17.7539 106.44C17.9124 106.489 18.0099 106.66 17.9611 106.819C17.9245 106.954 17.8026 107.04 17.6685 107.04ZM47.0141 106.611C46.886 106.611 46.7702 106.531 46.7275 106.403C46.6727 106.244 46.758 106.066 46.9165 106.017C47.3067 105.888 47.6968 105.748 48.0747 105.607C48.2332 105.546 48.41 105.631 48.4649 105.784C48.5258 105.944 48.4405 106.121 48.2881 106.176C47.898 106.323 47.5078 106.458 47.1116 106.593C47.075 106.611 47.0445 106.611 47.0141 106.611ZM14.7303 106.042C14.6937 106.042 14.6572 106.035 14.6206 106.023C14.2304 105.87 13.8403 105.717 13.4624 105.558C13.31 105.49 13.2368 105.313 13.2978 105.154C13.3648 105.001 13.5416 104.927 13.7001 104.988C14.0781 105.148 14.456 105.301 14.84 105.448C14.9985 105.509 15.0778 105.686 15.0168 105.846C14.968 105.968 14.8522 106.042 14.7303 106.042ZM49.9096 105.503C49.7938 105.503 49.6779 105.435 49.6292 105.319C49.5621 105.166 49.6353 104.982 49.7877 104.915C50.1656 104.749 50.5375 104.578 50.9093 104.407C51.0617 104.333 51.2446 104.4 51.3177 104.554C51.3909 104.707 51.3238 104.89 51.1714 104.964C50.7996 105.141 50.4156 105.313 50.0315 105.484C49.9888 105.497 49.9462 105.503 49.9096 105.503ZM11.8835 104.805C11.8409 104.805 11.7921 104.792 11.7494 104.774C11.3715 104.59 10.9996 104.4 10.6339 104.204C10.4876 104.125 10.4266 103.941 10.512 103.788C10.5912 103.641 10.7741 103.586 10.9265 103.666C11.2861 103.862 11.6519 104.045 12.0176 104.229C12.17 104.302 12.231 104.486 12.1579 104.639C12.1091 104.743 11.9994 104.805 11.8835 104.805ZM9.17087 103.304C9.11601 103.304 9.06115 103.292 9.01238 103.261C8.65272 103.035 8.29916 102.808 7.96389 102.576C7.82368 102.478 7.78711 102.288 7.88464 102.153C7.98218 102.012 8.17115 101.975 8.30526 102.073C8.63444 102.3 8.9819 102.527 9.33546 102.747C9.47567 102.839 9.52443 103.023 9.43299 103.17C9.37204 103.255 9.26841 103.304 9.17087 103.304ZM6.63499 101.516C6.56793 101.516 6.50088 101.492 6.44602 101.449C6.11074 101.179 5.79376 100.904 5.48897 100.628C5.36095 100.512 5.35486 100.322 5.46458 100.194C5.5804 100.065 5.76938 100.059 5.89739 100.169C6.19609 100.438 6.50088 100.702 6.83006 100.965C6.95807 101.069 6.98245 101.265 6.87882 101.394C6.81177 101.473 6.72643 101.516 6.63499 101.516ZM4.37342 99.3852C4.28808 99.3852 4.20883 99.3485 4.14787 99.2872C3.86137 98.9749 3.59315 98.6442 3.33712 98.3197C3.23349 98.185 3.25788 97.9951 3.39198 97.891C3.52609 97.7869 3.71507 97.8114 3.8187 97.9462C4.06253 98.2646 4.33075 98.5769 4.59897 98.8831C4.71479 99.0055 4.7026 99.2015 4.57458 99.3178C4.51972 99.3607 4.44657 99.3852 4.37342 99.3852ZM2.53247 96.8868C2.42884 96.8868 2.32521 96.8317 2.27034 96.7337C2.05089 96.3663 1.85582 95.9866 1.67904 95.6069C1.60589 95.4539 1.67295 95.2701 1.82535 95.2028C1.97774 95.1293 2.16062 95.1967 2.22767 95.3498C2.39836 95.7111 2.58733 96.0723 2.79459 96.4275C2.87993 96.5745 2.83116 96.7582 2.68486 96.8439C2.6361 96.8745 2.58123 96.8868 2.53247 96.8868ZM1.295 94.0393C1.1609 94.0393 1.03898 93.9536 1.0024 93.8189C0.886581 93.4086 0.789047 92.986 0.721992 92.5696C0.691513 92.4043 0.807334 92.2451 0.971923 92.2145C1.13651 92.1839 1.295 92.3002 1.32548 92.4655C1.39254 92.8636 1.47788 93.2555 1.5937 93.6474C1.64247 93.8127 1.54494 93.9781 1.38644 94.0271C1.35596 94.0393 1.32548 94.0393 1.295 94.0393ZM0.886581 90.9653C0.886581 90.9653 0.880485 90.9653 0.886581 90.9653C0.715896 90.9653 0.581787 90.8244 0.581787 90.653C0.587883 90.2243 0.618362 89.7957 0.679321 89.3731C0.703705 89.2078 0.850006 89.0853 1.02069 89.1098C1.18528 89.1343 1.3011 89.2874 1.28281 89.4527C1.22795 89.8508 1.19747 90.2549 1.19137 90.6591C1.19137 90.8305 1.05117 90.9653 0.886581 90.9653Z" fill="#172328"/>
<path d="M1.39863 87.8917C1.36815 87.8917 1.33767 87.8856 1.3072 87.8794C1.1487 87.8304 1.05726 87.6529 1.11213 87.4936C1.17309 87.2977 1.24624 87.0956 1.31939 86.8997C1.38035 86.7404 1.55713 86.6608 1.70952 86.7221C1.86802 86.7833 1.94726 86.9609 1.8863 87.114C1.81315 87.2977 1.75219 87.4875 1.69124 87.6773C1.64856 87.8059 1.52665 87.8917 1.39863 87.8917Z" fill="#9857BD"/>
<path d="M9.82921 93.6488C9.7012 93.6488 9.58538 93.5692 9.54271 93.4406C9.4025 93.0365 9.29887 92.6201 9.22572 92.2098C9.19524 92.0444 9.30497 91.8852 9.47565 91.8546C9.64024 91.824 9.79874 91.9342 9.82921 92.1057C9.89627 92.4853 9.9938 92.8711 10.1218 93.2447C10.1767 93.4039 10.0913 93.5815 9.93284 93.6304C9.89627 93.6427 9.86579 93.6488 9.82921 93.6488ZM9.43298 90.636C9.42689 90.636 9.42079 90.636 9.4086 90.636C9.23791 90.6238 9.116 90.4768 9.12819 90.3115C9.15867 89.8951 9.21963 89.4664 9.31716 89.0561C9.35374 88.8908 9.51833 88.7928 9.68291 88.8295C9.8475 88.8663 9.95113 89.0316 9.90846 89.197C9.81702 89.5828 9.75606 89.9685 9.73168 90.3604C9.72558 90.5135 9.59148 90.636 9.43298 90.636ZM10.2315 87.7028C10.1889 87.7028 10.1401 87.6906 10.0974 87.6722C9.94504 87.5987 9.88408 87.415 9.95723 87.2619C10.134 86.8884 10.3474 86.521 10.579 86.1658C10.6704 86.0249 10.8594 85.9882 10.9996 86.0801C11.1398 86.1719 11.1825 86.3617 11.085 86.5026C10.8655 86.8394 10.6704 87.1823 10.4998 87.5313C10.451 87.6355 10.3474 87.7028 10.2315 87.7028ZM11.9628 85.1921C11.8896 85.1921 11.8165 85.1676 11.7555 85.1125C11.6336 84.9962 11.6214 84.8063 11.7372 84.6778C12.0115 84.3777 12.3102 84.0838 12.6211 83.796C12.7491 83.6857 12.9381 83.6918 13.0539 83.8143C13.1698 83.9368 13.1576 84.1328 13.0356 84.2491C12.7369 84.5247 12.4504 84.8064 12.1883 85.0942C12.1274 85.1615 12.042 85.1921 11.9628 85.1921ZM14.2487 83.1775C14.1512 83.1775 14.0598 83.1346 13.9988 83.0489C13.9013 82.9142 13.9317 82.7182 14.0658 82.6202C14.395 82.3814 14.7425 82.1487 15.096 81.9283C15.2424 81.8364 15.4252 81.8854 15.5167 82.0262C15.6081 82.1671 15.5593 82.3569 15.4191 82.4488C15.0717 82.6631 14.7364 82.8897 14.4194 83.1162C14.3706 83.1591 14.3097 83.1775 14.2487 83.1775ZM16.8578 81.5976C16.748 81.5976 16.6383 81.5363 16.5834 81.4322C16.5103 81.2792 16.5652 81.0954 16.7176 81.022C17.0833 80.8383 17.4552 80.6607 17.8331 80.4892C17.9855 80.4219 18.1684 80.4892 18.2354 80.6423C18.3025 80.7954 18.2354 80.9791 18.083 81.0465C17.7112 81.2118 17.3515 81.3833 16.998 81.567C16.9492 81.5853 16.9004 81.5976 16.8578 81.5976ZM19.6497 80.3851C19.5278 80.3851 19.4058 80.3055 19.3632 80.183C19.3083 80.0238 19.3875 79.8462 19.546 79.7911C19.9301 79.6503 20.3202 79.5156 20.7103 79.3931C20.8688 79.3441 21.0395 79.4298 21.0944 79.5952C21.1432 79.7544 21.0578 79.9258 20.8932 79.981C20.5092 80.1034 20.1251 80.232 19.7533 80.3729C19.7228 80.379 19.6862 80.3851 19.6497 80.3851ZM22.5635 79.4911C22.4294 79.4911 22.3014 79.3992 22.2709 79.2584C22.2282 79.093 22.3258 78.9277 22.4903 78.8848C22.8073 78.8052 23.1304 78.7256 23.4596 78.6583C23.6242 78.6215 23.7888 78.7256 23.8253 78.891C23.8619 79.0563 23.7583 79.2216 23.5937 79.2584C23.2767 79.3257 22.9597 79.4053 22.6427 79.4849C22.6123 79.4849 22.5879 79.4911 22.5635 79.4911Z" fill="#172328"/>
<path d="M31.4208 104.052C31.0063 104.052 30.5979 104.04 30.1895 104.027C30.0188 104.021 29.8908 103.88 29.8969 103.709C29.903 103.538 30.0493 103.397 30.2139 103.415C30.6162 103.427 31.0185 103.44 31.4208 103.44C31.5915 103.44 31.7256 103.58 31.7256 103.746C31.7256 103.917 31.5915 104.052 31.4208 104.052ZM33.2496 104.021C33.085 104.021 32.9509 103.893 32.9448 103.727C32.9387 103.556 33.0667 103.415 33.2374 103.409C33.6397 103.391 34.0421 103.366 34.4444 103.342C34.6151 103.329 34.7614 103.458 34.7736 103.623C34.7858 103.795 34.6577 103.942 34.4932 103.954C34.0847 103.985 33.6763 104.009 33.2679 104.027C33.2618 104.021 33.2557 104.021 33.2496 104.021ZM28.379 103.911C28.3729 103.911 28.3607 103.911 28.3546 103.911C27.9462 103.874 27.5378 103.832 27.1293 103.789C26.9648 103.77 26.8428 103.617 26.8611 103.446C26.8794 103.28 27.0318 103.158 27.2025 103.176C27.6048 103.225 28.001 103.268 28.4034 103.299C28.568 103.311 28.696 103.464 28.6777 103.629C28.6716 103.795 28.5375 103.911 28.379 103.911ZM36.2853 103.77C36.1329 103.77 36.0049 103.654 35.9805 103.501C35.9623 103.335 36.0781 103.182 36.2427 103.158C36.645 103.109 37.0412 103.054 37.4375 102.986C37.602 102.962 37.7605 103.072 37.7849 103.244C37.8093 103.409 37.6996 103.568 37.5289 103.593C37.1266 103.654 36.7181 103.715 36.3097 103.764C36.3158 103.764 36.3036 103.77 36.2853 103.77ZM25.3554 103.525C25.3372 103.525 25.3189 103.525 25.3067 103.519C24.8983 103.452 24.4959 103.372 24.0997 103.293C23.9351 103.256 23.8315 103.097 23.8619 102.931C23.8985 102.766 24.057 102.662 24.2216 102.693C24.6117 102.772 25.008 102.852 25.4103 102.919C25.5749 102.95 25.6907 103.103 25.6602 103.274C25.6298 103.421 25.5017 103.525 25.3554 103.525ZM39.2906 103.262C39.1504 103.262 39.0224 103.164 38.9919 103.017C38.9553 102.852 39.0651 102.686 39.2296 102.656C39.6259 102.57 40.016 102.478 40.4061 102.38C40.5646 102.337 40.7353 102.435 40.778 102.601C40.8207 102.766 40.7231 102.931 40.5585 102.974C40.1623 103.072 39.7661 103.17 39.3577 103.256C39.3333 103.256 39.315 103.262 39.2906 103.262ZM22.3746 102.876C22.3502 102.876 22.3197 102.87 22.2953 102.864C21.8991 102.76 21.5028 102.644 21.1127 102.521C20.9542 102.472 20.8628 102.301 20.9115 102.135C20.9603 101.976 21.131 101.884 21.2956 101.933C21.6796 102.05 22.0637 102.166 22.4538 102.27C22.6184 102.313 22.7159 102.478 22.6672 102.644C22.6367 102.784 22.5087 102.876 22.3746 102.876ZM42.241 102.478C42.113 102.478 41.9911 102.392 41.9484 102.264C41.8996 102.105 41.985 101.933 42.1496 101.878C42.5336 101.756 42.9176 101.627 43.2895 101.486C43.448 101.431 43.6248 101.511 43.6796 101.67C43.7345 101.829 43.6552 102.007 43.4968 102.062C43.1127 102.203 42.7226 102.337 42.3324 102.46C42.302 102.478 42.2715 102.478 42.241 102.478ZM19.4729 101.945C19.4363 101.945 19.3998 101.939 19.3632 101.927C18.9731 101.78 18.5951 101.627 18.2233 101.462C18.0709 101.394 17.9977 101.217 18.0648 101.058C18.1318 100.904 18.3086 100.831 18.4671 100.898C18.8329 101.058 19.2047 101.211 19.5826 101.351C19.7411 101.413 19.8204 101.59 19.7594 101.743C19.7107 101.872 19.5948 101.945 19.4729 101.945ZM45.0878 101.394C44.972 101.394 44.8622 101.327 44.8074 101.211C44.7403 101.058 44.8074 100.874 44.9598 100.806C45.3316 100.641 45.6913 100.464 46.0448 100.286C46.1972 100.212 46.3801 100.268 46.4533 100.421C46.5325 100.574 46.4715 100.757 46.3191 100.831C45.9534 101.015 45.5815 101.198 45.2036 101.364C45.1731 101.388 45.1305 101.394 45.0878 101.394ZM16.6932 100.69C16.6444 100.69 16.5957 100.678 16.553 100.653C16.2909 100.513 16.0349 100.372 15.7788 100.225C15.6325 100.139 15.5838 99.9553 15.6691 99.8083C15.7544 99.6613 15.9373 99.6123 16.0836 99.6981C16.3275 99.8389 16.5774 99.9798 16.8334 100.114C16.9797 100.194 17.0407 100.378 16.9614 100.531C16.9127 100.635 16.8029 100.69 16.6932 100.69ZM47.7761 99.9614C47.6724 99.9614 47.5749 99.9124 47.52 99.8144C47.4286 99.6736 47.4774 99.4837 47.6176 99.3919C47.965 99.1714 48.3003 98.951 48.6112 98.7244C48.7514 98.6264 48.9404 98.6571 49.0379 98.7918C49.1354 98.9265 49.105 99.1225 48.9708 99.2204C48.6417 99.4593 48.3003 99.6858 47.9406 99.9124C47.8919 99.9491 47.8309 99.9614 47.7761 99.9614ZM50.2144 98.1304C50.1291 98.1304 50.0498 98.0998 49.9889 98.0325C49.873 97.91 49.8852 97.714 50.0071 97.5977C50.3058 97.3221 50.5924 97.0404 50.8484 96.7526C50.9642 96.624 51.1532 96.6179 51.2812 96.7343C51.4031 96.8506 51.4153 97.0404 51.2995 97.169C51.0252 97.4691 50.7326 97.7691 50.4156 98.0508C50.3607 98.0998 50.2876 98.1304 50.2144 98.1304ZM52.1956 95.8157C52.1407 95.8157 52.0797 95.7973 52.031 95.7667C51.8908 95.6749 51.8481 95.485 51.9395 95.3442C52.159 95.0074 52.3541 94.6584 52.5186 94.3154C52.5918 94.1623 52.7747 94.1011 52.9271 94.1746C53.0795 94.2481 53.1404 94.4318 53.0673 94.5849C52.8905 94.9523 52.6832 95.3258 52.4516 95.6871C52.3906 95.7667 52.2931 95.8157 52.1956 95.8157ZM53.4025 93.0234C53.3782 93.0234 53.3538 93.0233 53.3355 93.0172C53.1709 92.9805 53.0673 92.8152 53.1039 92.6498C53.1892 92.264 53.2502 91.8721 53.2745 91.4863C53.2867 91.3149 53.433 91.1924 53.5976 91.1985C53.7683 91.2108 53.8902 91.3577 53.8841 91.5231C53.8597 91.9395 53.7927 92.3681 53.7012 92.7845C53.6647 92.9254 53.5428 93.0234 53.4025 93.0234ZM53.4757 89.9799C53.3294 89.9799 53.2014 89.8758 53.177 89.7289C53.1099 89.3492 53.0063 88.9634 52.8783 88.5899C52.8234 88.4306 52.9088 88.2531 53.0673 88.198C53.2258 88.1428 53.3965 88.2286 53.4574 88.3878C53.5976 88.7919 53.7073 89.2084 53.7805 89.6186C53.811 89.784 53.7012 89.9432 53.5367 89.9738C53.5123 89.9799 53.494 89.9799 53.4757 89.9799ZM52.3967 87.1386C52.2931 87.1386 52.1895 87.0835 52.1346 86.9916C51.9395 86.6609 51.714 86.3303 51.4702 86.0057C51.3665 85.871 51.3909 85.6812 51.525 85.5771C51.6591 85.473 51.8481 85.5036 51.9517 85.6322C52.2078 85.969 52.4455 86.3241 52.6528 86.6732C52.7381 86.8201 52.6893 87.0038 52.5491 87.0957C52.5004 87.1263 52.4455 87.1386 52.3967 87.1386ZM50.4948 84.7565C50.4156 84.7565 50.3424 84.7259 50.2815 84.6708C50.0071 84.4013 49.7085 84.1319 49.3915 83.8686C49.2635 83.7583 49.2452 83.5685 49.3488 83.4399C49.4585 83.3113 49.6475 83.293 49.7755 83.3971C50.1047 83.6665 50.4156 83.9482 50.7021 84.2299C50.824 84.3462 50.824 84.5422 50.7082 84.6646C50.6533 84.7259 50.5741 84.7565 50.4948 84.7565ZM48.1113 82.8521C48.0565 82.8521 47.9955 82.8337 47.9467 82.8031C47.6237 82.5887 47.2823 82.3744 46.9226 82.1723C46.7763 82.0866 46.7276 81.9029 46.8129 81.7559C46.8982 81.609 47.0811 81.56 47.2274 81.6457C47.5932 81.86 47.9467 82.0743 48.282 82.3009C48.4222 82.3928 48.4588 82.5826 48.3674 82.7235C48.3064 82.8031 48.215 82.8521 48.1113 82.8521Z" fill="#172328"/>
<path d="M31.5732 97.6776C28.6594 97.6776 25.7456 97.0346 23.5206 95.7425C21.3078 94.4565 20.0886 92.7358 20.0886 90.8987C20.0886 89.1168 21.2346 87.4511 23.3194 86.1958V83.5872H23.929V86.551L23.7766 86.6367C21.7954 87.7879 20.6982 89.3005 20.6982 90.8987C20.6982 92.5154 21.8076 94.0463 23.8254 95.2159C28.0864 97.6898 34.9991 97.702 39.2296 95.2465L39.5344 95.7792C37.346 97.0407 34.4627 97.6776 31.5732 97.6776Z" fill="#172328"/>
<path d="M36.4438 79.239C36.4438 87.0772 31.2684 93.2253 31.2684 93.2253C31.2684 93.2253 26.093 87.0772 26.093 79.239C26.093 75.6139 28.4095 72.6807 31.2684 72.6807C34.1274 72.6807 36.4438 75.6139 36.4438 79.239Z" fill="#172328"/>
<path d="M41.6741 58.0521L50.9703 63.0244V56.7294C50.9703 55.8476 50.8057 55.0699 50.4826 54.4575L46.4654 46.7847C45.5998 45.1313 43.7345 44.8435 41.6741 46.0315V58.0521Z" fill="#88A2FF"/>
<path d="M20.6555 58.0526L11.3593 63.0249V56.7299C11.3593 55.8481 11.5239 55.0704 11.847 54.458L15.8642 46.7852C16.7298 45.1318 18.5951 44.844 20.6555 46.0319V58.0526Z" fill="#B8C9FF"/>
<path d="M35.5904 70.8188H26.7392V72.0742C26.7392 72.0864 26.7392 72.0987 26.7392 72.1109C26.7392 73.5377 28.7203 74.7012 31.1648 74.7012C33.6092 74.7012 35.5904 73.5439 35.5904 72.1109C35.5904 72.0987 35.5904 72.0864 35.5904 72.0742V70.8188Z" fill="#1C2242"/>
<path d="M41.735 59.6985H20.5945V66.0058H20.6006C20.6006 66.0364 20.5945 66.0609 20.5945 66.0915C20.5945 69.5085 25.3249 72.2764 31.1648 72.2764C37.0046 72.2764 41.735 69.5085 41.735 66.0915C41.735 66.0609 41.735 66.0364 41.7289 66.0058H41.735V59.6985Z" fill="#2D3562"/>
<path d="M47.6907 39.9503C48.7636 30.9486 46.6849 21.7939 41.5644 14.3353C41.351 14.023 41.1315 13.7107 40.906 13.4045L31.1648 0L21.4236 13.4045C21.198 13.7107 20.9786 14.023 20.7652 14.3353C15.6386 21.7939 13.566 30.9486 14.6389 39.9503L17.126 60.8502H17.1321C17.1321 60.8869 17.126 60.9236 17.126 60.9665C17.126 65.5041 23.4108 69.1783 31.1648 69.1783C38.9187 69.1783 45.2036 65.5041 45.2036 60.9665C45.2036 60.9298 45.1975 60.893 45.1975 60.8502H45.2036L47.6907 39.9503Z" fill="#4368E9"/>
<path d="M29.0495 36.2029C28.5558 23.7781 29.2446 11.1757 31.0916 0.0981445L21.4236 13.4047C21.198 13.7109 20.9786 14.0232 20.7652 14.3355C15.6386 21.794 13.566 30.9488 14.6389 39.9505L17.126 60.8503H17.1321C17.1321 60.8871 17.126 60.9238 17.126 60.9667C17.126 65.345 22.9841 68.9212 30.3662 69.1662L29.0495 36.2029Z" fill="#E8EEFC"/>
<path d="M29.0374 45.4987C29.0374 47.446 28.3668 48.83 27.2817 49.4975C27.2513 49.5158 26.2333 50.1649 26.2028 50.1833C25.0689 50.8201 25.7944 49.375 24.0753 48.3768C20.6129 46.3683 17.8088 41.5062 17.8088 37.5136C17.8088 35.5418 15.9922 35.5234 17.1077 34.8682C17.1382 34.8498 18.3696 34.1701 18.4001 34.1517C19.5278 33.5394 21.0761 33.6496 22.7769 34.6355C26.2333 36.6501 29.0374 41.5123 29.0374 45.4987Z" fill="#3754E0"/>
<path d="M25.9957 50.2675C28.4284 48.8388 28.4032 44.2487 25.9394 40.0152C23.4757 35.7817 19.5063 33.508 17.0736 34.9366C14.6409 36.3653 14.6661 40.9554 17.1299 45.1889C19.5937 49.4224 23.563 51.6961 25.9957 50.2675Z" fill="#819CFF"/>
<path d="M26.6234 45.5536C26.6234 48.793 24.3435 50.0973 21.5334 48.4684C18.7232 46.8396 16.4433 42.8898 16.4433 39.6505C16.4433 36.4111 18.7232 35.1068 21.5334 36.7356C24.3435 38.3645 26.6234 42.3142 26.6234 45.5536Z" fill="#5278FF"/>
<path d="M22.533 48.0458C19.7228 46.417 17.443 42.4672 17.443 39.2278C17.443 37.7337 17.9306 36.6559 18.7231 36.0803C17.3454 36.3314 16.4371 37.6051 16.4371 39.6504C16.4371 42.8898 18.717 46.8395 21.5272 48.4684C23.0451 49.3502 24.4045 49.3746 25.3371 48.7011C24.5386 48.848 23.5754 48.6459 22.533 48.0458Z" fill="#3754E0"/>
<path opacity="0.5" d="M21.7162 35.2171C20.0581 34.2557 18.3391 34.3169 17.5466 34.6966C18.589 34.4027 20.0703 34.5802 21.4724 35.3947C24.9348 37.4032 27.7389 42.2654 27.7389 46.2579C27.7389 48.3338 26.7941 49.8096 25.581 50.4159C26.8611 49.9382 27.9828 48.4502 27.9828 46.0742C27.9889 42.0878 25.1787 37.2256 21.7162 35.2171Z" fill="white"/>
<path d="M20.7591 66.6799L13.3587 80.9111L11.8652 80.0232V73.9976C11.8652 73.1525 12.0237 72.2279 12.3346 71.2787L16.175 59.4785C17.0041 56.9372 18.7902 54.5858 20.7591 53.4407L22.1978 54.3163L20.7591 66.6799Z" fill="#B8C9FF"/>
<path d="M22.2587 67.5676L13.3648 80.9109V74.8853C13.3648 74.0402 13.5233 73.1156 13.8342 72.1664L17.6746 60.3662C18.5037 57.8249 20.2897 55.4735 22.2587 54.3284V67.5676Z" fill="#8FA6EC"/>
<path opacity="0.5" d="M13.4929 75.0505C13.4929 74.2054 13.6514 73.2807 13.9623 72.3316L17.8027 60.5314C18.5951 58.1065 20.2593 55.8469 22.1246 54.6589V54.2976C20.1557 55.4366 18.3635 57.7942 17.5405 60.3355L13.7001 72.1356C13.3953 73.0787 13.2308 74.0095 13.2308 74.8545V80.8801L13.4929 80.4882V75.0505Z" fill="white"/>
<path d="M41.5704 66.6801L48.9708 80.9114L50.4643 80.0234V73.9978C50.4643 73.1528 50.3058 72.2281 49.9949 71.279L46.1545 59.4788C45.3255 56.9375 43.5394 54.586 41.5704 53.4409L40.1318 54.3166L41.5704 66.6801Z" fill="#345FF8"/>
<path d="M40.077 67.5676L48.9709 80.9109V74.8853C48.9709 74.0402 48.8124 73.1156 48.5015 72.1664L44.6611 60.3662C43.832 57.8249 42.0459 55.4735 40.077 54.3284V67.5676Z" fill="#6990FF"/>
<path opacity="0.5" d="M48.6965 72.1664L44.8561 60.3662C44.0271 57.8249 42.241 55.4735 40.272 54.3284V54.4018C42.052 55.6266 43.6308 57.8066 44.3928 60.1397L48.2332 71.9398C48.538 72.8829 48.7026 73.8136 48.7026 74.6587V80.2067L49.1659 80.9048V74.8792C49.1659 74.0402 49.0074 73.1156 48.6965 72.1664Z" fill="white"/>
<path d="M40.906 13.4045L31.1648 0L21.4236 13.4045C21.3687 13.478 21.3199 13.5576 21.2651 13.6311C22.9475 15.8479 26.7452 17.3971 31.1648 17.3971C35.5843 17.3971 39.382 15.8479 41.0645 13.6311C41.0096 13.5576 40.9608 13.478 40.906 13.4045Z" fill="#4D72F3"/>
<path d="M21.4236 13.4049C21.3687 13.4784 21.3199 13.5519 21.2651 13.6315C22.6976 15.5176 25.6541 16.9138 29.2141 17.2934C29.5615 11.329 30.1894 5.53 31.0916 0.104492L21.4236 13.4049Z" fill="#5278FF"/>
<path d="M22.6367 85.6326C22.5879 85.6326 22.5391 85.6203 22.4904 85.5958C22.3441 85.5162 22.2892 85.3325 22.3684 85.1794L23.3499 83.3607C23.4047 83.2627 23.5145 83.177 23.6181 83.2015C23.7278 83.2015 23.8315 83.2627 23.8863 83.3607L24.8799 85.1488C24.9592 85.2958 24.9104 85.4856 24.7641 85.5652C24.6178 85.6448 24.4289 85.5958 24.3496 85.4489L23.6242 84.1507L22.911 85.4795C22.85 85.5713 22.7464 85.6326 22.6367 85.6326Z" fill="#172328"/>
<path d="M40.016 95.8159C39.3089 95.8159 38.7298 95.4791 38.7298 95.0688C38.7298 94.6586 39.3028 94.3279 40.0099 94.3279C40.717 94.3279 41.2961 94.6647 41.2961 95.075C41.3022 95.4852 40.7292 95.8159 40.016 95.8159Z" fill="#172328"/>
</svg>
