<svg viewBox="0 0 98 85" fill="none" xmlns="http://www.w3.org/2000/svg">
<path d="M97.7638 37.31C97.7482 37.038 97.509 36.8298 97.2378 36.8469C84.9658 37.6285 81.4566 41.3239 77.744 45.2325C76.0706 46.9948 74.3393 48.8176 71.699 50.4689C63.6271 55.5135 58.5082 49.8916 58.2951 49.6498L57.2783 50.5433C57.32 50.5914 60.2967 53.8973 65.2081 53.8973C67.289 53.8973 69.717 53.3036 72.416 51.6164C75.2025 49.8744 76.9935 47.9887 78.7256 46.1651C82.4023 42.2933 85.584 38.9433 97.3211 38.1969C97.5898 38.1806 97.7997 37.9511 97.7842 37.6824L97.7638 37.31Z" fill="#080D13"/>
<path d="M72.3367 51.5561L71.7512 50.6186C71.618 50.4054 71.3379 50.3442 71.1215 50.4716C63.5339 54.9379 58.7433 49.708 58.5399 49.4785L57.0152 50.8195C57.0585 50.8693 60.139 54.2903 65.2031 54.2903C67.2334 54.2903 69.5821 53.7407 72.1807 52.2037C72.4037 52.0714 72.4747 51.7758 72.3367 51.5561Z" fill="#172328"/>
<path d="M35.3493 26.7364L31.2782 29.0859C27.6538 31.179 24.7155 36.2677 24.7155 40.4523L24.7163 51.4969C24.7163 52.178 25.194 52.4548 25.7845 52.1143L35.3493 46.592C38.9736 44.4997 41.9112 39.4102 41.9112 35.2256V30.5249C41.9112 26.3403 38.9736 24.6433 35.3493 26.7364Z" fill="#172328"/>
<path d="M24.7377 51.5092L24.7369 40.4646C24.7369 36.28 27.6753 31.1914 31.2996 29.0983L35.3707 26.7487C36.9632 25.8292 38.4226 25.6413 39.5594 26.075L28.5507 19.7654C28.367 19.6298 28.1693 19.5155 27.9603 19.4232L27.957 19.4216V19.4224C26.8006 18.9153 25.2849 19.0761 23.6246 20.0349L19.5535 22.3853C15.9291 24.4776 12.9916 29.5662 12.9916 33.7516V44.7954C12.9916 45.1098 13.0961 45.3328 13.2635 45.4537L13.2627 45.4586L13.2848 45.4716L13.328 45.4961L25.164 52.2442C24.9068 52.1675 24.7377 51.9119 24.7377 51.5092Z" fill="#BAC8E8"/>
<path d="M87.4864 15.081C87.4864 12.2847 85.524 8.88493 83.1026 7.4868C81.9217 6.8057 80.8526 6.72975 80.0646 7.15033L80.0629 7.14789L80.0343 7.16503L79.9706 7.20178L67.3033 14.4685C68.0947 14.025 69.18 14.0953 70.3789 14.787C72.8003 16.1851 74.7636 19.5849 74.7636 22.3804C74.7636 23.7687 74.2785 24.7454 73.4953 25.2077L86.1422 17.9761L86.1291 17.9532C86.9638 17.5138 87.4864 16.5199 87.4864 15.081Z" fill="#D8E0F2"/>
<path d="M74.7778 22.3541C74.7778 19.5586 72.8145 16.1589 70.3931 14.7607C68.7973 13.8395 67.4057 14.0233 66.6381 15.0515L66.6348 15.0449L66.545 15.1748L66.536 15.1887L64.2885 18.4365V18.4725L68.4339 25.8633L72.4887 25.4844L72.4862 25.4811C73.8509 25.4109 74.7778 24.2749 74.7778 22.3541Z" fill="#E8EEFC"/>
<path d="M86.1339 18.0051C86.9685 17.5657 87.4912 16.5718 87.4912 15.1328C87.4912 14.4199 87.3622 13.6677 87.1319 12.9197C83.452 15.8548 79.0665 18.8756 74.5854 20.8854C74.703 21.4106 74.7683 21.9316 74.7683 22.4322C74.7683 23.8205 74.2832 24.7973 73.5 25.2595L86.1469 18.0279L86.1339 18.0051Z" fill="#C0C9DF"/>
<path d="M69.8855 23.7297C69.8855 21.7713 68.511 19.3899 66.8148 18.4107C65.7695 17.8072 64.8466 17.8791 64.2921 18.4802L64.2913 18.4785L57.2304 22.4565C57.7776 22.1895 58.5069 22.2507 59.3105 22.7146C61.0067 23.6946 62.3819 26.076 62.3819 28.0344C62.3819 29.007 62.0422 29.6922 61.4926 30.0156V30.0164L68.9651 25.7281L69.0043 25.706L69.0443 25.6832L69.0419 25.6799C69.5637 25.3451 69.8855 24.6746 69.8855 23.7297Z" fill="#4C5659"/>
<path d="M68.9617 25.7576L69.0009 25.7356L69.0409 25.7127L69.0385 25.7094C69.5603 25.3746 69.8821 24.7041 69.8821 23.7592C69.8821 23.1671 69.7547 22.5359 69.5326 21.916C67.7384 23.3101 65.2916 24.8234 62.0176 26.1896C62.2471 26.8193 62.3786 27.4612 62.3786 28.0639C62.3786 29.0365 62.0388 29.7217 61.4892 30.0451V30.0459L68.9617 25.7576Z" fill="#172328"/>
<path d="M14.0848 23.0668C11.1088 23.106 3.33497 25.4825 1.15855 28.9942C0.994404 29.2604 0.862114 29.5324 0.765747 29.81C1.69103 27.7308 3.39787 26.5099 5.65187 26.4805C12.0635 26.3972 19.1612 28.5213 26.3625 32.679L34.7954 29.2653C27.5949 25.1077 20.4964 22.9835 14.0848 23.0668Z" fill="#E8EEFC"/>
<path d="M5.66361 26.5121C2.18787 26.5579 0 29.4227 0 33.9299C0 38.5955 2.34139 44.1897 6.00333 48.2747L6.27937 48.5825C12.2982 55.298 18.8593 60.7648 25.5012 64.5998L26.3743 32.7106C19.1729 28.553 12.0753 26.4288 5.66361 26.5121Z" fill="#6D8DFF"/>
<path d="M60.7139 2.90934L56.4166 0.382568L56.2255 4.33198L60.7139 2.90934Z" fill="#6D8DFF"/>
<path d="M57.1957 2.38685C57.2031 0.635101 56.1855 -0.308969 54.722 0.0911976L33.4086 5.92383C31.8562 6.34931 30.2343 8.16476 29.5564 10.2358L18.3273 44.8633L23.05 47.6261L24.9602 43.0479L33.6814 16.0946C34.3584 14.0235 35.9803 12.2073 37.5328 11.7826L48.058 8.90222C49.5215 8.50123 50.539 9.44612 50.5317 11.1979L50.477 23.9583L55.1998 26.7219L57.1099 22.1428L57.1957 2.38685Z" fill="#6D8DFF"/>
<path d="M61.9329 5.16231C61.9402 3.40974 60.9226 2.46568 59.4592 2.86666L38.1458 8.6993C36.5933 9.12396 34.9714 10.9394 34.2936 13.0113L23.0644 47.638L29.6974 45.8225L38.4186 18.8693C39.0956 16.7982 40.7175 14.9819 42.27 14.5573L52.7952 11.6769C54.2586 11.2767 55.277 12.2208 55.2689 13.9725L55.2141 26.7337L61.8479 24.9183L61.9329 5.16231Z" fill="#4368E9"/>
<path d="M65.454 42.3677C65.9031 42.4265 66.3213 42.5376 66.701 42.7148C66.701 42.7148 66.7394 41.6033 65.4564 40.6291C65.4483 40.3555 65.4376 40.0843 65.4221 39.8173C66.2151 39.7275 66.9452 39.7642 67.5896 39.9586C67.5896 39.9586 67.534 38.4412 65.209 37.6727C65.1314 37.1525 65.0342 36.6519 64.9256 36.1635C65.4287 36.0451 65.9113 35.9822 66.3646 35.9888C66.3646 35.9888 66.1596 35.0488 64.545 34.7107C64.4748 34.4828 64.398 34.2615 64.3196 34.041C65.1657 33.6702 65.9717 33.4293 66.7198 33.3509C66.7198 33.3509 66.3196 32.1022 63.5977 32.3285C63.3968 31.925 63.1836 31.5379 62.9542 31.1704C63.4785 30.8838 63.9913 30.6518 64.4887 30.4877C64.4887 30.4877 64.0518 29.7764 62.2045 30.0998C62.0762 29.9364 61.948 29.7756 61.8133 29.6212C62.6569 28.9956 63.4858 28.4926 64.287 28.1479C64.287 28.1479 63.5675 27.2529 60.6348 28.4607C60.3253 28.1986 60.0019 27.9577 59.6679 27.7355C60.1799 27.2986 60.6912 26.9107 61.2008 26.5865C61.2008 26.5865 60.5621 26.1545 58.6062 27.1189C58.4298 27.0299 58.2518 26.9466 58.0705 26.8674C58.8561 26.0263 59.6532 25.2945 60.456 24.7049C60.456 24.7049 59.467 24.2247 56.5245 26.3317C56.1284 26.2271 55.7217 26.1447 55.3061 26.0834C55.7675 25.5273 56.2403 25.0128 56.7254 24.5514C56.7254 24.5514 55.9316 24.4288 54.0133 25.9568C53.7993 25.9478 53.5829 25.9462 53.3657 25.9478C54.0353 24.954 54.7426 24.0467 55.4874 23.2561C55.4874 23.2561 54.2983 23.2234 51.551 26.0801C51.0945 26.1414 50.6323 26.2182 50.1619 26.3227C50.5408 25.689 50.9418 25.0846 51.3673 24.5211C51.3673 24.5211 50.4689 24.7155 48.7066 26.7163C48.4722 26.7882 48.2378 26.8617 48.0002 26.9442C48.5114 25.8629 49.0823 24.8396 49.7209 23.8996C49.7209 23.8996 48.411 24.317 46.0426 27.7323C45.5559 27.9544 45.0634 28.2043 44.5685 28.4697C44.8438 27.7927 45.1492 27.1328 45.4914 26.4975C45.4914 26.4975 44.5489 26.9973 43.0634 29.3354C42.8225 29.484 42.5824 29.6351 42.3439 29.7903C42.6616 28.6918 43.0585 27.6196 43.5493 26.5922C43.5493 26.5922 42.2076 27.4301 40.3799 31.1713C39.8907 31.542 39.4088 31.9332 38.9311 32.335C39.0805 31.667 39.2667 31.003 39.4987 30.3456C39.4987 30.3456 38.5824 31.1116 37.4831 33.6098C37.2496 33.8254 37.0193 34.0476 36.7898 34.2705C36.8919 33.2342 37.0862 32.1913 37.3925 31.1508C37.3925 31.1508 36.1103 32.3538 34.9457 36.1684C34.4966 36.6592 34.054 37.1615 33.6211 37.6768C33.635 37.0635 33.6905 36.4388 33.7967 35.8034C33.7967 35.8034 32.9629 36.7883 32.3185 39.2938C32.1136 39.5601 31.9094 39.8263 31.7093 40.0974C31.5893 39.1925 31.568 38.2485 31.6701 37.2636C31.6701 37.2636 30.5349 38.7499 30.1152 42.3792C29.733 42.9566 29.363 43.5429 29.0029 44.1366C28.8804 43.6172 28.8003 43.0725 28.775 42.4984C28.775 42.4984 28.0808 43.6369 27.9379 45.9782C27.7738 46.2763 27.6121 46.576 27.4528 46.8766C27.1172 46.1628 26.882 45.3788 26.7725 44.5148C26.7725 44.5148 25.862 46.1824 26.2164 49.3756C25.9273 49.9995 25.6529 50.6275 25.3916 51.2596C25.1409 50.8709 24.9318 50.4454 24.775 49.9758C24.775 49.9758 24.2719 51.182 24.6361 53.1878C24.5218 53.5006 24.4116 53.8141 24.3046 54.1269C23.7786 53.6565 23.3458 53.0906 23.0338 52.4103C23.0338 52.4103 22.4107 54.1433 23.5116 56.6798C23.336 57.3087 23.1719 57.9367 23.0273 58.5639C22.668 58.3336 22.3454 58.0567 22.0694 57.7243C22.0694 57.7243 21.7884 58.924 22.6402 60.4675C22.5855 60.7697 22.5316 61.0719 22.4842 61.3732C21.8031 61.1756 21.2029 60.8636 20.708 60.4112C20.708 60.4112 20.414 62.0943 22.1878 63.8044C22.138 64.3957 22.1078 64.9812 22.0898 65.5635C21.6406 65.5055 21.2225 65.3937 20.8427 65.2173C20.8427 65.2173 20.8043 66.3287 22.0873 67.3022C22.0955 67.5766 22.1061 67.8469 22.1216 68.114C21.3287 68.2046 20.5994 68.1679 19.9542 67.9735C19.9542 67.9735 20.0097 69.4901 22.3356 70.2586C22.4124 70.7796 22.5095 71.2794 22.6182 71.7686C22.1151 71.8862 21.6333 71.9499 21.1792 71.9433C21.1792 71.9433 21.3842 72.8833 22.9987 73.2206C23.069 73.4493 23.1457 73.6706 23.2241 73.8911C22.3781 74.261 21.572 74.5028 20.8239 74.5812C20.8239 74.5812 21.2241 75.8298 23.9461 75.6028C24.147 76.0062 24.3601 76.3942 24.5896 76.7617C24.0661 77.0475 23.5524 77.2803 23.0551 77.4444C23.0551 77.4444 23.492 78.1549 25.3393 77.8323C25.4675 77.9948 25.5957 78.1565 25.7305 78.3101C24.8869 78.9356 24.0588 79.4387 23.2568 79.7833C23.2568 79.7833 23.9763 80.6792 26.9089 79.4706C27.2185 79.7327 27.5419 79.9744 27.8759 80.1966C27.3638 80.6335 26.8526 81.0214 26.343 81.3448L26.8485 81.598C27.2528 81.5857 27.96 81.295 28.9375 80.8132C29.1139 80.9022 29.292 80.9855 29.4733 81.0639C28.6876 81.905 27.8906 82.6376 27.0878 83.2264L27.5941 83.4796C28.1584 83.4191 29.2422 82.8728 31.0192 81.6004C31.4153 81.7041 31.822 81.7866 32.2377 81.8487C31.7763 82.4048 31.3034 82.9193 30.8183 83.3799L31.3238 83.6331C31.7518 83.5008 32.4574 82.8295 33.5305 81.9744C33.7444 81.9834 33.9608 81.9851 34.1781 81.9834C33.5084 82.9773 32.8012 83.8854 32.0564 84.676L32.5619 84.9283C33.1107 84.734 34.1405 83.7785 35.9927 81.852C36.4492 81.7907 36.9115 81.7131 37.3827 81.6086C37.0029 82.2423 36.602 82.8467 36.1765 83.411L36.6828 83.6633C37.1116 83.4134 37.7869 82.4081 38.8372 81.2158C39.0716 81.1431 39.3067 81.0704 39.5436 80.9871C39.0323 82.0692 38.4615 83.0925 37.8229 84.0316L38.3292 84.2848C38.8886 83.914 39.9111 82.493 41.5011 80.1998C41.9879 79.9769 42.4803 79.7278 42.9752 79.4624C42.7 80.1394 42.3946 80.7993 42.0524 81.4346L42.5579 81.6878C42.9646 81.3358 43.5518 80.0577 44.4803 78.5959C44.7213 78.4481 44.9613 78.297 45.1998 78.141C44.8821 79.2402 44.4852 80.3117 43.9944 81.3391L44.5008 81.5922C45.0112 81.1088 45.8858 79.3758 47.1639 76.76C47.6531 76.3893 48.1349 75.9981 48.6127 75.5971C48.464 76.2643 48.277 76.9291 48.0451 77.5865L48.5514 77.8397C48.8993 77.4379 49.315 76.0169 50.0614 74.3223C50.2942 74.1059 50.5245 73.8845 50.754 73.6616C50.6519 74.6971 50.4583 75.74 50.1513 76.7813L50.6576 77.0344C51.1174 76.4138 51.805 74.3623 52.598 71.7628C53.0472 71.272 53.4898 70.7706 53.9226 70.2553C53.9087 70.8686 53.8532 71.4925 53.747 72.1287L54.2526 72.3819C54.5335 71.9482 54.7654 70.426 55.2252 68.6375C55.4302 68.3721 55.6344 68.105 55.8344 67.8347C55.9545 68.7387 55.9757 69.6836 55.8736 70.6677L56.38 70.9209C56.7189 70.3329 57.1142 68.2749 57.4286 65.5529C57.8108 64.9747 58.1807 64.3883 58.5409 63.7946C58.6634 64.3148 58.7434 64.8596 58.7687 65.4329L59.2751 65.686C59.4899 65.1862 59.5086 63.5464 59.6058 61.9539C59.77 61.6558 59.9317 61.3561 60.0909 61.0555C60.4266 61.7685 60.6618 62.5525 60.7712 63.4165L61.2767 63.6697C61.5225 62.96 61.5699 60.7427 61.3274 58.5565C61.6165 57.9318 61.8909 57.3038 62.1522 56.6725C62.4029 57.0612 62.612 57.4867 62.7688 57.9563L63.2751 58.2094C63.4001 57.7325 63.1649 56.158 62.9076 54.7435C63.0228 54.4316 63.1322 54.1179 63.2392 53.8043C63.7651 54.2747 64.1979 54.8415 64.5099 55.5218L65.0162 55.7741C65.1412 55.2286 64.8994 53.2506 64.0321 51.2523C64.2077 50.6234 64.3719 49.9954 64.5164 49.3674C64.8758 49.5985 65.1992 49.8745 65.4744 50.2069C65.4744 50.2069 65.7553 49.0073 64.9035 47.4638C64.9583 47.1616 65.0122 46.8594 65.0595 46.5589C65.7406 46.7557 66.3409 47.0677 66.8358 47.5201C66.8358 47.5201 67.1298 45.8378 65.3552 44.1269C65.4058 43.5364 65.436 42.95 65.454 42.3677Z" fill="#9BCBD6"/>
<path d="M65.9802 42.6549C66.4293 42.7137 66.8475 42.8247 67.2264 43.0011C67.2264 43.0011 67.2656 41.8905 65.9818 40.9162C65.9744 40.6426 65.9638 40.3715 65.9483 40.1044C66.7405 40.0146 67.4706 40.0513 68.1149 40.2449C68.1149 40.2449 68.0602 38.7283 65.7343 37.9598C65.6576 37.4396 65.5604 36.939 65.451 36.4506C65.9548 36.3322 66.4367 36.2693 66.8907 36.2751C66.8907 36.2751 66.6849 35.3351 65.0712 34.9978C65.001 34.7691 64.9234 34.5478 64.8458 34.3281C65.6919 33.9574 66.4979 33.7156 67.246 33.638C67.246 33.638 66.845 32.3885 64.1239 32.6156C63.923 32.2121 63.7098 31.825 63.4795 31.4575C64.0038 31.1709 64.5175 30.9381 65.0149 30.7748C65.0149 30.7748 64.5779 30.0635 62.7298 30.3869C62.6024 30.2236 62.4734 30.0619 62.3395 29.9083C63.1831 29.2828 64.0112 28.7797 64.8131 28.4351C64.8131 28.4351 64.0937 27.5392 61.1602 28.7478C60.8507 28.4857 60.5281 28.2448 60.1941 28.0226C60.7053 27.5849 61.2174 27.1978 61.727 26.8736C61.727 26.8736 61.0883 26.4416 59.1316 27.4052C58.956 27.317 58.7771 27.2337 58.5967 27.1545C59.3823 26.3134 60.1786 25.5816 60.9813 24.992C60.9813 24.992 59.9923 24.5118 57.0507 26.6188C56.6546 26.5143 56.2479 26.4318 55.8314 26.3697C56.2937 25.8144 56.7665 25.2999 57.2516 24.8385C57.2516 24.8385 56.4578 24.716 54.5386 26.2439C54.3255 26.235 54.1091 26.2333 53.891 26.235C54.5615 25.2411 55.2687 24.3338 56.0135 23.5432C56.0135 23.5432 54.8237 23.5106 52.0772 26.3673C51.6207 26.4285 51.1585 26.5053 50.6872 26.6098C51.067 25.9761 51.468 25.3717 51.8935 24.8082C51.8935 24.8082 50.9951 25.0026 49.2328 27.0026C48.9976 27.0753 48.7632 27.1488 48.5255 27.2313C49.0376 26.1492 49.6076 25.1267 50.2471 24.1868C50.2471 24.1868 48.9371 24.6033 46.5688 28.0194C46.0821 28.2415 45.5896 28.4914 45.0939 28.7568C45.3691 28.079 45.6754 27.4191 46.0176 26.7838C46.0176 26.7838 45.0743 27.2836 43.5896 29.6225C43.3487 29.7711 43.1086 29.9222 42.8693 30.0774C43.1878 28.979 43.5847 27.9067 44.0747 26.8793C44.0747 26.8793 42.7337 27.7172 40.9052 31.4584C40.416 31.8291 39.9342 32.2203 39.4565 32.6221C39.6059 31.9541 39.7921 31.2901 40.0248 30.6319C40.0248 30.6319 39.1077 31.3987 38.0085 33.8969C37.7757 34.1125 37.5454 34.3347 37.3151 34.5576C37.418 33.5213 37.6116 32.4784 37.9179 31.4379C37.9179 31.4379 36.6365 32.6401 35.4719 36.4555C35.022 36.9464 34.5801 37.4486 34.1465 37.9639C34.1612 37.3506 34.2159 36.7259 34.3229 36.0897C34.3229 36.0897 33.4891 37.0754 32.8447 39.5809C32.6397 39.8472 32.4356 40.1134 32.2355 40.3845C32.1154 39.4797 32.0934 38.5356 32.1963 37.5507C32.1963 37.5507 31.0603 39.037 30.6405 42.6663C30.2591 43.2437 29.8884 43.83 29.529 44.4238C29.4065 43.9035 29.3265 43.3588 29.3004 42.7855C29.3004 42.7855 28.607 43.924 28.4641 46.2653C28.2991 46.5634 28.1374 46.8623 27.979 47.1637C27.6434 46.4499 27.4073 45.6659 27.2987 44.8019C27.2987 44.8019 26.3881 46.4695 26.7418 49.6627C26.4535 50.2866 26.1791 50.9146 25.9169 51.5459C25.667 51.1572 25.4571 50.7325 25.3003 50.2629C25.3003 50.2629 24.7973 51.4691 25.1615 53.4749C25.0472 53.7877 24.9377 54.1004 24.8299 54.414C24.3048 53.9436 23.872 53.3777 23.56 52.6974C23.56 52.6974 22.9369 54.4304 24.0378 56.9669C23.8622 57.5958 23.698 58.2238 23.5527 58.851C23.1942 58.6199 22.8708 58.3438 22.5956 58.0115C22.5956 58.0115 22.3146 59.2111 23.1656 60.7546C23.1109 61.0568 23.057 61.359 23.0104 61.6603C22.3293 61.4627 21.7282 61.1507 21.2341 60.6983C21.2341 60.6983 20.9402 62.3806 22.714 64.0915C22.6633 64.6828 22.6339 65.2684 22.616 65.8506C22.1668 65.7918 21.7478 65.6808 21.3689 65.5044C21.3689 65.5044 21.3305 66.615 22.6135 67.5893C22.6208 67.8629 22.6323 68.134 22.6478 68.4011C21.8548 68.4917 21.1247 68.455 20.4804 68.2606C20.4804 68.2606 20.5351 69.7772 22.861 70.5457C22.9377 71.0659 23.0357 71.5665 23.1443 72.0549C22.6413 72.1733 22.1586 72.2362 21.7054 72.2304C21.7054 72.2304 21.9104 73.1704 23.5241 73.5077C23.5951 73.7364 23.6719 73.9577 23.7503 74.1782C22.9042 74.5481 22.0974 74.7899 21.3493 74.8683C21.3493 74.8683 21.7503 76.117 24.4722 75.8899C24.6723 76.2934 24.8863 76.6813 25.1158 77.048C24.5915 77.3346 24.0786 77.5674 23.5812 77.7315C23.5812 77.7315 24.0174 78.442 25.8655 78.1194C25.9929 78.282 26.1219 78.4436 26.2558 78.5972C25.413 79.2227 24.5841 79.7258 23.783 80.0704C23.783 80.0704 24.5025 80.9663 27.4351 79.7577C27.7446 80.0198 28.0672 80.2607 28.402 80.4837C27.89 80.9206 27.3788 81.3077 26.8683 81.6319C26.8683 81.6319 27.5078 82.0639 29.4637 81.1003C29.6393 81.1885 29.8181 81.2726 29.9994 81.351C29.2138 82.1922 28.4167 82.9247 27.614 83.5135C27.614 83.5135 28.6029 83.9937 31.5446 81.8867C31.9415 81.9912 32.3482 82.0737 32.7639 82.1358C32.3024 82.6911 31.8288 83.2065 31.3437 83.667C31.3437 83.667 32.1375 83.7895 34.0567 82.2616C34.2698 82.2705 34.4862 82.2722 34.7043 82.2705C34.0338 83.2644 33.3274 84.1717 32.5818 84.9623C32.5818 84.9623 33.7716 84.9958 36.5189 82.1382C36.9754 82.0778 37.4368 82.0002 37.9081 81.8957C37.5283 82.5294 37.1281 83.1338 36.7026 83.6973C36.7026 83.6973 37.601 83.5029 39.3633 81.5029C39.5977 81.4302 39.8321 81.3575 40.0697 81.2742C39.5585 82.3563 38.9877 83.3796 38.349 84.3187C38.349 84.3187 39.659 83.9022 42.0273 80.4861C42.5132 80.264 43.0057 80.0141 43.5014 79.7487C43.2262 80.4265 42.9207 81.0864 42.5777 81.7217C42.5777 81.7217 43.521 81.2219 45.0057 78.883C45.2466 78.7352 45.4867 78.5841 45.726 78.4281C45.4075 79.5265 45.0114 80.5988 44.5206 81.6262C44.5206 81.6262 45.8616 80.7883 47.6901 77.0471C48.1793 76.6764 48.6611 76.2852 49.1388 75.8842C48.9894 76.5514 48.8032 77.2162 48.5713 77.8736C48.5713 77.8736 49.4876 77.1076 50.5868 74.6094C50.8204 74.393 51.0499 74.1708 51.2802 73.9479C51.1781 74.9842 50.9837 76.0271 50.6774 77.0684C50.6774 77.0684 51.9596 75.8654 53.1234 72.05C53.5733 71.5591 54.016 71.0569 54.4488 70.5424C54.4349 71.1557 54.3794 71.7796 54.2724 72.4158C54.2724 72.4158 55.1062 71.4301 55.7506 68.9246C55.9556 68.6592 56.1597 68.3921 56.3606 68.1218C56.4807 69.0258 56.5019 69.9707 56.3998 70.9548C56.3998 70.9548 57.535 69.4693 57.9548 65.84C58.3362 65.2618 58.7069 64.6755 59.0663 64.0817C59.1888 64.602 59.2688 65.1467 59.2949 65.72C59.2949 65.72 59.9883 64.5815 60.132 62.2402C60.2961 61.9429 60.4579 61.6432 60.6163 61.3426C60.9519 62.0556 61.1879 62.8396 61.2966 63.7036C61.2966 63.7036 62.2071 62.036 61.8535 58.8428C62.1418 58.2189 62.417 57.5909 62.6784 56.9596C62.9291 57.3483 63.1382 57.7738 63.295 58.2434C63.295 58.2434 63.798 57.0364 63.4338 55.0306C63.5481 54.7178 63.6576 54.4051 63.7654 54.0915C64.2913 54.5619 64.7233 55.1286 65.0361 55.8081C65.0361 55.8081 65.6592 54.0751 64.5583 51.5386C64.7339 50.9105 64.8981 50.2817 65.0426 49.6545C65.402 49.8856 65.7245 50.1617 66.0006 50.494C66.0006 50.494 66.2815 49.2944 65.4297 47.7509C65.4844 47.4487 65.5383 47.1465 65.5849 46.8452C66.266 47.0428 66.867 47.3548 67.3611 47.8072C67.3611 47.8072 67.6551 46.1249 65.8813 44.414C65.932 43.8235 65.9622 43.2371 65.9802 42.6549Z" fill="#172328"/>
<path d="M48.4292 51.8691C48.4292 54.5175 46.5704 57.7376 44.2764 59.0614C41.9832 60.3852 40.1236 59.3122 40.1236 56.6637C40.1236 54.0161 41.9832 50.7951 44.2764 49.4713C46.5696 48.1475 48.4292 49.2206 48.4292 51.8691Z" fill="#212B37"/>
<path d="M47.4938 52.4375C47.4938 54.4824 46.0581 56.9692 44.2868 57.9917C42.5163 59.0141 41.0806 58.1852 41.0806 56.1403C41.0806 54.0954 42.5163 51.6086 44.2868 50.5861C46.0581 49.5637 47.4938 50.3926 47.4938 52.4375Z" fill="#374354"/>
<path d="M53.4332 27.9584C50.6492 27.9584 47.5556 28.8943 44.3478 30.7465C33.0949 37.2431 23.9385 53.1003 23.9385 66.0951C23.9385 72.3671 26.0495 77.0392 29.8805 79.2516C33.7123 81.4639 38.8132 80.9552 44.2457 77.8184C55.4985 71.3218 64.6542 55.4645 64.6542 42.4706C64.6542 36.1977 62.5439 31.5256 58.7129 29.3132C57.1441 28.4076 55.3622 27.9584 53.4332 27.9584ZM35.1594 80.8114C33.1945 80.8114 31.3791 80.3525 29.7784 79.4288C25.8805 77.1781 23.7343 72.443 23.7343 66.0951C23.7343 53.0358 32.9357 37.0985 44.2457 30.5693C49.7419 27.3957 54.9171 26.8861 58.815 29.136C62.7122 31.3868 64.8583 36.1226 64.8583 42.4706C64.8583 55.5299 55.657 71.4663 44.3478 77.9956C41.1072 79.8665 37.9794 80.8114 35.1594 80.8114Z" fill="white" fill-opacity="0.21"/>
<path d="M52.6177 30.2551C50.0811 30.2551 47.262 31.1086 44.3383 32.7966C34.0777 38.7199 25.7322 53.1765 25.733 65.0214C25.733 70.7381 27.6554 74.9962 31.1467 77.0126C34.6346 79.0273 39.2839 78.5634 44.2362 75.7059C54.4952 69.7826 62.8415 55.326 62.8415 43.4794C62.8415 37.7636 60.9183 33.5055 57.4278 31.4899C55.9986 30.6651 54.3759 30.2551 52.6177 30.2551ZM35.9552 78.4515C34.1618 78.4515 32.5048 78.0326 31.0438 77.189C27.4872 75.135 25.5288 70.8141 25.5288 65.0214C25.528 53.1112 33.9201 38.5762 44.2362 32.6194C49.2522 29.7235 53.9733 29.2596 57.5299 31.3135C61.0873 33.3666 63.0457 37.6876 63.0457 43.4794C63.0457 55.3913 54.6536 69.9272 44.3383 75.8823C41.382 77.5891 38.5277 78.4515 35.9552 78.4515Z" fill="white" fill-opacity="0.21"/>
<path d="M48.9804 26.6494C34.4829 35.0203 22.7295 55.3773 22.7295 72.1182L29.3657 68.2872C29.3657 55.7775 38.1473 40.5671 48.9812 34.3122C59.8143 28.0574 68.5967 33.128 68.5967 45.6378L75.233 41.8059C75.2322 25.0651 63.4787 18.2794 48.9804 26.6494Z" fill="#4368E9"/>
<path d="M48.9674 26.6879C56.1924 22.5172 62.7339 22.1113 67.4804 24.8234L61.7417 21.5192C61.5677 21.413 61.3905 21.3109 61.2117 21.2138L61.0124 21.0994L60.9985 21.1019C56.2912 18.6576 49.9319 19.1541 42.9273 23.1982C28.4298 31.5683 16.6764 51.9253 16.6764 68.6662L22.7164 72.1566C22.7164 55.4157 34.4699 35.0587 48.9674 26.6879Z" fill="#597EFF"/>
<path d="M48.716 52.3L46.6996 50.4355L42.0855 58.2257L44.8728 59.1494L48.716 52.3Z" fill="#374354"/>
<path d="M49.5139 54.0475C49.5139 55.8213 48.2685 57.9781 46.7323 58.865C45.197 59.7511 43.9516 59.0324 43.9516 57.2586C43.9516 55.4857 45.1962 53.3288 46.7323 52.4419C48.2685 51.5559 49.5139 52.2745 49.5139 54.0475Z" fill="#212B37"/>
<path d="M48.3576 54.765C48.3576 55.8112 47.6234 57.0827 46.7169 57.6062C45.8112 58.1289 45.077 57.705 45.0762 56.6589C45.0762 55.6127 45.8112 54.3404 46.7169 53.8177C47.6234 53.2942 48.3576 53.7189 48.3576 54.765Z" fill="#172328"/>
<path d="M47.6046 53.5938C47.7532 53.793 47.8439 54.0707 47.8439 54.4268C47.8439 55.4729 47.1089 56.7453 46.2032 57.2687C45.8757 57.4574 45.5719 57.5195 45.3155 57.4762C45.6021 57.8608 46.1199 57.9343 46.7169 57.5897C47.6234 57.0662 48.3575 55.7947 48.3575 54.7485C48.3575 54.0805 48.057 53.6697 47.6046 53.5938Z" fill="#374354"/>
<path fill-rule="evenodd" clip-rule="evenodd" d="M11.0537 36.933L17.685 40.7615V40.1L11.0537 36.2715V36.933ZM11.0537 37.89L17.685 41.7186V41.0571L11.0537 37.2285V37.89ZM17.685 42.6756L11.0537 38.847V38.1855L17.685 42.0141V42.6756ZM11.0537 39.8998L17.685 43.7283V43.0668L11.0537 39.2383V39.8998ZM17.685 44.6853L11.0537 40.8568V40.1953L17.685 44.0238V44.6853ZM11.0537 41.8138L17.685 45.6424V44.9809L11.0537 41.1523V41.8138ZM17.685 48.4178L11.0537 44.5892V43.9277L17.685 47.7563V48.4178ZM11.0537 45.642L17.685 49.4705V48.809L11.0537 44.9805V45.642ZM17.685 50.4275L11.0537 46.599V45.9375L17.685 49.766V50.4275ZM11.0537 47.556L17.685 51.3846V50.7231L11.0537 46.8945V47.556ZM17.685 52.3416L11.0537 48.5131V47.8516L17.685 51.6801V52.3416ZM11.0537 49.4709L17.685 53.2994V52.6371L11.0537 48.8086V49.4709Z" fill="#4463CF"/>
<path fill-rule="evenodd" clip-rule="evenodd" d="M23.4473 64.5726C23.6033 63.7314 23.7838 62.8878 23.9879 62.0417V62.0426C23.7838 62.8878 23.6033 63.7314 23.4473 64.5726ZM24.5229 60.0042C26.1905 54.1299 28.937 48.258 32.4241 42.9709C28.937 48.258 26.1905 54.1299 24.5229 60.0042Z" fill="#B9BE84"/>
<path d="M23.9975 62.0445V62.0437C24.1609 61.3659 24.3397 60.6848 24.5324 60.0061C24.3397 60.6856 24.1609 61.3658 23.9975 62.0445Z" fill="#A9A861"/>
<path d="M23.453 64.5759C23.4514 64.575 23.449 64.5742 23.4473 64.5734C23.6033 63.7322 23.7838 62.8886 23.9879 62.0434C24.1513 61.3647 24.3301 60.6844 24.5229 60.005C26.1905 54.1307 28.937 48.2589 32.4241 42.9718C32.4258 42.9718 32.4266 42.9718 32.4282 42.9709C28.0329 49.6333 24.8201 57.221 23.453 64.5759Z" fill="#FFDF00"/>
<path d="M23.4631 64.5932C21.2924 63.9072 19.2001 63.1705 17.2025 62.4053C18.2642 55.6245 20.9486 48.5841 24.7175 42.2051C27.3994 42.7555 29.918 42.9915 32.2651 42.9915H32.4399C28.9528 48.2786 26.2063 54.1505 24.5387 60.0247C24.3459 60.7034 24.1671 61.3845 24.0037 62.0623C23.7996 62.9084 23.6191 63.752 23.4631 64.5932Z" fill="white" fill-opacity="0.21"/>
<path d="M14.6521 27.6829C12.1009 26.9953 9.60758 26.5984 7.20168 26.5004C9.60758 26.5984 12.1009 26.9953 14.6521 27.6829ZM14.0649 23.0655H14.0658H14.0649ZM14.0788 23.0655H14.0821H14.0788ZM14.0919 23.0647H14.0944H14.0919Z" fill="#FFDB0D"/>
<path d="M14.8526 27.8111C14.7824 27.7923 14.7121 27.7727 14.6427 27.7539C14.7121 27.7727 14.7824 27.7923 14.8526 27.8111Z" fill="#CDDCBF"/>
<path d="M14.862 27.7423C14.7918 27.7235 14.7215 27.7039 14.6521 27.6851C12.1009 26.9975 9.60758 26.6006 7.20168 26.5026C7.63288 25.7848 8.13431 25.0114 8.70352 24.2249C10.8122 23.5063 12.8367 23.0898 14.0649 23.0677H14.0821C14.0854 23.0669 14.0886 23.0669 14.0919 23.0669H14.0944C14.2152 23.0653 14.3361 23.0645 14.4578 23.0645C15.94 23.0645 17.4582 23.182 19.0058 23.414C17.3365 24.1555 15.6844 25.4597 14.862 27.7423Z" fill="white" fill-opacity="0.35"/>
<path d="M14.8628 27.7544C12.238 27.0316 9.67371 26.6151 7.20166 26.5147C7.20248 26.513 7.20329 26.5114 7.2041 26.5098C9.61 26.6078 12.1033 27.0047 14.6545 27.6923C14.724 27.7111 14.7942 27.7307 14.8644 27.7495C14.8636 27.7511 14.8628 27.7527 14.8628 27.7544Z" fill="#FFDF00"/>
<path d="M37.049 78.8292C36.0233 78.8292 35.0612 78.6773 34.1964 78.3621C34.7672 78.4568 35.3561 78.505 35.9604 78.505C38.5329 78.505 41.3872 77.6426 44.3435 75.9358C51.0459 72.0664 56.9365 64.5743 60.2407 56.5326C58.5004 64.0688 51.8813 72.0688 45.7972 75.9227C42.8514 77.7888 39.7334 78.8292 37.049 78.8292ZM35.9596 78.3C35.0335 78.3 34.1449 78.1865 33.303 77.9586C31.3626 76.8929 30.0763 74.8169 29.9416 71.5535C29.775 67.4882 31.6108 66.8895 34.3589 66.8895C34.9322 66.8895 35.5447 66.9157 36.1874 66.9418C36.8302 66.9671 37.5031 66.9933 38.1948 66.9933C40.4774 66.9933 42.9764 66.7107 45.339 65.2146C51.1455 61.5363 57.2811 49.9568 59.6576 49.9568C60.2415 49.9568 60.5984 50.6559 60.6678 52.3439C60.7095 53.35 60.6352 54.3831 60.4604 55.4293C57.2672 63.8132 51.1937 71.7454 44.2414 75.7594C41.3161 77.4474 38.497 78.3 35.9596 78.3Z" fill="white" fill-opacity="0.23"/>
<path d="M35.9621 78.4876C35.3577 78.4876 34.7689 78.4394 34.1981 78.3447C33.8869 78.2312 33.5888 78.0972 33.3046 77.9412C34.1466 78.1691 35.0351 78.2826 35.9612 78.2826C38.4986 78.2826 41.3178 77.43 44.2431 75.742C51.1954 71.7281 57.2689 63.7958 60.4621 55.4119C60.4008 55.7777 60.3273 56.146 60.2424 56.5152C56.9382 64.5569 51.0475 72.049 44.3452 75.9184C41.3888 77.6252 38.5346 78.4876 35.9621 78.4876Z" fill="#A2B7BE"/>
<path d="M36.1998 9.90662C34.11 9.28514 32.3313 8.60158 30.8163 7.9066C31.5669 6.9266 32.4946 6.1867 33.4052 5.93027L33.406 5.92946C33.4084 5.92864 33.4117 5.92782 33.4142 5.927H33.4166C33.4199 5.92619 33.4231 5.92455 33.4272 5.92374L42.8328 3.34961C44.1158 4.68894 45.5441 5.62402 46.988 6.26837L38.15 8.68734C38.1451 8.68816 38.1402 8.6898 38.1353 8.69143H38.1337C37.4746 8.876 36.8042 9.30964 36.1998 9.90662Z" fill="#6D8DFF"/>
<path d="M36.2103 9.93129C36.207 9.92965 36.2029 9.92884 36.1996 9.92802C36.804 9.33104 37.4744 8.89739 38.1335 8.71283C37.4777 8.89658 36.8138 9.33757 36.2103 9.93129ZM38.1351 8.71283C38.14 8.71119 38.1449 8.70956 38.1498 8.70874C38.1449 8.70956 38.14 8.71119 38.1351 8.71283Z" fill="#FFC900"/>
</svg>
