<svg viewBox="0 0 12 25" xmlns="http://www.w3.org/2000/svg">
<path fill-rule="evenodd" clip-rule="evenodd" d="M6.68595 24.7127L6.68503 24.7136C6.308 25.0949 5.69329 25.0961 5.31499 24.7136L5.31408 24.7127L0.281817 19.61C-0.0951188 19.2278 -0.093813 18.6094 0.285107 18.2289C0.663929 17.8484 1.27666 17.8499 1.65369 18.2322L5.03227 21.658L5.03227 0.976562C5.03227 0.437207 5.46553 0 6.00001 0C6.5345 0 6.96776 0.437207 6.96776 0.976562L6.96775 21.6581L10.3463 18.2321C10.7234 17.8498 11.3361 17.8484 11.7149 18.2288C12.0938 18.6094 12.0952 19.2277 11.7182 19.61L6.68595 24.7127Z"/>
</svg>
