<svg viewBox="0 0 38 12" fill="none" xmlns="http://www.w3.org/2000/svg"><path d="M0 11.848V.768h3.98c1.425 0 2.508.262 3.249.784.746.523 1.119 1.281 1.119 2.276 0 .573-.132 1.062-.396 1.468-.264.406-.652.705-1.164.898.578.152 1.022.436 1.331.852.31.416.464.924.464 1.522 0 1.086-.345 1.902-1.034 2.45-.685.543-1.702.82-3.052.83H0zm2.67-4.71v2.655h1.751c.482 0 .852-.109 1.111-.327.259-.223.388-.535.388-.936 0-.923-.459-1.387-1.377-1.392H2.67zm0-1.75h1.393c.584-.006 1-.112 1.248-.32.249-.208.373-.515.373-.92 0-.468-.134-.802-.403-1.005-.269-.208-.703-.312-1.301-.312H2.67v2.556zM9.618 7.655c0-.822.16-1.552.48-2.191a3.423 3.423 0 011.377-1.484c.599-.345 1.301-.518 2.108-.518 1.232 0 2.204.383 2.914 1.15.71.76 1.066 1.798 1.066 3.112v.09c0 1.284-.358 2.304-1.073 3.06-.71.75-1.674 1.126-2.892 1.126-1.172 0-2.113-.35-2.823-1.05-.71-.705-1.093-1.659-1.15-2.861l-.007-.434zm2.565.16c0 .76.119 1.319.357 1.674.239.355.591.533 1.058.533.913 0 1.38-.703 1.4-2.108v-.259c0-1.476-.472-2.214-1.415-2.214-.858 0-1.322.636-1.393 1.91l-.007.464zM19.26 11.848V5.395h-1.195v-1.78h1.194V2.96c0-.938.277-1.666.83-2.184C20.642.26 21.418 0 22.417 0c.365 0 .766.053 1.202.16l.008 1.887a2.342 2.342 0 00-.631-.069c-.777 0-1.165.335-1.165 1.005v.631h1.606v1.781H21.83v6.453H19.26zM28.14 12c-1.264 0-2.286-.375-3.067-1.126-.781-.756-1.172-1.738-1.172-2.945v-.213c0-.842.155-1.585.464-2.23a3.425 3.425 0 011.37-1.491c.599-.355 1.309-.533 2.13-.533 1.157 0 2.07.36 2.74 1.08.67.716 1.004 1.715 1.004 2.999v.997h-5.098c.091.461.292.824.601 1.088.31.264.71.396 1.203.396.811 0 1.445-.285 1.902-.853l1.172 1.385c-.32.442-.774.794-1.362 1.058A4.602 4.602 0 0128.14 12zm-.29-6.56c-.75 0-1.197.498-1.339 1.492h2.587v-.198c.01-.41-.094-.728-.312-.95-.218-.23-.53-.343-.936-.343zM37.628 5.935l-.844-.06c-.807 0-1.324.253-1.553.76v5.213h-2.564V3.614h2.405l.083 1.058c.432-.806 1.033-1.21 1.804-1.21.274 0 .512.03.715.092l-.046 2.381z"/></svg>
