<svg width="50" height="50" viewBox="0 0 50 50" fill="none" xmlns="http://www.w3.org/2000/svg">
<path fill-rule="evenodd" clip-rule="evenodd" d="M25.4668 11.8672V41H30.3008V35.1348H36.1016V41H41V11.8672L33.2012 8L25.4668 11.8672ZM36.1016 15.7988H38.0352V17.7324H36.1016V15.7988ZM36.1016 19.666H38.0352V21.5996H36.1016V19.666ZM36.1016 23.5332H38.0352V25.4668H36.1016V23.5332ZM36.1016 27.4004H38.0352V29.334H36.1016V27.4004ZM36.1016 31.2676H38.0352V33.2012H36.1016V31.2676ZM30.3008 33.2012H28.3672V31.2676H30.3008V33.2012ZM30.3008 29.334H28.3672V27.4004H30.3008V29.334ZM30.3008 25.4668H28.3672V23.5332H30.3008V25.4668ZM30.3008 21.5996H28.3672V19.666H30.3008V21.5996ZM30.3008 17.7324H28.3672V15.7988H30.3008V17.7324ZM32.2344 33.2012V31.2676H34.168V33.2012H32.2344ZM32.2344 29.334V27.4004H34.168V29.334H32.2344ZM32.2344 25.4668V23.5332H34.168V25.4668H32.2344ZM32.2344 21.5996V19.666H34.168V21.5996H32.2344ZM32.2344 17.7324V15.7988H34.168V17.7324H32.2344ZM34.168 37.0684V41H32.2344V37.0684H34.168ZM17 35H16V41H17V35Z"/>
<ellipse cx="16.5" cy="27" rx="4.5" ry="9" />
</svg>
