<svg width="33" height="33" viewBox="0 0 33 33" fill="none" xmlns="http://www.w3.org/2000/svg">
<path fill-rule="evenodd" clip-rule="evenodd" d="M17.4668 33V3.86719L25.2012 0L33 3.86719V33H28.1016V27.1348H22.3008V33H17.4668ZM30.0352 7.79883H28.1016V9.73242H30.0352V7.79883ZM30.0352 11.666H28.1016V13.5996H30.0352V11.666ZM30.0352 15.5332H28.1016V17.4668H30.0352V15.5332ZM30.0352 19.4004H28.1016V21.334H30.0352V19.4004ZM30.0352 23.2676H28.1016V25.2012H30.0352V23.2676ZM20.3672 25.2012H22.3008V23.2676H20.3672V25.2012ZM20.3672 21.334H22.3008V19.4004H20.3672V21.334ZM20.3672 17.4668H22.3008V15.5332H20.3672V17.4668ZM20.3672 13.5996H22.3008V11.666H20.3672V13.5996ZM20.3672 9.73242H22.3008V7.79883H20.3672V9.73242ZM24.2344 23.2676V25.2012H26.168V23.2676H24.2344ZM24.2344 19.4004V21.334H26.168V19.4004H24.2344ZM24.2344 15.5332V17.4668H26.168V15.5332H24.2344ZM24.2344 11.666V13.5996H26.168V11.666H24.2344ZM24.2344 7.79883V9.73242H26.168V7.79883H24.2344ZM26.168 33V29.0684H24.2344V33H26.168ZM6.83203 29.0684H8.76562V33H6.83203V29.0684ZM10.6992 27.1348H4.89844V33H0V15.5332L7.79883 11.666L15.5332 15.5332V33H10.6992V27.1348ZM12.6328 19.4004H10.6992V21.334H12.6328V19.4004ZM12.6328 23.2676H10.6992V25.2012H12.6328V23.2676ZM8.76562 19.4004H6.83203V21.334H8.76562V19.4004ZM8.76562 23.2676H6.83203V25.2012H8.76562V23.2676ZM4.89844 19.4004H2.96484V21.334H4.89844V19.4004ZM4.89844 23.2676H2.96484V25.2012H4.89844V23.2676Z" />
</svg>
