<svg width="26" height="26" viewBox="0 0 26 26" fill="none" xmlns="http://www.w3.org/2000/svg">
<path d="M6.53172 2.08008C5.79884 2.08008 5.19922 2.6797 5.19922 3.41258V22.0676C5.19922 22.8005 5.79884 23.4001 6.53172 23.4001H19.9666C20.6995 23.4001 21.2991 22.8005 21.2991 22.0676V6.71118L16.67 2.08008H6.53172Z" fill="white"/>
<path d="M16.668 6.71052H21.2984L16.67 2.08008H16.668V6.71052Z" fill="#677B83"/>
<g opacity="0.25">
<path opacity="0.25" d="M5.19922 18.2604V15.0117H8.95154L5.19922 18.2604Z" fill="white"/>
</g>
<path d="M21.2958 14.6787H5.19922V15.0118H21.2958V14.6787Z" fill="#677B83"/>
<path d="M21.2958 20.2148H5.19922V20.548H21.2958V20.2148Z" fill="#677B83"/>
<path d="M9.32227 19.1673V16.0586H10.5748H10.7294C11.1498 16.0586 11.4336 16.1319 11.5795 16.2785C11.7261 16.425 11.7994 16.7082 11.7994 17.1266C11.7994 17.5423 11.7294 17.8188 11.5902 17.9554C11.4509 18.092 11.1684 18.1606 10.7434 18.1606L10.6068 18.1626H9.91256V19.1673H9.32227ZM9.9119 17.6676H10.5835C10.8506 17.6676 11.0205 17.6363 11.0925 17.575C11.1644 17.513 11.2011 17.3678 11.2011 17.1393C11.2011 16.8761 11.1711 16.7135 11.1111 16.6509C11.0512 16.5876 10.8953 16.5563 10.6434 16.5563H9.91256V17.6676H9.9119Z" fill="#172328"/>
<path d="M12.1758 19.1673V16.0586H13.7035C14.1379 16.0586 14.4417 16.1539 14.6156 16.3437C14.7895 16.5336 14.8768 16.8661 14.8768 17.3411C14.8768 18.1166 14.8068 18.615 14.6676 18.8362C14.5276 19.0567 14.2125 19.1673 13.7221 19.1673H12.1758ZM12.7654 18.671H13.6056C13.888 18.671 14.0706 18.6057 14.1539 18.4764C14.2365 18.3465 14.2778 18.06 14.2778 17.6163C14.2778 17.1579 14.2405 16.8668 14.1665 16.7422C14.0919 16.6176 13.9174 16.5563 13.6422 16.5563H12.7654V18.671Z" fill="#172328"/>
<path d="M15.8969 16.5566V17.3947H17.2901V17.8904H15.8969V19.1683H15.3066V16.0596H17.3654V16.5566H15.8969Z" fill="#172328"/>
</svg>
