<svg width="50" height="50" viewBox="0 0 50 50" fill="none" xmlns="http://www.w3.org/2000/svg">
<path d="M12.5625 4C11.1531 4 10 5.15312 10 6.5625V42.4375C10 43.8469 11.1531 45 12.5625 45H38.3989C39.8083 45 40.9614 43.8469 40.9614 42.4375V12.906L32.0593 4H12.5625Z" fill="white"/>
<path d="M32.0547 12.9047H40.9594L32.0585 4H32.0547V12.9047Z" fill="#677B83"/>
<g opacity="0.25">
<path opacity="0.25" d="M10 35.1165V28.8691H17.216L10 35.1165Z" fill="white"/>
</g>
<path d="M40.955 28.2285H10V28.8691H40.955V28.2285Z" fill="#677B83"/>
<path d="M40.955 38.876H10V39.5166H40.955V38.876Z" fill="#677B83"/>
<path d="M17.9258 36.8601V30.8818H20.3345H20.6318C21.4402 30.8818 21.9861 31.0228 22.2667 31.3046C22.5485 31.5865 22.6895 32.1311 22.6895 32.9357C22.6895 33.7352 22.5549 34.2669 22.2872 34.5296C22.0194 34.7922 21.4761 34.9242 20.6587 34.9242L20.396 34.928H19.061V36.8601H17.9258ZM19.0597 33.9761H20.3512C20.865 33.9761 21.1917 33.9158 21.3301 33.798C21.4684 33.6788 21.5389 33.3995 21.5389 32.96C21.5389 32.4539 21.4812 32.1413 21.3659 32.0209C21.2506 31.8991 20.9508 31.8389 20.4665 31.8389H19.061V33.9761H19.0597Z" fill="#172328"/>
<path d="M23.4141 36.8601V30.8818H26.352C27.1873 30.8818 27.7716 31.0651 28.106 31.4302C28.4404 31.7954 28.6082 32.4347 28.6082 33.3482C28.6082 34.8396 28.4737 35.798 28.2059 36.2234C27.9369 36.6475 27.3308 36.8601 26.3878 36.8601H23.4141ZM24.548 35.9056H26.1636C26.7069 35.9056 27.0579 35.7801 27.2181 35.5315C27.377 35.2816 27.4564 34.7307 27.4564 33.8774C27.4564 32.9959 27.3847 32.436 27.2424 32.1964C27.0989 31.9568 26.7632 31.8389 26.2341 31.8389H24.548V35.9056Z" fill="#172328"/>
<path d="M30.5688 31.8396V33.4514H33.2479V34.4047H30.5688V36.8621H29.4336V30.8838H33.3927V31.8396H30.5688Z" fill="#172328"/>
</svg>
