<svg viewBox="0 0 29 29" xmlns="http://www.w3.org/2000/svg"><path clip-rule="evenodd" d="M0 14.5C0 6.493 6.493 0 14.5 0S29 6.493 29 14.5 22.507 29 14.5 29 0 22.507 0 14.5zm22.389 5.454c.206-.53.347-1.135.387-2.021.04-.888.05-1.172.05-3.433s-.01-2.545-.05-3.433c-.04-.886-.181-1.491-.387-2.02a4.08 4.08 0 00-.96-1.476 4.081 4.081 0 00-1.475-.96c-.53-.206-1.135-.346-2.021-.387-.888-.04-1.172-.05-3.433-.05s-2.545.01-3.433.05c-.886.04-1.491.181-2.02.387a4.078 4.078 0 00-1.476.96c-.423.416-.751.92-.96 1.475-.206.53-.347 1.135-.387 2.021-.04.888-.05 1.172-.05 3.433s.01 2.545.05 3.433c.04.886.181 1.491.387 2.02a4.08 4.08 0 00.96 1.476c.416.423.92.75 1.475.96.53.206 1.135.346 2.021.387.888.04 1.172.05 3.433.05s2.545-.01 3.433-.05c.886-.04 1.491-.181 2.02-.387a4.258 4.258 0 002.436-2.435zM20.991 9.589a2.58 2.58 0 00-.623-.957 2.578 2.578 0 00-.957-.623c-.294-.114-.735-.25-1.546-.286-.879-.04-1.142-.049-3.365-.049-2.223 0-2.487.008-3.365.049-.811.037-1.252.172-1.545.286a2.576 2.576 0 00-.958.623c-.276.269-.49.596-.623.957-.114.294-.25.735-.286 1.547-.04.878-.05 1.14-.05 3.364 0 2.223.01 2.487.05 3.365.037.812.172 1.252.286 1.546.134.361.346.688.623.957.269.277.596.49.957.623.294.114.735.25 1.546.287.878.04 1.141.048 3.365.048 2.223 0 2.487-.008 3.364-.048.812-.037 1.253-.173 1.546-.287.727-.28 1.3-.854 1.58-1.58.115-.294.25-.735.287-1.546.04-.878.049-1.142.049-3.365 0-2.223-.009-2.486-.049-3.364-.037-.812-.172-1.253-.286-1.547zM14.5 18.775a4.275 4.275 0 110-8.55 4.275 4.275 0 010 8.55zm4.445-7.72a1 1 0 110-1.999 1 1 0 010 1.999zm-1.67 3.445a2.775 2.775 0 11-5.55 0 2.775 2.775 0 015.55 0z"/></svg>
