<svg viewBox="0 0 141 152" fill="none" xmlns="http://www.w3.org/2000/svg">
<linearGradient id="a" x1="70.428" y1="118.341" x2="70.428" y2="2.45496" gradientUnits="userSpaceOnUse">
	<stop offset="0.4542" stop-color="#0779A4"/>
	<stop offset="0.6143" stop-color="#01A5E4"/>
	<stop offset="0.8845" stop-color="#0AB7FA"/>
</linearGradient>
<linearGradient id="b" x1="70.4277" y1="102.386" x2="70.4277" y2="179.446" gradientUnits="userSpaceOnUse">
	<stop offset="0.4444" stop-color="#05A0DC"/>
	<stop offset="0.6717" stop-color="#0391C8"/>
</linearGradient>
<path d="M134.371 151.809H6.48366C2.98434 151.809 0.148499 148.974 0.148499 145.474V57.6806C0.148499 54.4529 1.62661 51.4043 4.16011 49.4054L63.8976 2.26546C67.7273 -0.755152 73.1274 -0.755152 76.9571 2.26546L136.695 49.4054C139.228 51.4043 140.706 54.4529 140.706 57.6806V145.474C140.706 148.974 137.87 151.809 134.371 151.809Z" fill="url(#a)"/>
<path opacity="0.5" d="M4.16011 50.1361L63.8976 2.99611C67.7273 -0.0244954 73.1274 -0.0244954 76.9571 2.99611L136.695 50.1361C139.228 52.1349 140.706 55.1835 140.706 58.4085V57.6806C140.706 54.4529 139.228 51.4042 136.695 49.4054L76.9571 2.26546C73.1274 -0.755152 67.7273 -0.755152 63.8976 2.26546L4.16011 49.4054C1.62661 51.4042 0.148499 54.4529 0.148499 57.6806V58.4113C0.148499 55.1835 1.62661 52.1349 4.16011 50.1361Z" fill="#81DCFF"/>
<path opacity="0.4" d="M131.347 135.183H20.976C17.7231 135.183 15.086 132.546 15.086 129.293V61.2973C15.086 58.0443 17.7231 55.4072 20.976 55.4072H131.344C134.597 55.4072 137.235 58.0443 137.235 61.2973V129.293C137.237 132.546 134.6 135.183 131.347 135.183Z" fill="#C9C9C9"/>
<path d="M127.123 129.921H15.716C12.4658 129.921 9.83435 127.286 9.83435 124.039V56.908C9.83435 53.6579 12.4686 51.0264 15.716 51.0264H127.123C130.373 51.0264 133.005 53.6607 133.005 56.908V124.039C133.005 127.286 130.37 129.921 127.123 129.921Z" fill="#EDEDED"/>
<g opacity="0.3">
<path opacity="0.3" d="M121.695 108.806H21.7263C21.1216 108.806 20.6317 108.317 20.6317 107.712V102.508C20.6317 101.903 21.1216 101.413 21.7263 101.413H121.695C122.299 101.413 122.789 101.903 122.789 102.508V107.712C122.789 108.317 122.299 108.806 121.695 108.806Z" fill="#848484"/>
<path opacity="0.3" d="M54.186 66.193H22.3954C21.4212 66.193 20.6317 65.4036 20.6317 64.4294V60.5605C20.6317 59.5863 21.4212 58.7969 22.3954 58.7969H54.186C55.1602 58.7969 55.9496 59.5863 55.9496 60.5605V64.4294C55.9496 65.4036 55.1602 66.193 54.186 66.193Z" fill="#848484"/>
<path opacity="0.3" d="M121.026 122.174H89.2351C88.2609 122.174 87.4714 121.384 87.4714 120.41V116.541C87.4714 115.567 88.2609 114.777 89.2351 114.777H121.026C122 114.777 122.789 115.567 122.789 116.541V120.41C122.789 121.384 122 122.174 121.026 122.174Z" fill="#848484"/>
<path opacity="0.3" d="M121.695 80.3973H21.7263C21.1216 80.3973 20.6317 79.9074 20.6317 79.3027V74.0985C20.6317 73.4938 21.1216 73.0039 21.7263 73.0039H121.695C122.299 73.0039 122.789 73.4938 122.789 74.0985V79.3027C122.789 79.9074 122.299 80.3973 121.695 80.3973Z" fill="#848484"/>
<path opacity="0.3" d="M121.695 94.6014H21.7263C21.1216 94.6014 20.6317 94.1115 20.6317 93.5068V88.3026C20.6317 87.6979 21.1216 87.208 21.7263 87.208H121.695C122.299 87.208 122.789 87.6979 122.789 88.3026V93.5068C122.789 94.1115 122.299 94.6014 121.695 94.6014Z" fill="#848484"/>
</g>
<path opacity="0.6" d="M127.123 51.0205H15.7159C12.4658 51.0205 9.83429 53.6548 9.83429 56.9022V58.4503C9.83429 55.2001 12.4686 52.5686 15.7159 52.5686H127.123C130.373 52.5686 133.005 55.2029 133.005 58.4503V56.9022C133.005 53.6548 130.37 51.0205 127.123 51.0205Z" fill="#EDEDED"/>
<path opacity="0.2" d="M140.706 56.8631V143.433C140.706 146.93 137.87 149.769 134.374 149.769H6.48056C2.98404 149.769 0.148193 146.933 0.148193 143.433V56.8631C0.148193 56.7399 0.153793 56.6223 0.159391 56.502C0.304963 60.3848 2.33177 63.9681 5.61272 66.0929L64.9695 99.9383C68.2925 102.085 72.57 102.085 75.893 99.9383L135.25 66.0929C138.525 63.9681 140.549 60.3848 140.698 56.502C140.7 56.6223 140.706 56.7399 140.706 56.8631Z" fill="#C9C9C9"/>
<path d="M140.706 58.9041V145.474C140.706 148.971 137.87 151.81 134.374 151.81H6.48056C2.98404 151.81 0.148193 148.974 0.148193 145.474V58.9041C0.148193 58.7809 0.153793 58.6633 0.159391 58.543C0.304963 62.4258 2.33177 66.0091 5.61272 68.1339L64.9695 101.979C68.2925 104.126 72.57 104.126 75.893 101.979L135.25 68.1339C138.525 66.0091 140.549 62.4258 140.698 58.543C140.7 58.6661 140.706 58.7837 140.706 58.9041Z" fill="#01A5E4"/>
<path opacity="0.5" d="M140.695 58.543C140.549 62.4258 138.522 66.0091 135.247 68.1339L75.8902 101.979C72.5673 104.126 68.2897 104.126 64.9668 101.979L5.60998 68.1339C2.32902 66.0091 0.302216 62.4258 0.156645 58.543C0.151046 58.6661 0.145447 58.7837 0.145447 58.9041V59.7803C0.145447 59.6572 0.151046 59.5396 0.156645 59.4192C0.302216 63.302 2.32902 66.8853 5.60998 69.0101L64.9668 102.856C68.2897 105.003 72.5673 105.003 75.8902 102.856L135.247 69.0101C138.522 66.8853 140.546 63.302 140.695 59.4192C140.7 59.5424 140.706 59.6599 140.706 59.7803V58.9041C140.706 58.7837 140.7 58.6661 140.695 58.543Z" fill="#48CCFF"/>
<path d="M135.244 134.199L75.8874 95.7425C72.5644 93.5897 68.2869 93.5897 64.9667 95.7425L5.60993 134.199C2.20299 136.405 0.148193 140.187 0.148193 144.246V145.475C0.148193 148.974 2.98404 151.81 6.48335 151.81H134.371C137.87 151.81 140.706 148.974 140.706 145.475V144.246C140.706 140.187 138.651 136.405 135.244 134.199Z" fill="url(#b)"/>
<path opacity="0.5" d="M135.244 134.199L75.8874 95.7425C72.5644 93.5897 68.2869 93.5897 64.9667 95.7425L5.60993 134.199C2.20299 136.405 0.148193 140.187 0.148193 144.246V145.413C0.148193 141.354 2.20299 137.572 5.60993 135.366L64.9667 96.9099C68.2897 94.7571 72.5672 94.7571 75.8874 96.9099L135.244 135.366C138.651 137.572 140.706 141.354 140.706 145.413V144.246C140.706 140.187 138.651 136.405 135.244 134.199Z" fill="#40CAFF"/>
</svg>
