<svg xmlns="http://www.w3.org/2000/svg" viewBox="0 0 32 32"><path d="M.013 31.199l15.06-15.062.708.707L.72 31.907z"/><path d="M10.9 26.8c-1.9 0-3.6-.4-4.7-1-.1-.1-.2-.1-.2-.3-2.4-5.7 1.3-13 3.8-15.6 0 0 .1-.1.2-.1.6-.3 1.1-.1 1.3.1.8.6.7 2.2.5 4.4 0 .4-.1.8-.1 1.2 1.9-2.4 2.9-5.7 2.9-9.6 0-.2.1-.4.3-.5L30.8 0h.4c.1.1.2.2.2.3v.2c.5 2.3 1.6 7.5-5.8 17.4-5.1 7-10.6 8.9-14.7 8.9zm-4-1.8c3.2 1.6 10.9 1.9 18-7.7C31.6 8.2 31 3.4 30.6 1.2l-15 5c-.1 4.1-1.2 7.7-3.4 10.2-.2.1-.6.6-1.2.4-.6-.3-.5-1.1-.3-2.7.1-1 .4-3.1-.1-3.4h-.2C8.2 13.1 4.9 19.9 6.9 25z"/></svg>
