<svg xmlns="http://www.w3.org/2000/svg" viewBox="0 0 34 32"><path d="M24.6 31.5H.3v-.4c-.6-4.6-.5-14.9 3-21.1C6.8 3.7 14 .7 17.4 0h.1c1.8 0 5.3.8 5.9 3.8.6 2.9-1.4 5.7-2.5 6.8l-.1.1H13v7.4c2.4-1.3 9.8-5.1 12-5.1 5.2 0 8.2 2.8 8.4 7.9.3 7-5.6 10-8.8 10.6zm-23.4-1h23.3c2.9-.6 8.2-3.3 7.9-9.5-.2-4.6-2.7-7-7.4-7-1.9 0-9.5 3.9-12.3 5.4l-.7.4V9.7h8.3c1-1.1 2.5-3.4 2.1-5.8C21.9 1.6 19 1 17.5 1c-3.2.7-10 3.6-13.4 9.5-3.2 5.8-3.3 15.3-2.9 20z"/><path d="M8.1 25.1c-.4 0-.8 0-1.2-.1l.2-1c1.5.2 2.6 0 3.4-.7 1.7-1.5 1.6-5 1.6-8.1v-1.7h1v1.7c.1 3.3.2 7.1-1.9 8.9-.8.7-1.8 1-3.1 1z"/></svg>
