<svg width="28" height="27" viewBox="0 0 28 27" fill="none" xmlns="http://www.w3.org/2000/svg">
<path fill-rule="evenodd" clip-rule="evenodd" d="M26.5541 0.098653C26.844 -0.0532304 27.1941 -0.0277232 27.4608 0.161261C27.7275 0.351406 27.8643 0.673723 27.8167 0.998359L24.6283 22.4475C24.5901 22.7015 24.4405 22.9275 24.2202 23.062C24.0823 23.1455 23.9257 23.1884 23.7681 23.1884C23.673 23.1884 23.5779 23.1722 23.4875 23.142L11.3333 18.9878L23.2846 4.58907L7.84002 17.7948L0.587875 15.316C0.259761 15.2035 0.0290369 14.9067 0.0023704 14.5589C-0.0231367 14.2122 0.158891 13.8829 0.467296 13.7218L26.5541 0.098653ZM10.1449 25.7971V20.4197L14.8603 22.0313L11.7148 26.3119C11.5478 26.5391 11.2858 26.6667 11.0145 26.6667C10.9241 26.6667 10.8325 26.6528 10.7432 26.6238C10.3861 26.5055 10.1449 26.1728 10.1449 25.7971Z" fill="white"/>
</svg>
