<svg viewBox="0 0 28 31" fill="none" xmlns="http://www.w3.org/2000/svg"><path d="M26.969 5.502c-2.234-.882-4.007-2.507-4.992-4.576A1.64 1.64 0 0020.5 0H7.499a1.64 1.64 0 00-1.476.926C5.038 2.995 3.265 4.62 1.031 5.502A1.623 1.623 0 000 7.022v3.156c0 4.139 1.209 8.227 3.496 11.823 2.309 3.632 5.655 6.667 9.676 8.777l.066.034a1.64 1.64 0 001.524 0l.066-.034c4.021-2.11 7.367-5.145 9.676-8.776C26.791 18.404 28 14.317 28 10.178V7.021c0-.675-.405-1.271-1.031-1.519zm-.007 4.676c0 3.942-1.152 7.838-3.334 11.268-2.212 3.48-5.422 6.389-9.283 8.415l-.065.034a.602.602 0 01-.56 0l-.065-.034c-3.861-2.026-7.071-4.936-9.283-8.415-2.182-3.43-3.334-7.326-3.334-11.268V7.021c0-.247.147-.465.375-.556 2.479-.979 4.449-2.788 5.547-5.094a.597.597 0 01.539-.335h13.002c.23 0 .442.132.539.335 1.098 2.306 3.068 4.115 5.547 5.095.228.09.375.308.375.555v3.157z"/></svg>
