<svg xmlns="http://www.w3.org/2000/svg" viewBox="0 0 29 33"><path d="M13.7 10.6h1v22h-1z"/><path d="M14.134 15.674l4.973-2.985.514.857-4.973 2.985zM9.159 17.443l.514-.858 4.974 2.985-.515.857z"/><path d="M19.9 25.2c-2.4 0-4.6-.9-5.8-1.6-3.7.7-10.9.5-13.4-4.8s2-9.5 5-11C6 5.1 8.2.5 14.6.1c2.6-.2 3.5-.1 4 .4.4.3.4.8.4 1.3 0 1.1 0 2.9 4.4 5.9 4.8 3.2 5.6 6.8 5.4 9.2-.3 3.8-3.1 6.6-5.5 7.7-1.1.4-2.3.6-3.4.6zm-5.6-2.7l.2.1c1.5 1 5.2 2.5 8.5 1 2.2-1 4.6-3.7 4.9-6.9.2-2.1-.5-5.3-4.9-8.3-5-3.2-5-5.4-5-6.6 0-.3 0-.5-.1-.6-.3-.3-2.5-.2-3.3-.1-6 .4-7.9 4.8-8 7v.3l-.2.1c-2.6 1.3-7 5-4.8 9.8 2.2 4.9 9.1 4.9 12.4 4.2h.3z"/></svg>
